%TF.GenerationSoftware,KiCad,Pcbnew,7.0.10*%
%TF.CreationDate,2024-06-09T22:37:06-03:00*%
%TF.ProjectId,level_translator_4ch,6c657665-6c5f-4747-9261-6e736c61746f,rev?*%
%TF.SameCoordinates,Original*%
%TF.FileFunction,Soldermask,Top*%
%TF.FilePolarity,Negative*%
%FSLAX46Y46*%
G04 Gerber Fmt 4.6, Leading zero omitted, Abs format (unit mm)*
G04 Created by KiCad (PCBNEW 7.0.10) date 2024-06-09 22:37:06*
%MOMM*%
%LPD*%
G01*
G04 APERTURE LIST*
G04 Aperture macros list*
%AMRoundRect*
0 Rectangle with rounded corners*
0 $1 Rounding radius*
0 $2 $3 $4 $5 $6 $7 $8 $9 X,Y pos of 4 corners*
0 Add a 4 corners polygon primitive as box body*
4,1,4,$2,$3,$4,$5,$6,$7,$8,$9,$2,$3,0*
0 Add four circle primitives for the rounded corners*
1,1,$1+$1,$2,$3*
1,1,$1+$1,$4,$5*
1,1,$1+$1,$6,$7*
1,1,$1+$1,$8,$9*
0 Add four rect primitives between the rounded corners*
20,1,$1+$1,$2,$3,$4,$5,0*
20,1,$1+$1,$4,$5,$6,$7,0*
20,1,$1+$1,$6,$7,$8,$9,0*
20,1,$1+$1,$8,$9,$2,$3,0*%
G04 Aperture macros list end*
%ADD10RoundRect,0.218750X-0.256250X0.218750X-0.256250X-0.218750X0.256250X-0.218750X0.256250X0.218750X0*%
%ADD11RoundRect,0.200000X-0.275000X0.200000X-0.275000X-0.200000X0.275000X-0.200000X0.275000X0.200000X0*%
%ADD12R,1.000000X0.550000*%
%ADD13C,1.500000*%
%ADD14RoundRect,0.200000X0.275000X-0.200000X0.275000X0.200000X-0.275000X0.200000X-0.275000X-0.200000X0*%
%ADD15RoundRect,0.237500X0.300000X0.237500X-0.300000X0.237500X-0.300000X-0.237500X0.300000X-0.237500X0*%
%ADD16C,6.400000*%
%ADD17RoundRect,0.218750X0.256250X-0.218750X0.256250X0.218750X-0.256250X0.218750X-0.256250X-0.218750X0*%
%ADD18R,1.700000X1.700000*%
%ADD19O,1.700000X1.700000*%
G04 APERTURE END LIST*
D10*
%TO.C,D7*%
X133727200Y-96662100D03*
X133727200Y-98237100D03*
%TD*%
D11*
%TO.C,R25*%
X135255000Y-111900200D03*
X135255000Y-113550200D03*
%TD*%
D12*
%TO.C,U1*%
X140004800Y-80360600D03*
X140004800Y-79410600D03*
X140004800Y-78460600D03*
X137304800Y-78460600D03*
X137304800Y-79410600D03*
X137304800Y-80360600D03*
%TD*%
D10*
%TO.C,D9*%
X133756400Y-111937700D03*
X133756400Y-113512700D03*
%TD*%
D13*
%TO.C,TP9*%
X137304800Y-82626200D03*
%TD*%
D14*
%TO.C,R28*%
X143789400Y-108571800D03*
X143789400Y-106921800D03*
%TD*%
D13*
%TO.C,TP4*%
X146224000Y-122925800D03*
%TD*%
D11*
%TO.C,R18*%
X135251200Y-127231600D03*
X135251200Y-128881600D03*
%TD*%
D13*
%TO.C,TP12*%
X137334000Y-121605000D03*
%TD*%
%TO.C,TP8*%
X146198600Y-92318800D03*
%TD*%
D15*
%TO.C,C4*%
X135326300Y-94249200D03*
X133601300Y-94249200D03*
%TD*%
D14*
%TO.C,R20*%
X135251200Y-122430000D03*
X135251200Y-120780000D03*
%TD*%
D11*
%TO.C,R3*%
X142207000Y-76822800D03*
X142207000Y-78472800D03*
%TD*%
D14*
%TO.C,R26*%
X135255000Y-107098600D03*
X135255000Y-105448600D03*
%TD*%
D13*
%TO.C,TP6*%
X146227800Y-107594400D03*
%TD*%
%TO.C,TP13*%
X137337800Y-112725200D03*
%TD*%
D16*
%TO.C,H1*%
X123012200Y-77063600D03*
%TD*%
D14*
%TO.C,R13*%
X142210800Y-96826800D03*
X142210800Y-95176800D03*
%TD*%
D17*
%TO.C,D3*%
X133723400Y-76962100D03*
X133723400Y-75387100D03*
%TD*%
D10*
%TO.C,D1*%
X133723400Y-81838700D03*
X133723400Y-83413700D03*
%TD*%
D11*
%TO.C,R27*%
X142240000Y-106921800D03*
X142240000Y-108571800D03*
%TD*%
%TO.C,R6*%
X143785600Y-125783800D03*
X143785600Y-127433800D03*
%TD*%
D16*
%TO.C,H3*%
X158038800Y-77063600D03*
%TD*%
%TO.C,H2*%
X123012200Y-126187200D03*
%TD*%
D18*
%TO.C,J1*%
X155498800Y-91490800D03*
D19*
X158038800Y-91490800D03*
X155498800Y-94030800D03*
X158038800Y-94030800D03*
X155498800Y-96570800D03*
X158038800Y-96570800D03*
X155498800Y-99110800D03*
X158038800Y-99110800D03*
X155498800Y-101650800D03*
X158038800Y-101650800D03*
X155498800Y-104190800D03*
X158038800Y-104190800D03*
X155498800Y-106730800D03*
X158038800Y-106730800D03*
X155498800Y-109270800D03*
X158038800Y-109270800D03*
%TD*%
D14*
%TO.C,R8*%
X143785600Y-123903200D03*
X143785600Y-122253200D03*
%TD*%
D12*
%TO.C,U3*%
X140037800Y-110459600D03*
X140037800Y-109509600D03*
X140037800Y-108559600D03*
X137337800Y-108559600D03*
X137337800Y-109509600D03*
X137337800Y-110459600D03*
%TD*%
D14*
%TO.C,R21*%
X142240000Y-112102400D03*
X142240000Y-110452400D03*
%TD*%
%TO.C,R16*%
X143760200Y-93296200D03*
X143760200Y-91646200D03*
%TD*%
D11*
%TO.C,R22*%
X143789400Y-110452400D03*
X143789400Y-112102400D03*
%TD*%
%TO.C,R2*%
X143756400Y-80353400D03*
X143756400Y-82003400D03*
%TD*%
D14*
%TO.C,R5*%
X142236200Y-127433800D03*
X142236200Y-125783800D03*
%TD*%
D15*
%TO.C,C3*%
X135355500Y-109524800D03*
X133630500Y-109524800D03*
%TD*%
D13*
%TO.C,TP10*%
X137304800Y-76174600D03*
%TD*%
%TO.C,TP11*%
X137334000Y-128056600D03*
%TD*%
D14*
%TO.C,R19*%
X135222000Y-76999600D03*
X135222000Y-75349600D03*
%TD*%
D11*
%TO.C,R15*%
X142210800Y-91646200D03*
X142210800Y-93296200D03*
%TD*%
D14*
%TO.C,R1*%
X142207000Y-82003400D03*
X142207000Y-80353400D03*
%TD*%
D13*
%TO.C,TP14*%
X137337800Y-106273600D03*
%TD*%
%TO.C,TP3*%
X146224000Y-126659600D03*
%TD*%
%TO.C,TP1*%
X146194800Y-81229200D03*
%TD*%
D15*
%TO.C,C1*%
X135322500Y-79425800D03*
X133597500Y-79425800D03*
%TD*%
D10*
%TO.C,D2*%
X133752600Y-127269100D03*
X133752600Y-128844100D03*
%TD*%
D13*
%TO.C,TP2*%
X146194800Y-77495400D03*
%TD*%
D18*
%TO.C,J2*%
X122478800Y-94030800D03*
D19*
X125018800Y-94030800D03*
X122478800Y-96570800D03*
X125018800Y-96570800D03*
X122478800Y-99110800D03*
X125018800Y-99110800D03*
X122478800Y-101650800D03*
X125018800Y-101650800D03*
X122478800Y-104190800D03*
X125018800Y-104190800D03*
%TD*%
D14*
%TO.C,R24*%
X135225800Y-91823000D03*
X135225800Y-90173000D03*
%TD*%
D12*
%TO.C,U4*%
X140008600Y-95184000D03*
X140008600Y-94234000D03*
X140008600Y-93284000D03*
X137308600Y-93284000D03*
X137308600Y-94234000D03*
X137308600Y-95184000D03*
%TD*%
D16*
%TO.C,H4*%
X158038800Y-126187200D03*
%TD*%
D13*
%TO.C,TP15*%
X137308600Y-97449600D03*
%TD*%
D11*
%TO.C,R23*%
X135225800Y-96624600D03*
X135225800Y-98274600D03*
%TD*%
D13*
%TO.C,TP16*%
X137308600Y-90998000D03*
%TD*%
D17*
%TO.C,D8*%
X133727200Y-91785500D03*
X133727200Y-90210500D03*
%TD*%
%TO.C,D10*%
X133756400Y-107061100D03*
X133756400Y-105486100D03*
%TD*%
D15*
%TO.C,C2*%
X135351700Y-124856200D03*
X133626700Y-124856200D03*
%TD*%
D13*
%TO.C,TP7*%
X146198600Y-96052600D03*
%TD*%
D17*
%TO.C,D4*%
X133752600Y-122392500D03*
X133752600Y-120817500D03*
%TD*%
D12*
%TO.C,U2*%
X140034000Y-125791000D03*
X140034000Y-124841000D03*
X140034000Y-123891000D03*
X137334000Y-123891000D03*
X137334000Y-124841000D03*
X137334000Y-125791000D03*
%TD*%
D14*
%TO.C,R4*%
X143756400Y-78472800D03*
X143756400Y-76822800D03*
%TD*%
D11*
%TO.C,R7*%
X142236200Y-122253200D03*
X142236200Y-123903200D03*
%TD*%
D13*
%TO.C,TP5*%
X146227800Y-111328200D03*
%TD*%
D11*
%TO.C,R14*%
X143760200Y-95176800D03*
X143760200Y-96826800D03*
%TD*%
%TO.C,R17*%
X135222000Y-81801200D03*
X135222000Y-83451200D03*
%TD*%
M02*
