%TF.GenerationSoftware,KiCad,Pcbnew,7.0.10*%
%TF.CreationDate,2024-06-09T22:37:06-03:00*%
%TF.ProjectId,level_translator_4ch,6c657665-6c5f-4747-9261-6e736c61746f,rev?*%
%TF.SameCoordinates,Original*%
%TF.FileFunction,Copper,L1,Top*%
%TF.FilePolarity,Positive*%
%FSLAX46Y46*%
G04 Gerber Fmt 4.6, Leading zero omitted, Abs format (unit mm)*
G04 Created by KiCad (PCBNEW 7.0.10) date 2024-06-09 22:37:06*
%MOMM*%
%LPD*%
G01*
G04 APERTURE LIST*
G04 Aperture macros list*
%AMRoundRect*
0 Rectangle with rounded corners*
0 $1 Rounding radius*
0 $2 $3 $4 $5 $6 $7 $8 $9 X,Y pos of 4 corners*
0 Add a 4 corners polygon primitive as box body*
4,1,4,$2,$3,$4,$5,$6,$7,$8,$9,$2,$3,0*
0 Add four circle primitives for the rounded corners*
1,1,$1+$1,$2,$3*
1,1,$1+$1,$4,$5*
1,1,$1+$1,$6,$7*
1,1,$1+$1,$8,$9*
0 Add four rect primitives between the rounded corners*
20,1,$1+$1,$2,$3,$4,$5,0*
20,1,$1+$1,$4,$5,$6,$7,0*
20,1,$1+$1,$6,$7,$8,$9,0*
20,1,$1+$1,$8,$9,$2,$3,0*%
G04 Aperture macros list end*
%TA.AperFunction,SMDPad,CuDef*%
%ADD10RoundRect,0.218750X-0.256250X0.218750X-0.256250X-0.218750X0.256250X-0.218750X0.256250X0.218750X0*%
%TD*%
%TA.AperFunction,SMDPad,CuDef*%
%ADD11RoundRect,0.200000X-0.275000X0.200000X-0.275000X-0.200000X0.275000X-0.200000X0.275000X0.200000X0*%
%TD*%
%TA.AperFunction,SMDPad,CuDef*%
%ADD12R,1.000000X0.550000*%
%TD*%
%TA.AperFunction,SMDPad,CuDef*%
%ADD13C,1.500000*%
%TD*%
%TA.AperFunction,SMDPad,CuDef*%
%ADD14RoundRect,0.200000X0.275000X-0.200000X0.275000X0.200000X-0.275000X0.200000X-0.275000X-0.200000X0*%
%TD*%
%TA.AperFunction,SMDPad,CuDef*%
%ADD15RoundRect,0.237500X0.300000X0.237500X-0.300000X0.237500X-0.300000X-0.237500X0.300000X-0.237500X0*%
%TD*%
%TA.AperFunction,ComponentPad*%
%ADD16C,6.400000*%
%TD*%
%TA.AperFunction,SMDPad,CuDef*%
%ADD17RoundRect,0.218750X0.256250X-0.218750X0.256250X0.218750X-0.256250X0.218750X-0.256250X-0.218750X0*%
%TD*%
%TA.AperFunction,ComponentPad*%
%ADD18R,1.700000X1.700000*%
%TD*%
%TA.AperFunction,ComponentPad*%
%ADD19O,1.700000X1.700000*%
%TD*%
%TA.AperFunction,ViaPad*%
%ADD20C,0.800000*%
%TD*%
%TA.AperFunction,Conductor*%
%ADD21C,0.250000*%
%TD*%
G04 APERTURE END LIST*
D10*
%TO.P,D7,1,K*%
%TO.N,GND*%
X133727200Y-96662100D03*
%TO.P,D7,2,A*%
%TO.N,Net-(D7-A)*%
X133727200Y-98237100D03*
%TD*%
D11*
%TO.P,R25,1*%
%TO.N,/CH5_3V3*%
X135255000Y-111900200D03*
%TO.P,R25,2*%
%TO.N,Net-(D9-A)*%
X135255000Y-113550200D03*
%TD*%
D12*
%TO.P,U1,1,1A*%
%TO.N,/CH1_5V*%
X140004800Y-80360600D03*
%TO.P,U1,2,GND*%
%TO.N,GND*%
X140004800Y-79410600D03*
%TO.P,U1,3,2A*%
%TO.N,/CH2_5V*%
X140004800Y-78460600D03*
%TO.P,U1,4,2Y*%
%TO.N,/CH2_3V3*%
X137304800Y-78460600D03*
%TO.P,U1,5,VCC*%
%TO.N,+3V3*%
X137304800Y-79410600D03*
%TO.P,U1,6,1Y*%
%TO.N,/CH1_3V3*%
X137304800Y-80360600D03*
%TD*%
D10*
%TO.P,D9,1,K*%
%TO.N,GND*%
X133756400Y-111937700D03*
%TO.P,D9,2,A*%
%TO.N,Net-(D9-A)*%
X133756400Y-113512700D03*
%TD*%
D13*
%TO.P,TP9,1,1*%
%TO.N,/CH1_3V3*%
X137304800Y-82626200D03*
%TD*%
D14*
%TO.P,R28,1*%
%TO.N,/CH6_5V*%
X143789400Y-108571800D03*
%TO.P,R28,2*%
%TO.N,GND*%
X143789400Y-106921800D03*
%TD*%
D13*
%TO.P,TP4,1,1*%
%TO.N,/CH4_5V*%
X146224000Y-122925800D03*
%TD*%
D11*
%TO.P,R18,1*%
%TO.N,/CH3_3V3*%
X135251200Y-127231600D03*
%TO.P,R18,2*%
%TO.N,Net-(D2-A)*%
X135251200Y-128881600D03*
%TD*%
D13*
%TO.P,TP12,1,1*%
%TO.N,/CH4_3V3*%
X137334000Y-121605000D03*
%TD*%
%TO.P,TP8,1,1*%
%TO.N,/CH8_3V3*%
X146198600Y-92318800D03*
%TD*%
D15*
%TO.P,C4,1*%
%TO.N,+5V*%
X135326300Y-94249200D03*
%TO.P,C4,2*%
%TO.N,GND*%
X133601300Y-94249200D03*
%TD*%
D14*
%TO.P,R20,1*%
%TO.N,/CH4_3V3*%
X135251200Y-122430000D03*
%TO.P,R20,2*%
%TO.N,Net-(D4-A)*%
X135251200Y-120780000D03*
%TD*%
D11*
%TO.P,R3,1*%
%TO.N,+5V*%
X142207000Y-76822800D03*
%TO.P,R3,2*%
%TO.N,/CH2_5V*%
X142207000Y-78472800D03*
%TD*%
D14*
%TO.P,R26,1*%
%TO.N,/CH6_3V3*%
X135255000Y-107098600D03*
%TO.P,R26,2*%
%TO.N,Net-(D10-A)*%
X135255000Y-105448600D03*
%TD*%
D13*
%TO.P,TP6,1,1*%
%TO.N,/CH6_5V*%
X146227800Y-107594400D03*
%TD*%
%TO.P,TP13,1,1*%
%TO.N,/CH5_3V3*%
X137337800Y-112725200D03*
%TD*%
D16*
%TO.P,H1,1,1*%
%TO.N,GND*%
X123012200Y-77063600D03*
%TD*%
D14*
%TO.P,R13,1*%
%TO.N,+3V3*%
X142210800Y-96826800D03*
%TO.P,R13,2*%
%TO.N,/CH7_3V3*%
X142210800Y-95176800D03*
%TD*%
D17*
%TO.P,D3,1,K*%
%TO.N,GND*%
X133723400Y-76962100D03*
%TO.P,D3,2,A*%
%TO.N,Net-(D3-A)*%
X133723400Y-75387100D03*
%TD*%
D10*
%TO.P,D1,1,K*%
%TO.N,GND*%
X133723400Y-81838700D03*
%TO.P,D1,2,A*%
%TO.N,Net-(D1-A)*%
X133723400Y-83413700D03*
%TD*%
D11*
%TO.P,R27,1*%
%TO.N,+5V*%
X142240000Y-106921800D03*
%TO.P,R27,2*%
%TO.N,/CH6_5V*%
X142240000Y-108571800D03*
%TD*%
%TO.P,R6,1*%
%TO.N,/CH3_5V*%
X143785600Y-125783800D03*
%TO.P,R6,2*%
%TO.N,GND*%
X143785600Y-127433800D03*
%TD*%
D16*
%TO.P,H3,1,1*%
%TO.N,GND*%
X158038800Y-77063600D03*
%TD*%
%TO.P,H2,1,1*%
%TO.N,GND*%
X123012200Y-126187200D03*
%TD*%
D18*
%TO.P,J1,1,Pin_1*%
%TO.N,/CH2_5V*%
X155498800Y-91490800D03*
D19*
%TO.P,J1,2,Pin_2*%
%TO.N,+5V*%
X158038800Y-91490800D03*
%TO.P,J1,3,Pin_3*%
%TO.N,/CH7_5V*%
X155498800Y-94030800D03*
%TO.P,J1,4,Pin_4*%
%TO.N,GND*%
X158038800Y-94030800D03*
%TO.P,J1,5,Pin_5*%
%TO.N,unconnected-(J1-Pin_5-Pad5)*%
X155498800Y-96570800D03*
%TO.P,J1,6,Pin_6*%
%TO.N,GND*%
X158038800Y-96570800D03*
%TO.P,J1,7,Pin_7*%
%TO.N,/CH1_5V*%
X155498800Y-99110800D03*
%TO.P,J1,8,Pin_8*%
%TO.N,/CH5_5V*%
X158038800Y-99110800D03*
%TO.P,J1,9,Pin_9*%
%TO.N,/CH3_5V*%
X155498800Y-101650800D03*
%TO.P,J1,10,Pin_10*%
%TO.N,unconnected-(J1-Pin_10-Pad10)*%
X158038800Y-101650800D03*
%TO.P,J1,11,Pin_11*%
%TO.N,/CH4_5V*%
X155498800Y-104190800D03*
%TO.P,J1,12,Pin_12*%
%TO.N,GND*%
X158038800Y-104190800D03*
%TO.P,J1,13,Pin_13*%
%TO.N,unconnected-(J1-Pin_13-Pad13)*%
X155498800Y-106730800D03*
%TO.P,J1,14,Pin_14*%
%TO.N,unconnected-(J1-Pin_14-Pad14)*%
X158038800Y-106730800D03*
%TO.P,J1,15,Pin_15*%
%TO.N,unconnected-(J1-Pin_15-Pad15)*%
X155498800Y-109270800D03*
%TO.P,J1,16,Pin_16*%
%TO.N,unconnected-(J1-Pin_16-Pad16)*%
X158038800Y-109270800D03*
%TD*%
D14*
%TO.P,R8,1*%
%TO.N,/CH4_5V*%
X143785600Y-123903200D03*
%TO.P,R8,2*%
%TO.N,GND*%
X143785600Y-122253200D03*
%TD*%
D12*
%TO.P,U3,1,1A*%
%TO.N,/CH5_5V*%
X140037800Y-110459600D03*
%TO.P,U3,2,GND*%
%TO.N,GND*%
X140037800Y-109509600D03*
%TO.P,U3,3,2A*%
%TO.N,/CH6_5V*%
X140037800Y-108559600D03*
%TO.P,U3,4,2Y*%
%TO.N,/CH6_3V3*%
X137337800Y-108559600D03*
%TO.P,U3,5,VCC*%
%TO.N,+3V3*%
X137337800Y-109509600D03*
%TO.P,U3,6,1Y*%
%TO.N,/CH5_3V3*%
X137337800Y-110459600D03*
%TD*%
D14*
%TO.P,R21,1*%
%TO.N,+5V*%
X142240000Y-112102400D03*
%TO.P,R21,2*%
%TO.N,/CH5_5V*%
X142240000Y-110452400D03*
%TD*%
%TO.P,R16,1*%
%TO.N,/CH8_3V3*%
X143760200Y-93296200D03*
%TO.P,R16,2*%
%TO.N,GND*%
X143760200Y-91646200D03*
%TD*%
D11*
%TO.P,R22,1*%
%TO.N,/CH5_5V*%
X143789400Y-110452400D03*
%TO.P,R22,2*%
%TO.N,GND*%
X143789400Y-112102400D03*
%TD*%
%TO.P,R2,1*%
%TO.N,/CH1_5V*%
X143756400Y-80353400D03*
%TO.P,R2,2*%
%TO.N,GND*%
X143756400Y-82003400D03*
%TD*%
D14*
%TO.P,R5,1*%
%TO.N,+5V*%
X142236200Y-127433800D03*
%TO.P,R5,2*%
%TO.N,/CH3_5V*%
X142236200Y-125783800D03*
%TD*%
D15*
%TO.P,C3,1*%
%TO.N,+3V3*%
X135355500Y-109524800D03*
%TO.P,C3,2*%
%TO.N,GND*%
X133630500Y-109524800D03*
%TD*%
D13*
%TO.P,TP10,1,1*%
%TO.N,/CH2_3V3*%
X137304800Y-76174600D03*
%TD*%
%TO.P,TP11,1,1*%
%TO.N,/CH3_3V3*%
X137334000Y-128056600D03*
%TD*%
D14*
%TO.P,R19,1*%
%TO.N,/CH2_3V3*%
X135222000Y-76999600D03*
%TO.P,R19,2*%
%TO.N,Net-(D3-A)*%
X135222000Y-75349600D03*
%TD*%
D11*
%TO.P,R15,1*%
%TO.N,+3V3*%
X142210800Y-91646200D03*
%TO.P,R15,2*%
%TO.N,/CH8_3V3*%
X142210800Y-93296200D03*
%TD*%
D14*
%TO.P,R1,1*%
%TO.N,+5V*%
X142207000Y-82003400D03*
%TO.P,R1,2*%
%TO.N,/CH1_5V*%
X142207000Y-80353400D03*
%TD*%
D13*
%TO.P,TP14,1,1*%
%TO.N,/CH6_3V3*%
X137337800Y-106273600D03*
%TD*%
%TO.P,TP3,1,1*%
%TO.N,/CH3_5V*%
X146224000Y-126659600D03*
%TD*%
%TO.P,TP1,1,1*%
%TO.N,/CH1_5V*%
X146194800Y-81229200D03*
%TD*%
D15*
%TO.P,C1,1*%
%TO.N,+3V3*%
X135322500Y-79425800D03*
%TO.P,C1,2*%
%TO.N,GND*%
X133597500Y-79425800D03*
%TD*%
D10*
%TO.P,D2,1,K*%
%TO.N,GND*%
X133752600Y-127269100D03*
%TO.P,D2,2,A*%
%TO.N,Net-(D2-A)*%
X133752600Y-128844100D03*
%TD*%
D13*
%TO.P,TP2,1,1*%
%TO.N,/CH2_5V*%
X146194800Y-77495400D03*
%TD*%
D18*
%TO.P,J2,1,Pin_1*%
%TO.N,+3V3*%
X122478800Y-94030800D03*
D19*
%TO.P,J2,2,Pin_2*%
%TO.N,GND*%
X125018800Y-94030800D03*
%TO.P,J2,3,Pin_3*%
%TO.N,/CH1_3V3*%
X122478800Y-96570800D03*
%TO.P,J2,4,Pin_4*%
%TO.N,GND*%
X125018800Y-96570800D03*
%TO.P,J2,5,Pin_5*%
%TO.N,/CH2_3V3*%
X122478800Y-99110800D03*
%TO.P,J2,6,Pin_6*%
%TO.N,GND*%
X125018800Y-99110800D03*
%TO.P,J2,7,Pin_7*%
%TO.N,/CH7_3V3*%
X122478800Y-101650800D03*
%TO.P,J2,8,Pin_8*%
%TO.N,/CH5_3V3*%
X125018800Y-101650800D03*
%TO.P,J2,9,Pin_9*%
%TO.N,/CH3_3V3*%
X122478800Y-104190800D03*
%TO.P,J2,10,Pin_10*%
%TO.N,/CH4_3V3*%
X125018800Y-104190800D03*
%TD*%
D14*
%TO.P,R24,1*%
%TO.N,/CH8_5V*%
X135225800Y-91823000D03*
%TO.P,R24,2*%
%TO.N,Net-(D8-A)*%
X135225800Y-90173000D03*
%TD*%
D12*
%TO.P,U4,1,1A*%
%TO.N,/CH7_3V3*%
X140008600Y-95184000D03*
%TO.P,U4,2,GND*%
%TO.N,GND*%
X140008600Y-94234000D03*
%TO.P,U4,3,2A*%
%TO.N,/CH8_3V3*%
X140008600Y-93284000D03*
%TO.P,U4,4,2Y*%
%TO.N,/CH8_5V*%
X137308600Y-93284000D03*
%TO.P,U4,5,VCC*%
%TO.N,+5V*%
X137308600Y-94234000D03*
%TO.P,U4,6,1Y*%
%TO.N,/CH7_5V*%
X137308600Y-95184000D03*
%TD*%
D16*
%TO.P,H4,1,1*%
%TO.N,GND*%
X158038800Y-126187200D03*
%TD*%
D13*
%TO.P,TP15,1,1*%
%TO.N,/CH7_5V*%
X137308600Y-97449600D03*
%TD*%
D11*
%TO.P,R23,1*%
%TO.N,/CH7_5V*%
X135225800Y-96624600D03*
%TO.P,R23,2*%
%TO.N,Net-(D7-A)*%
X135225800Y-98274600D03*
%TD*%
D13*
%TO.P,TP16,1,1*%
%TO.N,/CH8_5V*%
X137308600Y-90998000D03*
%TD*%
D17*
%TO.P,D8,1,K*%
%TO.N,GND*%
X133727200Y-91785500D03*
%TO.P,D8,2,A*%
%TO.N,Net-(D8-A)*%
X133727200Y-90210500D03*
%TD*%
%TO.P,D10,1,K*%
%TO.N,GND*%
X133756400Y-107061100D03*
%TO.P,D10,2,A*%
%TO.N,Net-(D10-A)*%
X133756400Y-105486100D03*
%TD*%
D15*
%TO.P,C2,1*%
%TO.N,+3V3*%
X135351700Y-124856200D03*
%TO.P,C2,2*%
%TO.N,GND*%
X133626700Y-124856200D03*
%TD*%
D13*
%TO.P,TP7,1,1*%
%TO.N,/CH7_3V3*%
X146198600Y-96052600D03*
%TD*%
D17*
%TO.P,D4,1,K*%
%TO.N,GND*%
X133752600Y-122392500D03*
%TO.P,D4,2,A*%
%TO.N,Net-(D4-A)*%
X133752600Y-120817500D03*
%TD*%
D12*
%TO.P,U2,1,1A*%
%TO.N,/CH3_5V*%
X140034000Y-125791000D03*
%TO.P,U2,2,GND*%
%TO.N,GND*%
X140034000Y-124841000D03*
%TO.P,U2,3,2A*%
%TO.N,/CH4_5V*%
X140034000Y-123891000D03*
%TO.P,U2,4,2Y*%
%TO.N,/CH4_3V3*%
X137334000Y-123891000D03*
%TO.P,U2,5,VCC*%
%TO.N,+3V3*%
X137334000Y-124841000D03*
%TO.P,U2,6,1Y*%
%TO.N,/CH3_3V3*%
X137334000Y-125791000D03*
%TD*%
D14*
%TO.P,R4,1*%
%TO.N,/CH2_5V*%
X143756400Y-78472800D03*
%TO.P,R4,2*%
%TO.N,GND*%
X143756400Y-76822800D03*
%TD*%
D11*
%TO.P,R7,1*%
%TO.N,+5V*%
X142236200Y-122253200D03*
%TO.P,R7,2*%
%TO.N,/CH4_5V*%
X142236200Y-123903200D03*
%TD*%
D13*
%TO.P,TP5,1,1*%
%TO.N,/CH5_5V*%
X146227800Y-111328200D03*
%TD*%
D11*
%TO.P,R14,1*%
%TO.N,/CH7_3V3*%
X143760200Y-95176800D03*
%TO.P,R14,2*%
%TO.N,GND*%
X143760200Y-96826800D03*
%TD*%
%TO.P,R17,1*%
%TO.N,/CH1_3V3*%
X135222000Y-81801200D03*
%TO.P,R17,2*%
%TO.N,Net-(D1-A)*%
X135222000Y-83451200D03*
%TD*%
D20*
%TO.N,GND*%
X160299400Y-104190800D03*
X146024600Y-124790200D03*
X139039600Y-76936600D03*
X139065000Y-91770200D03*
X139242800Y-107086400D03*
X139115800Y-122326400D03*
X145059400Y-113131600D03*
X145034000Y-97917000D03*
X145034000Y-75666600D03*
X132207000Y-82651600D03*
X132232400Y-78359000D03*
X132410200Y-95453200D03*
X132334000Y-126212600D03*
X145161000Y-128473200D03*
X144957800Y-121208800D03*
X145161000Y-106019600D03*
X145135600Y-90754200D03*
X145135600Y-82677000D03*
X134696200Y-108280200D03*
X132029200Y-109550200D03*
%TO.N,+3V3*%
X136347200Y-101295200D03*
X136347200Y-124841000D03*
X136347200Y-109509600D03*
%TO.N,/CH5_3V3*%
X135775700Y-110782100D03*
%TO.N,/CH4_3V3*%
X135597900Y-123634500D03*
%TO.N,/CH3_3V3*%
X135851900Y-126098300D03*
%TO.N,/CH7_5V*%
X150088600Y-94056200D03*
X136144000Y-95402400D03*
%TO.N,+5V*%
X141173200Y-128168400D03*
X141173200Y-121361200D03*
X141147800Y-106121200D03*
X141147800Y-112623600D03*
X136321800Y-94234000D03*
%TO.N,+3V3*%
X141020800Y-91948000D03*
X141020800Y-96342200D03*
X136296400Y-79410600D03*
%TO.N,+5V*%
X140970000Y-77165200D03*
X140970000Y-81610200D03*
%TO.N,/CH1_5V*%
X144754600Y-80353400D03*
%TO.N,/CH2_5V*%
X144805400Y-78472800D03*
%TO.N,/CH1_3V3*%
X135610600Y-80721200D03*
%TO.N,/CH2_3V3*%
X135661400Y-78054200D03*
%TD*%
D21*
%TO.N,GND*%
X158038800Y-104190800D02*
X160299400Y-104190800D01*
%TO.N,Net-(D4-A)*%
X133790100Y-120780000D02*
X133752600Y-120817500D01*
X135251200Y-120780000D02*
X133790100Y-120780000D01*
%TO.N,+3V3*%
X136347200Y-101295200D02*
X138506200Y-101295200D01*
X138506200Y-101295200D02*
X141020800Y-98780600D01*
X141020800Y-98780600D02*
X141020800Y-96342200D01*
X135366900Y-124841000D02*
X136347200Y-124841000D01*
X137334000Y-124841000D02*
X136347200Y-124841000D01*
X135351700Y-124856200D02*
X135366900Y-124841000D01*
X135370700Y-109509600D02*
X136347200Y-109509600D01*
X135355500Y-109524800D02*
X135370700Y-109509600D01*
X137337800Y-109509600D02*
X136347200Y-109509600D01*
%TO.N,/CH5_3V3*%
X135255000Y-111900200D02*
X135255000Y-111302800D01*
X136098200Y-110459600D02*
X135775700Y-110782100D01*
X135255000Y-111302800D02*
X135775700Y-110782100D01*
%TO.N,/CH4_3V3*%
X135251200Y-123287800D02*
X135597900Y-123634500D01*
X135251200Y-122430000D02*
X135251200Y-123287800D01*
X135854400Y-123891000D02*
X135597900Y-123634500D01*
%TO.N,/CH3_3V3*%
X135251200Y-126699000D02*
X135251200Y-127231600D01*
X136159200Y-125791000D02*
X135251200Y-126699000D01*
X137334000Y-125791000D02*
X136159200Y-125791000D01*
%TO.N,/CH3_5V*%
X146224000Y-126648200D02*
X146224000Y-126659600D01*
X147650200Y-122275600D02*
X147650200Y-125222000D01*
X146710400Y-121335800D02*
X147650200Y-122275600D01*
X146710400Y-115773200D02*
X146710400Y-121335800D01*
X152951600Y-106128400D02*
X152951600Y-109532000D01*
X156768800Y-104876600D02*
X156184600Y-105460800D01*
X152951600Y-109532000D02*
X146710400Y-115773200D01*
X155498800Y-101650800D02*
X156768800Y-102920800D01*
X156184600Y-105460800D02*
X153619200Y-105460800D01*
X147650200Y-125222000D02*
X146224000Y-126648200D01*
X153619200Y-105460800D02*
X152951600Y-106128400D01*
X156768800Y-102920800D02*
X156768800Y-104876600D01*
%TO.N,/CH5_5V*%
X148996400Y-108559600D02*
X148996400Y-104927400D01*
X146227800Y-111328200D02*
X148996400Y-108559600D01*
%TO.N,/CH4_5V*%
X152501600Y-109296200D02*
X152501600Y-105156000D01*
X146224000Y-115573800D02*
X152501600Y-109296200D01*
X146224000Y-122925800D02*
X146224000Y-115573800D01*
X152501600Y-105156000D02*
X153466800Y-104190800D01*
X153466800Y-104190800D02*
X155498800Y-104190800D01*
%TO.N,/CH5_5V*%
X148996400Y-104927400D02*
X153543000Y-100380800D01*
X156768800Y-100380800D02*
X158038800Y-99110800D01*
X153543000Y-100380800D02*
X156768800Y-100380800D01*
%TO.N,/CH7_5V*%
X150088600Y-94056200D02*
X150114000Y-94030800D01*
X150114000Y-94030800D02*
X155498800Y-94030800D01*
%TO.N,+5V*%
X141363200Y-82003400D02*
X142207000Y-82003400D01*
X140970000Y-81610200D02*
X141363200Y-82003400D01*
X141415000Y-76822800D02*
X142207000Y-76822800D01*
X141072600Y-77165200D02*
X141415000Y-76822800D01*
X140970000Y-77165200D02*
X141072600Y-77165200D01*
%TO.N,+3V3*%
X141322600Y-91646200D02*
X142210800Y-91646200D01*
X141020800Y-91948000D02*
X141322600Y-91646200D01*
X141067600Y-96342200D02*
X141552200Y-96826800D01*
X141020800Y-96342200D02*
X141067600Y-96342200D01*
X141552200Y-96826800D02*
X142210800Y-96826800D01*
%TO.N,/CH7_3V3*%
X138277600Y-100380800D02*
X123748800Y-100380800D01*
X123748800Y-100380800D02*
X122478800Y-101650800D01*
X140008600Y-95184000D02*
X140008600Y-98649800D01*
X140008600Y-98649800D02*
X138277600Y-100380800D01*
%TO.N,/CH8_5V*%
X136108400Y-93284000D02*
X135225800Y-92401400D01*
%TO.N,/CH7_5V*%
X135915400Y-95402400D02*
X135225800Y-96092000D01*
X135225800Y-96092000D02*
X135225800Y-96624600D01*
X136144000Y-95402400D02*
X135915400Y-95402400D01*
X136362400Y-95184000D02*
X137308600Y-95184000D01*
X136144000Y-95402400D02*
X136362400Y-95184000D01*
%TO.N,+5V*%
X141557200Y-122253200D02*
X142236200Y-122253200D01*
X141173200Y-121869200D02*
X141557200Y-122253200D01*
X141173200Y-121361200D02*
X141173200Y-121869200D01*
X141907800Y-127433800D02*
X141173200Y-128168400D01*
X142236200Y-127433800D02*
X141907800Y-127433800D01*
X141440400Y-106921800D02*
X142240000Y-106921800D01*
X141147800Y-106121200D02*
X141147800Y-106629200D01*
X141147800Y-106629200D02*
X141440400Y-106921800D01*
X141669000Y-112102400D02*
X141147800Y-112623600D01*
X142240000Y-112102400D02*
X141669000Y-112102400D01*
X137308600Y-94234000D02*
X136321800Y-94234000D01*
X136321800Y-94234000D02*
X135341500Y-94234000D01*
%TO.N,+3V3*%
X136281200Y-79425800D02*
X136296400Y-79410600D01*
X137304800Y-79410600D02*
X136296400Y-79410600D01*
X135322500Y-79425800D02*
X136281200Y-79425800D01*
%TO.N,/CH1_5V*%
X143756400Y-80353400D02*
X144754600Y-80353400D01*
X144754600Y-80353400D02*
X145319000Y-80353400D01*
%TO.N,/CH2_5V*%
X143756400Y-78472800D02*
X144805400Y-78472800D01*
X144805400Y-78472800D02*
X145217400Y-78472800D01*
%TO.N,/CH1_3V3*%
X135971200Y-80360600D02*
X135610600Y-80721200D01*
X137304800Y-80360600D02*
X135971200Y-80360600D01*
X135610600Y-80721200D02*
X135222000Y-81109800D01*
%TO.N,/CH2_3V3*%
X136067800Y-78460600D02*
X135661400Y-78054200D01*
X137304800Y-78460600D02*
X136067800Y-78460600D01*
X135661400Y-78054200D02*
X135222000Y-77614800D01*
%TO.N,/CH1_5V*%
X145319000Y-80353400D02*
X146194800Y-81229200D01*
X142207000Y-80353400D02*
X143756400Y-80353400D01*
X142199800Y-80360600D02*
X142207000Y-80353400D01*
X140004800Y-80360600D02*
X142199800Y-80360600D01*
%TO.N,/CH2_5V*%
X145217400Y-78472800D02*
X146194800Y-77495400D01*
X142207000Y-78472800D02*
X143756400Y-78472800D01*
X142194800Y-78460600D02*
X142207000Y-78472800D01*
X140004800Y-78460600D02*
X142194800Y-78460600D01*
%TO.N,Net-(D3-A)*%
X133760900Y-75349600D02*
X133723400Y-75387100D01*
X135222000Y-75349600D02*
X133760900Y-75349600D01*
%TO.N,/CH2_3V3*%
X135222000Y-77614800D02*
X135222000Y-76999600D01*
X137304800Y-78460600D02*
X137304800Y-76174600D01*
%TO.N,Net-(D1-A)*%
X135222000Y-83451200D02*
X133760900Y-83451200D01*
X133760900Y-83451200D02*
X133723400Y-83413700D01*
%TO.N,/CH1_3V3*%
X135222000Y-81109800D02*
X135222000Y-81801200D01*
X137304800Y-80360600D02*
X137304800Y-82626200D01*
%TO.N,/CH4_5V*%
X145246600Y-123903200D02*
X146224000Y-122925800D01*
X143785600Y-123903200D02*
X145246600Y-123903200D01*
X142236200Y-123903200D02*
X143785600Y-123903200D01*
X142224000Y-123891000D02*
X142236200Y-123903200D01*
X140034000Y-123891000D02*
X142224000Y-123891000D01*
%TO.N,/CH3_5V*%
X145348200Y-125783800D02*
X146224000Y-126659600D01*
X143785600Y-125783800D02*
X145348200Y-125783800D01*
X142236200Y-125783800D02*
X143785600Y-125783800D01*
X142229000Y-125791000D02*
X142236200Y-125783800D01*
X140034000Y-125791000D02*
X142229000Y-125791000D01*
%TO.N,Net-(D2-A)*%
X135251200Y-128881600D02*
X133790100Y-128881600D01*
X133790100Y-128881600D02*
X133752600Y-128844100D01*
%TO.N,/CH3_3V3*%
X137334000Y-125791000D02*
X137334000Y-128056600D01*
%TO.N,/CH4_3V3*%
X137334000Y-123891000D02*
X135854400Y-123891000D01*
X137334000Y-123891000D02*
X137334000Y-121605000D01*
%TO.N,/CH6_5V*%
X143789400Y-108571800D02*
X145250400Y-108571800D01*
X145250400Y-108571800D02*
X146227800Y-107594400D01*
X142240000Y-108571800D02*
X143789400Y-108571800D01*
X142227800Y-108559600D02*
X142240000Y-108571800D01*
X140037800Y-108559600D02*
X142227800Y-108559600D01*
%TO.N,/CH5_5V*%
X145352000Y-110452400D02*
X146227800Y-111328200D01*
X143789400Y-110452400D02*
X145352000Y-110452400D01*
X142240000Y-110452400D02*
X143789400Y-110452400D01*
X140037800Y-110459600D02*
X142232800Y-110459600D01*
X142232800Y-110459600D02*
X142240000Y-110452400D01*
%TO.N,Net-(D10-A)*%
X135217500Y-105486100D02*
X135255000Y-105448600D01*
X133756400Y-105486100D02*
X135217500Y-105486100D01*
%TO.N,Net-(D9-A)*%
X133793900Y-113550200D02*
X133756400Y-113512700D01*
X135255000Y-113550200D02*
X133793900Y-113550200D01*
%TO.N,/CH5_3V3*%
X137337800Y-110459600D02*
X136098200Y-110459600D01*
X137337800Y-110459600D02*
X137337800Y-112725200D01*
%TO.N,/CH6_3V3*%
X135255000Y-107543600D02*
X135255000Y-107098600D01*
X136271000Y-108559600D02*
X135255000Y-107543600D01*
X137337800Y-108559600D02*
X136271000Y-108559600D01*
X137337800Y-108559600D02*
X137337800Y-106273600D01*
%TO.N,/CH8_3V3*%
X145221200Y-93296200D02*
X146198600Y-92318800D01*
X143760200Y-93296200D02*
X145221200Y-93296200D01*
X142210800Y-93296200D02*
X143760200Y-93296200D01*
X142198600Y-93284000D02*
X142210800Y-93296200D01*
X140008600Y-93284000D02*
X142198600Y-93284000D01*
%TO.N,/CH7_3V3*%
X145322800Y-95176800D02*
X146198600Y-96052600D01*
X143760200Y-95176800D02*
X145322800Y-95176800D01*
X142210800Y-95176800D02*
X143760200Y-95176800D01*
X142203600Y-95184000D02*
X142210800Y-95176800D01*
X140008600Y-95184000D02*
X142203600Y-95184000D01*
%TO.N,Net-(D8-A)*%
X133764700Y-90173000D02*
X133727200Y-90210500D01*
X135225800Y-90173000D02*
X133764700Y-90173000D01*
%TO.N,/CH8_5V*%
X135225800Y-92401400D02*
X135225800Y-91823000D01*
X137308600Y-93284000D02*
X136108400Y-93284000D01*
X137308600Y-93284000D02*
X137308600Y-90998000D01*
%TO.N,Net-(D7-A)*%
X133764700Y-98274600D02*
X133727200Y-98237100D01*
X135225800Y-98274600D02*
X133764700Y-98274600D01*
%TO.N,/CH7_5V*%
X137308600Y-95184000D02*
X137308600Y-97449600D01*
%TO.N,+5V*%
X135341500Y-94234000D02*
X135326300Y-94249200D01*
%TD*%
%TA.AperFunction,Conductor*%
%TO.N,GND*%
G36*
X146981157Y-124032489D02*
G01*
X147019396Y-124090965D01*
X147024700Y-124126843D01*
X147024700Y-124911546D01*
X147005015Y-124978585D01*
X146988381Y-124999227D01*
X146589006Y-125398601D01*
X146527683Y-125432086D01*
X146469235Y-125430696D01*
X146441977Y-125423393D01*
X146224002Y-125404323D01*
X146223998Y-125404323D01*
X146080595Y-125416869D01*
X146006023Y-125423393D01*
X146006021Y-125423393D01*
X146006017Y-125423394D01*
X145969775Y-125433105D01*
X145899925Y-125431442D01*
X145850002Y-125401011D01*
X145849003Y-125400012D01*
X145839180Y-125387750D01*
X145838959Y-125387934D01*
X145833986Y-125381922D01*
X145784976Y-125335899D01*
X145782177Y-125333186D01*
X145762677Y-125313685D01*
X145762671Y-125313680D01*
X145759486Y-125311209D01*
X145750634Y-125303648D01*
X145718782Y-125273738D01*
X145718780Y-125273736D01*
X145718777Y-125273735D01*
X145701229Y-125264088D01*
X145684963Y-125253404D01*
X145669132Y-125241124D01*
X145629049Y-125223778D01*
X145618563Y-125218641D01*
X145580294Y-125197603D01*
X145580292Y-125197602D01*
X145560893Y-125192622D01*
X145542481Y-125186318D01*
X145524098Y-125178362D01*
X145524092Y-125178360D01*
X145480960Y-125171529D01*
X145469522Y-125169161D01*
X145427220Y-125158300D01*
X145427219Y-125158300D01*
X145407184Y-125158300D01*
X145387786Y-125156773D01*
X145380362Y-125155597D01*
X145368005Y-125153640D01*
X145368004Y-125153640D01*
X145324525Y-125157750D01*
X145312856Y-125158300D01*
X144677120Y-125158300D01*
X144610081Y-125138615D01*
X144589439Y-125121981D01*
X144495788Y-125028330D01*
X144495785Y-125028328D01*
X144365577Y-124949614D01*
X144318393Y-124898089D01*
X144306554Y-124829230D01*
X144333823Y-124764901D01*
X144365576Y-124737386D01*
X144495785Y-124658672D01*
X144513843Y-124640614D01*
X144589439Y-124565019D01*
X144650762Y-124531534D01*
X144677120Y-124528700D01*
X145163857Y-124528700D01*
X145179477Y-124530424D01*
X145179504Y-124530139D01*
X145187260Y-124530871D01*
X145187267Y-124530873D01*
X145254473Y-124528761D01*
X145258368Y-124528700D01*
X145285946Y-124528700D01*
X145285950Y-124528700D01*
X145289924Y-124528197D01*
X145301563Y-124527280D01*
X145345227Y-124525909D01*
X145364469Y-124520317D01*
X145383512Y-124516374D01*
X145403392Y-124513864D01*
X145444001Y-124497785D01*
X145455044Y-124494003D01*
X145496990Y-124481818D01*
X145514229Y-124471622D01*
X145531703Y-124463062D01*
X145550327Y-124455688D01*
X145550327Y-124455687D01*
X145550332Y-124455686D01*
X145585683Y-124430000D01*
X145595414Y-124423608D01*
X145633020Y-124401370D01*
X145647189Y-124387199D01*
X145661979Y-124374568D01*
X145678187Y-124362794D01*
X145706038Y-124329126D01*
X145713879Y-124320509D01*
X145850002Y-124184386D01*
X145911323Y-124150903D01*
X145969774Y-124152293D01*
X146006023Y-124162007D01*
X146161720Y-124175628D01*
X146223998Y-124181077D01*
X146224000Y-124181077D01*
X146224002Y-124181077D01*
X146252254Y-124178605D01*
X146441977Y-124162007D01*
X146653330Y-124105375D01*
X146848296Y-124014460D01*
X146917373Y-124003969D01*
X146981157Y-124032489D01*
G37*
%TD.AperFunction*%
%TA.AperFunction,Conductor*%
G36*
X158288800Y-96135298D02*
G01*
X158181115Y-96086120D01*
X158074563Y-96070800D01*
X158003037Y-96070800D01*
X157896485Y-96086120D01*
X157788800Y-96135298D01*
X157788800Y-94466301D01*
X157896485Y-94515480D01*
X158003037Y-94530800D01*
X158074563Y-94530800D01*
X158181115Y-94515480D01*
X158288800Y-94466301D01*
X158288800Y-96135298D01*
G37*
%TD.AperFunction*%
%TA.AperFunction,Conductor*%
G36*
X125268800Y-98675298D02*
G01*
X125161115Y-98626120D01*
X125054563Y-98610800D01*
X124983037Y-98610800D01*
X124876485Y-98626120D01*
X124768800Y-98675298D01*
X124768800Y-97006301D01*
X124876485Y-97055480D01*
X124983037Y-97070800D01*
X125054563Y-97070800D01*
X125161115Y-97055480D01*
X125268800Y-97006301D01*
X125268800Y-98675298D01*
G37*
%TD.AperFunction*%
%TA.AperFunction,Conductor*%
G36*
X125268800Y-96135298D02*
G01*
X125161115Y-96086120D01*
X125054563Y-96070800D01*
X124983037Y-96070800D01*
X124876485Y-96086120D01*
X124768800Y-96135298D01*
X124768800Y-94466301D01*
X124876485Y-94515480D01*
X124983037Y-94530800D01*
X125054563Y-94530800D01*
X125161115Y-94515480D01*
X125268800Y-94466301D01*
X125268800Y-96135298D01*
G37*
%TD.AperFunction*%
%TA.AperFunction,Conductor*%
G36*
X160995842Y-71654164D02*
G01*
X161075386Y-71659378D01*
X161075567Y-71659391D01*
X161253387Y-71672109D01*
X161268704Y-71674172D01*
X161380178Y-71696345D01*
X161382237Y-71696774D01*
X161522040Y-71727186D01*
X161535503Y-71730922D01*
X161649525Y-71769628D01*
X161652874Y-71770820D01*
X161780608Y-71818462D01*
X161792100Y-71823424D01*
X161902487Y-71877861D01*
X161906987Y-71880198D01*
X162024278Y-71944244D01*
X162033742Y-71949974D01*
X162137069Y-72019015D01*
X162142488Y-72022850D01*
X162248527Y-72102230D01*
X162255945Y-72108244D01*
X162349776Y-72190531D01*
X162355698Y-72196078D01*
X162449120Y-72289500D01*
X162454667Y-72295422D01*
X162536950Y-72389248D01*
X162542973Y-72396678D01*
X162580491Y-72446796D01*
X162622348Y-72502710D01*
X162626183Y-72508129D01*
X162695224Y-72611456D01*
X162700954Y-72620920D01*
X162764983Y-72738179D01*
X162767364Y-72742763D01*
X162821769Y-72853087D01*
X162826738Y-72864596D01*
X162874356Y-72992263D01*
X162875593Y-72995738D01*
X162914270Y-73109676D01*
X162918017Y-73123177D01*
X162948413Y-73262908D01*
X162948864Y-73265075D01*
X162971024Y-73376480D01*
X162973091Y-73391825D01*
X162985795Y-73569446D01*
X162985845Y-73570181D01*
X162991034Y-73649341D01*
X162991300Y-73657452D01*
X162991300Y-130558547D01*
X162991034Y-130566658D01*
X162985845Y-130645817D01*
X162985795Y-130646552D01*
X162973091Y-130824173D01*
X162971024Y-130839518D01*
X162948864Y-130950923D01*
X162948413Y-130953090D01*
X162918017Y-131092821D01*
X162914270Y-131106322D01*
X162875593Y-131220260D01*
X162874356Y-131223735D01*
X162826738Y-131351402D01*
X162821769Y-131362911D01*
X162767364Y-131473235D01*
X162764983Y-131477819D01*
X162700954Y-131595078D01*
X162695224Y-131604542D01*
X162626183Y-131707869D01*
X162622348Y-131713288D01*
X162542981Y-131819311D01*
X162536942Y-131826760D01*
X162454667Y-131920576D01*
X162449120Y-131926498D01*
X162355698Y-132019920D01*
X162349776Y-132025467D01*
X162255960Y-132107742D01*
X162248511Y-132113781D01*
X162142488Y-132193148D01*
X162137069Y-132196983D01*
X162033742Y-132266024D01*
X162024278Y-132271754D01*
X161907019Y-132335783D01*
X161902435Y-132338164D01*
X161792111Y-132392569D01*
X161780602Y-132397538D01*
X161652935Y-132445156D01*
X161649460Y-132446393D01*
X161535522Y-132485070D01*
X161522021Y-132488817D01*
X161382290Y-132519213D01*
X161380123Y-132519664D01*
X161268718Y-132541824D01*
X161253373Y-132543891D01*
X161075752Y-132556595D01*
X161075017Y-132556645D01*
X160995858Y-132561834D01*
X160987747Y-132562100D01*
X120444253Y-132562100D01*
X120436142Y-132561834D01*
X120356981Y-132556645D01*
X120356246Y-132556595D01*
X120178625Y-132543891D01*
X120163280Y-132541824D01*
X120051875Y-132519664D01*
X120049708Y-132519213D01*
X119909977Y-132488817D01*
X119896476Y-132485070D01*
X119782538Y-132446393D01*
X119779063Y-132445156D01*
X119651396Y-132397538D01*
X119639887Y-132392569D01*
X119575147Y-132360643D01*
X119529548Y-132338156D01*
X119524979Y-132335783D01*
X119407720Y-132271754D01*
X119398256Y-132266024D01*
X119294929Y-132196983D01*
X119289510Y-132193148D01*
X119233596Y-132151291D01*
X119183478Y-132113773D01*
X119176048Y-132107750D01*
X119082222Y-132025467D01*
X119076300Y-132019920D01*
X118982878Y-131926498D01*
X118977331Y-131920576D01*
X118945650Y-131884451D01*
X118895044Y-131826745D01*
X118889030Y-131819327D01*
X118809650Y-131713288D01*
X118805815Y-131707869D01*
X118736774Y-131604542D01*
X118731044Y-131595078D01*
X118666998Y-131477787D01*
X118664661Y-131473287D01*
X118610224Y-131362900D01*
X118605260Y-131351402D01*
X118557620Y-131223674D01*
X118556428Y-131220325D01*
X118517722Y-131106303D01*
X118513986Y-131092840D01*
X118483574Y-130953037D01*
X118483145Y-130950978D01*
X118460972Y-130839504D01*
X118458909Y-130824187D01*
X118446191Y-130646367D01*
X118446178Y-130646186D01*
X118440965Y-130566643D01*
X118440700Y-130558534D01*
X118440700Y-126187200D01*
X119307122Y-126187200D01*
X119327419Y-126574487D01*
X119388086Y-126957523D01*
X119388087Y-126957530D01*
X119488462Y-127332136D01*
X119627444Y-127694194D01*
X119803510Y-128039743D01*
X120014731Y-128364993D01*
X120223295Y-128622550D01*
X120223296Y-128622550D01*
X121714466Y-127131380D01*
X121877330Y-127322070D01*
X122068019Y-127484933D01*
X120576848Y-128976103D01*
X120576849Y-128976104D01*
X120834406Y-129184668D01*
X121159656Y-129395889D01*
X121505205Y-129571955D01*
X121867263Y-129710937D01*
X122241869Y-129811312D01*
X122241876Y-129811313D01*
X122624912Y-129871980D01*
X123012199Y-129892278D01*
X123012201Y-129892278D01*
X123399487Y-129871980D01*
X123782523Y-129811313D01*
X123782530Y-129811312D01*
X124157136Y-129710937D01*
X124519194Y-129571955D01*
X124864743Y-129395889D01*
X125189983Y-129184676D01*
X125189985Y-129184675D01*
X125281236Y-129110781D01*
X132777100Y-129110781D01*
X132787163Y-129209283D01*
X132840050Y-129368884D01*
X132840055Y-129368895D01*
X132928316Y-129511987D01*
X132928319Y-129511991D01*
X133047208Y-129630880D01*
X133047212Y-129630883D01*
X133190304Y-129719144D01*
X133190307Y-129719145D01*
X133190313Y-129719149D01*
X133349915Y-129772036D01*
X133448426Y-129782100D01*
X133448431Y-129782100D01*
X134056769Y-129782100D01*
X134056774Y-129782100D01*
X134155285Y-129772036D01*
X134314887Y-129719149D01*
X134429569Y-129648412D01*
X134496961Y-129629971D01*
X134558815Y-129647832D01*
X134686594Y-129725078D01*
X134849004Y-129775686D01*
X134919584Y-129782100D01*
X134919587Y-129782100D01*
X135582813Y-129782100D01*
X135582816Y-129782100D01*
X135653396Y-129775686D01*
X135815806Y-129725078D01*
X135961385Y-129637072D01*
X136081672Y-129516785D01*
X136169678Y-129371206D01*
X136220286Y-129208796D01*
X136226700Y-129138216D01*
X136226700Y-129017137D01*
X136246385Y-128950098D01*
X136299189Y-128904343D01*
X136368347Y-128894399D01*
X136431903Y-128923424D01*
X136438381Y-128929456D01*
X136527123Y-129018198D01*
X136706361Y-129143702D01*
X136904670Y-129236175D01*
X137116023Y-129292807D01*
X137298926Y-129308808D01*
X137333998Y-129311877D01*
X137334000Y-129311877D01*
X137334002Y-129311877D01*
X137362254Y-129309405D01*
X137551977Y-129292807D01*
X137763330Y-129236175D01*
X137961639Y-129143702D01*
X138140877Y-129018198D01*
X138295598Y-128863477D01*
X138421102Y-128684239D01*
X138513575Y-128485930D01*
X138570207Y-128274577D01*
X138586805Y-128084854D01*
X138589277Y-128056602D01*
X138589277Y-128056597D01*
X138582588Y-127980140D01*
X138570207Y-127838623D01*
X138513575Y-127627270D01*
X138421102Y-127428962D01*
X138421100Y-127428959D01*
X138421099Y-127428957D01*
X138295599Y-127249724D01*
X138223059Y-127177184D01*
X138140877Y-127095002D01*
X138012375Y-127005023D01*
X137968751Y-126950447D01*
X137959500Y-126903450D01*
X137959500Y-126639466D01*
X137979185Y-126572427D01*
X138031989Y-126526672D01*
X138040156Y-126523288D01*
X138076331Y-126509796D01*
X138191546Y-126423546D01*
X138277796Y-126308331D01*
X138328091Y-126173483D01*
X138334500Y-126113873D01*
X138334500Y-126113870D01*
X139033500Y-126113870D01*
X139033501Y-126113876D01*
X139039908Y-126173483D01*
X139090202Y-126308328D01*
X139090206Y-126308335D01*
X139176452Y-126423544D01*
X139176455Y-126423547D01*
X139291664Y-126509793D01*
X139291671Y-126509797D01*
X139426517Y-126560091D01*
X139426516Y-126560091D01*
X139433444Y-126560835D01*
X139486127Y-126566500D01*
X140581872Y-126566499D01*
X140641483Y-126560091D01*
X140776331Y-126509796D01*
X140836066Y-126465078D01*
X140867920Y-126441233D01*
X140933385Y-126416816D01*
X140942231Y-126416500D01*
X141351880Y-126416500D01*
X141418919Y-126436185D01*
X141439561Y-126452819D01*
X141507861Y-126521119D01*
X141541346Y-126582442D01*
X141536362Y-126652134D01*
X141507861Y-126696481D01*
X141405731Y-126798610D01*
X141405730Y-126798611D01*
X141317722Y-126944193D01*
X141313566Y-126957530D01*
X141267114Y-127106604D01*
X141267114Y-127106606D01*
X141262851Y-127153510D01*
X141237179Y-127218493D01*
X141227068Y-127229940D01*
X141225455Y-127231554D01*
X141164143Y-127265058D01*
X141137747Y-127267900D01*
X141078554Y-127267900D01*
X141046097Y-127274798D01*
X140893397Y-127307255D01*
X140893392Y-127307257D01*
X140720470Y-127384248D01*
X140720465Y-127384251D01*
X140567329Y-127495511D01*
X140440666Y-127636185D01*
X140346021Y-127800115D01*
X140346018Y-127800122D01*
X140291130Y-127969051D01*
X140287526Y-127980144D01*
X140267740Y-128168400D01*
X140287526Y-128356656D01*
X140287527Y-128356659D01*
X140346018Y-128536677D01*
X140346021Y-128536684D01*
X140440667Y-128700616D01*
X140567329Y-128841288D01*
X140720465Y-128952548D01*
X140720470Y-128952551D01*
X140893392Y-129029542D01*
X140893397Y-129029544D01*
X141078554Y-129068900D01*
X141078555Y-129068900D01*
X141267844Y-129068900D01*
X141267846Y-129068900D01*
X141453003Y-129029544D01*
X141625930Y-128952551D01*
X141779071Y-128841288D01*
X141905733Y-128700616D01*
X142000379Y-128536684D01*
X142038298Y-128419981D01*
X142077735Y-128362307D01*
X142142094Y-128335108D01*
X142156229Y-128334300D01*
X142567813Y-128334300D01*
X142567816Y-128334300D01*
X142638396Y-128327886D01*
X142800806Y-128277278D01*
X142946385Y-128189272D01*
X142946387Y-128189269D01*
X142947232Y-128188759D01*
X143014787Y-128170922D01*
X143075533Y-128188758D01*
X143221204Y-128276819D01*
X143221203Y-128276819D01*
X143383494Y-128327390D01*
X143383492Y-128327390D01*
X143454018Y-128333799D01*
X143535599Y-128333798D01*
X143535600Y-128333798D01*
X143535600Y-127683800D01*
X144035600Y-127683800D01*
X144035600Y-128333799D01*
X144117181Y-128333799D01*
X144187702Y-128327391D01*
X144187707Y-128327390D01*
X144349996Y-128276818D01*
X144495477Y-128188872D01*
X144615672Y-128068677D01*
X144703619Y-127923195D01*
X144754190Y-127760906D01*
X144760600Y-127690372D01*
X144760600Y-127683800D01*
X144035600Y-127683800D01*
X143535600Y-127683800D01*
X143535600Y-127307800D01*
X143555285Y-127240761D01*
X143608089Y-127195006D01*
X143659600Y-127183800D01*
X144760599Y-127183800D01*
X144760599Y-127177217D01*
X144754191Y-127106697D01*
X144754190Y-127106692D01*
X144703618Y-126944403D01*
X144615672Y-126798922D01*
X144513584Y-126696834D01*
X144480099Y-126635511D01*
X144485083Y-126565819D01*
X144513583Y-126521473D01*
X144569979Y-126465078D01*
X144589440Y-126445618D01*
X144650764Y-126412133D01*
X144677120Y-126409300D01*
X144855299Y-126409300D01*
X144922338Y-126428985D01*
X144968093Y-126481789D01*
X144978827Y-126544107D01*
X144968723Y-126659597D01*
X144968723Y-126659602D01*
X144976153Y-126744527D01*
X144980884Y-126798610D01*
X144987793Y-126877575D01*
X144987793Y-126877579D01*
X145044422Y-127088922D01*
X145044424Y-127088926D01*
X145044425Y-127088930D01*
X145052708Y-127106692D01*
X145136897Y-127287238D01*
X145136898Y-127287239D01*
X145262402Y-127466477D01*
X145417123Y-127621198D01*
X145596361Y-127746702D01*
X145794670Y-127839175D01*
X145794676Y-127839176D01*
X145794677Y-127839177D01*
X145825364Y-127847399D01*
X146006023Y-127895807D01*
X146188926Y-127911808D01*
X146223998Y-127914877D01*
X146224000Y-127914877D01*
X146224002Y-127914877D01*
X146252254Y-127912405D01*
X146441977Y-127895807D01*
X146653330Y-127839175D01*
X146851639Y-127746702D01*
X147030877Y-127621198D01*
X147185598Y-127466477D01*
X147311102Y-127287239D01*
X147403575Y-127088930D01*
X147460207Y-126877577D01*
X147479277Y-126659600D01*
X147460207Y-126441623D01*
X147448085Y-126396383D01*
X147449748Y-126326535D01*
X147480177Y-126276612D01*
X147569589Y-126187200D01*
X154333722Y-126187200D01*
X154354019Y-126574487D01*
X154414686Y-126957523D01*
X154414687Y-126957530D01*
X154515062Y-127332136D01*
X154654044Y-127694194D01*
X154830110Y-128039743D01*
X155041331Y-128364993D01*
X155249895Y-128622550D01*
X155249896Y-128622550D01*
X156741066Y-127131380D01*
X156903930Y-127322070D01*
X157094619Y-127484933D01*
X155603448Y-128976103D01*
X155603449Y-128976104D01*
X155861006Y-129184668D01*
X156186256Y-129395889D01*
X156531805Y-129571955D01*
X156893863Y-129710937D01*
X157268469Y-129811312D01*
X157268476Y-129811313D01*
X157651512Y-129871980D01*
X158038799Y-129892278D01*
X158038801Y-129892278D01*
X158426087Y-129871980D01*
X158809123Y-129811313D01*
X158809130Y-129811312D01*
X159183736Y-129710937D01*
X159545794Y-129571955D01*
X159891343Y-129395889D01*
X160216583Y-129184676D01*
X160216585Y-129184675D01*
X160474149Y-128976102D01*
X158982980Y-127484933D01*
X159173670Y-127322070D01*
X159336533Y-127131380D01*
X160827702Y-128622549D01*
X161036275Y-128364985D01*
X161036276Y-128364983D01*
X161247489Y-128039743D01*
X161423555Y-127694194D01*
X161562537Y-127332136D01*
X161662912Y-126957530D01*
X161662913Y-126957523D01*
X161723580Y-126574487D01*
X161743878Y-126187200D01*
X161743878Y-126187199D01*
X161723580Y-125799912D01*
X161662913Y-125416876D01*
X161662912Y-125416869D01*
X161562537Y-125042263D01*
X161423555Y-124680205D01*
X161247489Y-124334656D01*
X161036268Y-124009406D01*
X160827704Y-123751849D01*
X160827703Y-123751848D01*
X159336532Y-125243018D01*
X159173670Y-125052330D01*
X158982980Y-124889466D01*
X160474150Y-123398296D01*
X160474150Y-123398295D01*
X160216593Y-123189731D01*
X159891343Y-122978510D01*
X159545794Y-122802444D01*
X159183736Y-122663462D01*
X158809130Y-122563087D01*
X158809123Y-122563086D01*
X158426087Y-122502419D01*
X158038801Y-122482122D01*
X158038799Y-122482122D01*
X157651512Y-122502419D01*
X157268476Y-122563086D01*
X157268469Y-122563087D01*
X156893863Y-122663462D01*
X156531805Y-122802444D01*
X156186256Y-122978510D01*
X155861006Y-123189731D01*
X155603448Y-123398295D01*
X155603448Y-123398296D01*
X157094619Y-124889466D01*
X156903930Y-125052330D01*
X156741066Y-125243018D01*
X155249896Y-123751848D01*
X155249895Y-123751848D01*
X155041331Y-124009406D01*
X154830110Y-124334656D01*
X154654044Y-124680205D01*
X154515062Y-125042263D01*
X154414687Y-125416869D01*
X154414686Y-125416876D01*
X154354019Y-125799912D01*
X154333722Y-126187199D01*
X154333722Y-126187200D01*
X147569589Y-126187200D01*
X148033988Y-125722801D01*
X148046242Y-125712986D01*
X148046059Y-125712764D01*
X148052068Y-125707791D01*
X148052077Y-125707786D01*
X148098149Y-125658722D01*
X148100766Y-125656023D01*
X148120320Y-125636471D01*
X148122776Y-125633303D01*
X148130356Y-125624427D01*
X148160262Y-125592582D01*
X148169913Y-125575024D01*
X148180596Y-125558761D01*
X148192873Y-125542936D01*
X148210221Y-125502844D01*
X148215351Y-125492371D01*
X148236397Y-125454092D01*
X148241380Y-125434680D01*
X148247681Y-125416280D01*
X148255637Y-125397896D01*
X148262470Y-125354748D01*
X148264833Y-125343338D01*
X148275700Y-125301019D01*
X148275700Y-125280983D01*
X148277227Y-125261582D01*
X148277575Y-125259385D01*
X148280360Y-125241804D01*
X148276250Y-125198324D01*
X148275700Y-125186655D01*
X148275700Y-122358342D01*
X148277424Y-122342722D01*
X148277139Y-122342696D01*
X148277871Y-122334940D01*
X148277873Y-122334933D01*
X148275761Y-122267726D01*
X148275700Y-122263831D01*
X148275700Y-122236254D01*
X148275700Y-122236250D01*
X148275196Y-122232265D01*
X148274280Y-122220621D01*
X148272909Y-122176973D01*
X148267322Y-122157744D01*
X148263374Y-122138684D01*
X148260864Y-122118808D01*
X148260863Y-122118806D01*
X148260863Y-122118804D01*
X148244788Y-122078204D01*
X148241004Y-122067152D01*
X148228818Y-122025209D01*
X148228816Y-122025206D01*
X148218623Y-122007971D01*
X148210061Y-121990494D01*
X148202687Y-121971869D01*
X148193129Y-121958714D01*
X148177011Y-121936530D01*
X148170605Y-121926777D01*
X148148370Y-121889180D01*
X148148368Y-121889178D01*
X148148365Y-121889174D01*
X148134206Y-121875015D01*
X148121568Y-121860219D01*
X148109794Y-121844013D01*
X148104567Y-121839689D01*
X148076140Y-121816172D01*
X148067499Y-121808309D01*
X147372219Y-121113028D01*
X147338734Y-121051705D01*
X147335900Y-121025347D01*
X147335900Y-116083651D01*
X147355585Y-116016612D01*
X147372214Y-115995975D01*
X153335386Y-110032802D01*
X153347648Y-110022980D01*
X153347465Y-110022759D01*
X153353468Y-110017791D01*
X153353477Y-110017786D01*
X153399534Y-109968739D01*
X153402182Y-109966006D01*
X153421720Y-109946470D01*
X153424170Y-109943310D01*
X153431754Y-109934429D01*
X153461662Y-109902582D01*
X153471314Y-109885023D01*
X153481989Y-109868772D01*
X153494274Y-109852936D01*
X153511630Y-109812825D01*
X153516761Y-109802354D01*
X153537794Y-109764098D01*
X153537794Y-109764097D01*
X153537797Y-109764092D01*
X153542780Y-109744680D01*
X153549077Y-109726291D01*
X153557038Y-109707895D01*
X153563870Y-109664748D01*
X153566239Y-109653316D01*
X153577099Y-109611022D01*
X153577100Y-109611017D01*
X153577100Y-109590983D01*
X153578627Y-109571582D01*
X153579402Y-109566689D01*
X153581760Y-109551804D01*
X153577650Y-109508324D01*
X153577100Y-109496655D01*
X153577100Y-106438852D01*
X153596785Y-106371813D01*
X153613419Y-106351171D01*
X153841972Y-106122619D01*
X153903295Y-106089134D01*
X153929653Y-106086300D01*
X154114582Y-106086300D01*
X154181621Y-106105985D01*
X154227376Y-106158789D01*
X154237320Y-106227947D01*
X154226963Y-106262706D01*
X154224899Y-106267130D01*
X154224894Y-106267144D01*
X154163738Y-106495386D01*
X154163736Y-106495396D01*
X154143141Y-106730799D01*
X154143141Y-106730800D01*
X154163736Y-106966203D01*
X154163738Y-106966213D01*
X154224894Y-107194455D01*
X154224896Y-107194459D01*
X154224897Y-107194463D01*
X154316971Y-107391916D01*
X154324765Y-107408630D01*
X154324767Y-107408634D01*
X154407815Y-107527238D01*
X154460301Y-107602196D01*
X154460306Y-107602202D01*
X154627397Y-107769293D01*
X154627403Y-107769298D01*
X154812958Y-107899225D01*
X154856583Y-107953802D01*
X154863777Y-108023300D01*
X154832254Y-108085655D01*
X154812958Y-108102375D01*
X154627397Y-108232305D01*
X154460305Y-108399397D01*
X154324765Y-108592969D01*
X154324764Y-108592971D01*
X154224898Y-108807135D01*
X154224894Y-108807144D01*
X154163738Y-109035386D01*
X154163736Y-109035396D01*
X154143141Y-109270799D01*
X154143141Y-109270800D01*
X154163736Y-109506203D01*
X154163738Y-109506213D01*
X154224894Y-109734455D01*
X154224896Y-109734459D01*
X154224897Y-109734463D01*
X154303293Y-109902583D01*
X154324765Y-109948630D01*
X154324767Y-109948634D01*
X154414733Y-110077117D01*
X154460305Y-110142201D01*
X154627399Y-110309295D01*
X154678030Y-110344747D01*
X154820965Y-110444832D01*
X154820967Y-110444833D01*
X154820970Y-110444835D01*
X155035137Y-110544703D01*
X155263392Y-110605863D01*
X155451718Y-110622339D01*
X155498799Y-110626459D01*
X155498800Y-110626459D01*
X155498801Y-110626459D01*
X155538034Y-110623026D01*
X155734208Y-110605863D01*
X155962463Y-110544703D01*
X156176630Y-110444835D01*
X156370201Y-110309295D01*
X156537295Y-110142201D01*
X156667225Y-109956642D01*
X156721802Y-109913017D01*
X156791300Y-109905823D01*
X156853655Y-109937346D01*
X156870375Y-109956642D01*
X157000300Y-110142195D01*
X157000305Y-110142201D01*
X157167399Y-110309295D01*
X157218030Y-110344747D01*
X157360965Y-110444832D01*
X157360967Y-110444833D01*
X157360970Y-110444835D01*
X157575137Y-110544703D01*
X157803392Y-110605863D01*
X157991718Y-110622339D01*
X158038799Y-110626459D01*
X158038800Y-110626459D01*
X158038801Y-110626459D01*
X158078034Y-110623026D01*
X158274208Y-110605863D01*
X158502463Y-110544703D01*
X158716630Y-110444835D01*
X158910201Y-110309295D01*
X159077295Y-110142201D01*
X159212835Y-109948630D01*
X159312703Y-109734463D01*
X159373863Y-109506208D01*
X159394459Y-109270800D01*
X159373863Y-109035392D01*
X159316389Y-108820894D01*
X159312705Y-108807144D01*
X159312704Y-108807143D01*
X159312703Y-108807137D01*
X159212835Y-108592971D01*
X159207225Y-108584958D01*
X159077294Y-108399397D01*
X158910202Y-108232306D01*
X158910196Y-108232301D01*
X158724642Y-108102375D01*
X158681017Y-108047798D01*
X158673823Y-107978300D01*
X158705346Y-107915945D01*
X158724642Y-107899225D01*
X158789127Y-107854072D01*
X158910201Y-107769295D01*
X159077295Y-107602201D01*
X159212835Y-107408630D01*
X159312703Y-107194463D01*
X159373863Y-106966208D01*
X159394459Y-106730800D01*
X159373863Y-106495392D01*
X159312703Y-106267137D01*
X159212835Y-106052971D01*
X159195150Y-106027713D01*
X159077294Y-105859397D01*
X158910202Y-105692306D01*
X158910201Y-105692305D01*
X158724205Y-105562069D01*
X158680581Y-105507492D01*
X158673388Y-105437993D01*
X158704910Y-105375639D01*
X158724205Y-105358919D01*
X158909882Y-105228905D01*
X159076905Y-105061882D01*
X159212400Y-104868378D01*
X159312229Y-104654292D01*
X159312232Y-104654286D01*
X159369436Y-104440800D01*
X158472486Y-104440800D01*
X158498293Y-104400644D01*
X158538800Y-104262689D01*
X158538800Y-104118911D01*
X158498293Y-103980956D01*
X158472486Y-103940800D01*
X159369436Y-103940800D01*
X159369435Y-103940799D01*
X159312232Y-103727313D01*
X159312229Y-103727307D01*
X159212400Y-103513222D01*
X159212399Y-103513220D01*
X159076913Y-103319726D01*
X159076908Y-103319720D01*
X158909878Y-103152690D01*
X158724205Y-103022679D01*
X158680580Y-102968102D01*
X158673388Y-102898604D01*
X158704910Y-102836249D01*
X158724206Y-102819530D01*
X158724642Y-102819225D01*
X158910201Y-102689295D01*
X159077295Y-102522201D01*
X159212835Y-102328630D01*
X159312703Y-102114463D01*
X159373863Y-101886208D01*
X159394459Y-101650800D01*
X159373863Y-101415392D01*
X159312703Y-101187137D01*
X159212835Y-100972971D01*
X159077295Y-100779399D01*
X159077294Y-100779397D01*
X158910202Y-100612306D01*
X158910196Y-100612301D01*
X158724642Y-100482375D01*
X158681017Y-100427798D01*
X158673823Y-100358300D01*
X158705346Y-100295945D01*
X158724642Y-100279225D01*
X158746826Y-100263691D01*
X158910201Y-100149295D01*
X159077295Y-99982201D01*
X159212835Y-99788630D01*
X159312703Y-99574463D01*
X159373863Y-99346208D01*
X159394459Y-99110800D01*
X159393648Y-99101536D01*
X159388388Y-99041412D01*
X159373863Y-98875392D01*
X159323075Y-98685848D01*
X159312705Y-98647144D01*
X159312704Y-98647143D01*
X159312703Y-98647137D01*
X159212835Y-98432971D01*
X159207531Y-98425395D01*
X159077294Y-98239397D01*
X158910202Y-98072306D01*
X158910201Y-98072305D01*
X158724205Y-97942069D01*
X158680581Y-97887492D01*
X158673388Y-97817993D01*
X158704910Y-97755639D01*
X158724205Y-97738919D01*
X158909882Y-97608905D01*
X159076905Y-97441882D01*
X159212400Y-97248378D01*
X159312229Y-97034292D01*
X159312232Y-97034286D01*
X159369436Y-96820800D01*
X158472486Y-96820800D01*
X158498293Y-96780644D01*
X158538800Y-96642689D01*
X158538800Y-96498911D01*
X158498293Y-96360956D01*
X158472486Y-96320800D01*
X159369436Y-96320800D01*
X159369435Y-96320799D01*
X159312232Y-96107313D01*
X159312229Y-96107307D01*
X159212400Y-95893222D01*
X159212399Y-95893220D01*
X159076913Y-95699726D01*
X159076908Y-95699720D01*
X158909882Y-95532694D01*
X158723768Y-95402375D01*
X158680144Y-95347798D01*
X158672951Y-95278299D01*
X158704473Y-95215945D01*
X158723768Y-95199225D01*
X158909882Y-95068905D01*
X159076905Y-94901882D01*
X159212400Y-94708378D01*
X159312229Y-94494292D01*
X159312232Y-94494286D01*
X159369436Y-94280800D01*
X158472486Y-94280800D01*
X158498293Y-94240644D01*
X158538800Y-94102689D01*
X158538800Y-93958911D01*
X158498293Y-93820956D01*
X158472486Y-93780800D01*
X159369436Y-93780800D01*
X159369435Y-93780799D01*
X159312232Y-93567313D01*
X159312229Y-93567307D01*
X159212400Y-93353222D01*
X159212399Y-93353220D01*
X159076913Y-93159726D01*
X159076908Y-93159720D01*
X158909878Y-92992690D01*
X158724205Y-92862679D01*
X158680580Y-92808102D01*
X158673388Y-92738604D01*
X158704910Y-92676249D01*
X158724206Y-92659530D01*
X158731281Y-92654576D01*
X158910201Y-92529295D01*
X159077295Y-92362201D01*
X159212835Y-92168630D01*
X159312703Y-91954463D01*
X159373863Y-91726208D01*
X159394459Y-91490800D01*
X159373863Y-91255392D01*
X159323526Y-91067528D01*
X159312705Y-91027144D01*
X159312704Y-91027143D01*
X159312703Y-91027137D01*
X159212835Y-90812971D01*
X159205980Y-90803180D01*
X159077294Y-90619397D01*
X158910202Y-90452306D01*
X158910195Y-90452301D01*
X158716634Y-90316767D01*
X158716630Y-90316765D01*
X158716628Y-90316764D01*
X158502463Y-90216897D01*
X158502459Y-90216896D01*
X158502455Y-90216894D01*
X158274213Y-90155738D01*
X158274203Y-90155736D01*
X158038801Y-90135141D01*
X158038799Y-90135141D01*
X157803396Y-90155736D01*
X157803386Y-90155738D01*
X157575144Y-90216894D01*
X157575135Y-90216898D01*
X157360971Y-90316764D01*
X157360969Y-90316765D01*
X157167400Y-90452303D01*
X157045473Y-90574230D01*
X156984150Y-90607714D01*
X156914458Y-90602730D01*
X156858525Y-90560858D01*
X156841610Y-90529881D01*
X156792597Y-90398471D01*
X156792593Y-90398464D01*
X156706347Y-90283255D01*
X156706344Y-90283252D01*
X156591135Y-90197006D01*
X156591128Y-90197002D01*
X156456282Y-90146708D01*
X156456283Y-90146708D01*
X156396683Y-90140301D01*
X156396681Y-90140300D01*
X156396673Y-90140300D01*
X156396664Y-90140300D01*
X154600929Y-90140300D01*
X154600923Y-90140301D01*
X154541316Y-90146708D01*
X154406471Y-90197002D01*
X154406464Y-90197006D01*
X154291255Y-90283252D01*
X154291252Y-90283255D01*
X154205006Y-90398464D01*
X154205002Y-90398471D01*
X154154708Y-90533317D01*
X154148301Y-90592916D01*
X154148300Y-90592935D01*
X154148300Y-92388670D01*
X154148301Y-92388676D01*
X154154708Y-92448283D01*
X154205002Y-92583128D01*
X154205006Y-92583135D01*
X154291252Y-92698344D01*
X154291255Y-92698347D01*
X154406464Y-92784593D01*
X154406471Y-92784597D01*
X154537881Y-92833610D01*
X154593815Y-92875481D01*
X154618232Y-92940945D01*
X154603380Y-93009218D01*
X154582230Y-93037473D01*
X154460303Y-93159400D01*
X154325148Y-93352423D01*
X154270571Y-93396048D01*
X154223573Y-93405300D01*
X150765025Y-93405300D01*
X150697986Y-93385615D01*
X150692140Y-93381618D01*
X150541334Y-93272051D01*
X150541329Y-93272048D01*
X150368407Y-93195057D01*
X150368402Y-93195055D01*
X150222601Y-93164065D01*
X150183246Y-93155700D01*
X149993954Y-93155700D01*
X149975032Y-93159722D01*
X149808797Y-93195055D01*
X149808792Y-93195057D01*
X149635870Y-93272048D01*
X149635865Y-93272051D01*
X149482729Y-93383311D01*
X149356066Y-93523985D01*
X149261421Y-93687915D01*
X149261418Y-93687922D01*
X149204004Y-93864626D01*
X149202926Y-93867944D01*
X149183140Y-94056200D01*
X149202926Y-94244456D01*
X149202927Y-94244459D01*
X149261418Y-94424477D01*
X149261421Y-94424484D01*
X149356067Y-94588416D01*
X149464642Y-94709000D01*
X149482729Y-94729088D01*
X149635865Y-94840348D01*
X149635870Y-94840351D01*
X149808792Y-94917342D01*
X149808797Y-94917344D01*
X149993954Y-94956700D01*
X149993955Y-94956700D01*
X150183244Y-94956700D01*
X150183246Y-94956700D01*
X150368403Y-94917344D01*
X150541330Y-94840351D01*
X150694471Y-94729088D01*
X150723068Y-94697327D01*
X150782555Y-94660679D01*
X150815218Y-94656300D01*
X154223573Y-94656300D01*
X154290612Y-94675985D01*
X154325148Y-94709177D01*
X154460301Y-94902196D01*
X154460306Y-94902202D01*
X154627397Y-95069293D01*
X154627403Y-95069298D01*
X154812958Y-95199225D01*
X154856583Y-95253802D01*
X154863777Y-95323300D01*
X154832254Y-95385655D01*
X154812958Y-95402375D01*
X154627397Y-95532305D01*
X154460305Y-95699397D01*
X154324765Y-95892969D01*
X154324764Y-95892971D01*
X154224898Y-96107135D01*
X154224894Y-96107144D01*
X154163738Y-96335386D01*
X154163736Y-96335396D01*
X154143141Y-96570799D01*
X154143141Y-96570800D01*
X154163736Y-96806203D01*
X154163738Y-96806213D01*
X154224894Y-97034455D01*
X154224896Y-97034459D01*
X154224897Y-97034463D01*
X154316835Y-97231624D01*
X154324765Y-97248630D01*
X154324767Y-97248634D01*
X154403844Y-97361567D01*
X154460301Y-97442196D01*
X154460306Y-97442202D01*
X154627397Y-97609293D01*
X154627403Y-97609298D01*
X154812958Y-97739225D01*
X154856583Y-97793802D01*
X154863777Y-97863300D01*
X154832254Y-97925655D01*
X154812958Y-97942375D01*
X154627397Y-98072305D01*
X154460305Y-98239397D01*
X154324765Y-98432969D01*
X154324764Y-98432971D01*
X154224898Y-98647135D01*
X154224894Y-98647144D01*
X154163738Y-98875386D01*
X154163736Y-98875396D01*
X154143141Y-99110799D01*
X154143141Y-99110800D01*
X154163736Y-99346203D01*
X154163738Y-99346213D01*
X154224894Y-99574455D01*
X154224899Y-99574469D01*
X154226963Y-99578894D01*
X154237456Y-99647971D01*
X154208937Y-99711755D01*
X154150461Y-99749996D01*
X154114582Y-99755300D01*
X153625737Y-99755300D01*
X153610120Y-99753576D01*
X153610093Y-99753862D01*
X153602331Y-99753127D01*
X153535144Y-99755239D01*
X153531250Y-99755300D01*
X153503650Y-99755300D01*
X153499962Y-99755765D01*
X153499649Y-99755805D01*
X153488031Y-99756718D01*
X153444372Y-99758090D01*
X153444369Y-99758091D01*
X153425126Y-99763681D01*
X153406083Y-99767625D01*
X153386204Y-99770136D01*
X153386203Y-99770137D01*
X153345593Y-99786215D01*
X153334548Y-99789997D01*
X153292608Y-99802183D01*
X153292604Y-99802185D01*
X153275365Y-99812380D01*
X153257898Y-99820937D01*
X153239269Y-99828312D01*
X153239267Y-99828314D01*
X153203926Y-99853989D01*
X153194168Y-99860399D01*
X153156580Y-99882628D01*
X153142408Y-99896800D01*
X153127623Y-99909428D01*
X153111412Y-99921207D01*
X153083571Y-99954859D01*
X153075711Y-99963496D01*
X148612608Y-104426599D01*
X148600351Y-104436420D01*
X148600534Y-104436641D01*
X148594522Y-104441614D01*
X148548498Y-104490623D01*
X148545791Y-104493416D01*
X148526289Y-104512917D01*
X148526275Y-104512934D01*
X148523807Y-104516115D01*
X148516243Y-104524970D01*
X148486337Y-104556818D01*
X148486336Y-104556820D01*
X148476684Y-104574376D01*
X148466010Y-104590626D01*
X148453729Y-104606461D01*
X148453724Y-104606468D01*
X148436375Y-104646558D01*
X148431238Y-104657044D01*
X148410203Y-104695306D01*
X148405222Y-104714707D01*
X148398921Y-104733110D01*
X148390962Y-104751502D01*
X148390961Y-104751505D01*
X148384128Y-104794643D01*
X148381760Y-104806074D01*
X148370901Y-104848371D01*
X148370900Y-104848382D01*
X148370900Y-104868416D01*
X148369373Y-104887815D01*
X148366240Y-104907594D01*
X148366240Y-104907595D01*
X148370350Y-104951074D01*
X148370900Y-104962743D01*
X148370900Y-108249146D01*
X148351215Y-108316185D01*
X148334581Y-108336827D01*
X146601796Y-110069611D01*
X146540473Y-110103096D01*
X146482022Y-110101705D01*
X146445777Y-110091993D01*
X146336788Y-110082458D01*
X146227802Y-110072923D01*
X146227798Y-110072923D01*
X146082482Y-110085636D01*
X146009823Y-110091993D01*
X146009821Y-110091993D01*
X146009817Y-110091994D01*
X145973575Y-110101705D01*
X145903725Y-110100042D01*
X145853802Y-110069611D01*
X145852803Y-110068612D01*
X145842980Y-110056350D01*
X145842759Y-110056534D01*
X145837786Y-110050522D01*
X145788776Y-110004499D01*
X145785977Y-110001786D01*
X145766477Y-109982285D01*
X145766471Y-109982280D01*
X145763286Y-109979809D01*
X145754434Y-109972248D01*
X145722582Y-109942338D01*
X145722580Y-109942336D01*
X145722577Y-109942335D01*
X145705029Y-109932688D01*
X145688763Y-109922004D01*
X145672932Y-109909724D01*
X145632849Y-109892378D01*
X145622363Y-109887241D01*
X145584094Y-109866203D01*
X145584092Y-109866202D01*
X145564693Y-109861222D01*
X145546281Y-109854918D01*
X145527898Y-109846962D01*
X145527892Y-109846960D01*
X145484760Y-109840129D01*
X145473322Y-109837761D01*
X145431020Y-109826900D01*
X145431019Y-109826900D01*
X145410984Y-109826900D01*
X145391586Y-109825373D01*
X145384162Y-109824197D01*
X145371805Y-109822240D01*
X145371804Y-109822240D01*
X145328325Y-109826350D01*
X145316656Y-109826900D01*
X144680920Y-109826900D01*
X144613881Y-109807215D01*
X144593239Y-109790581D01*
X144499588Y-109696930D01*
X144499585Y-109696928D01*
X144369377Y-109618214D01*
X144322193Y-109566689D01*
X144310354Y-109497830D01*
X144337623Y-109433501D01*
X144369376Y-109405986D01*
X144499585Y-109327272D01*
X144517643Y-109309214D01*
X144593239Y-109233619D01*
X144654562Y-109200134D01*
X144680920Y-109197300D01*
X145167657Y-109197300D01*
X145183277Y-109199024D01*
X145183304Y-109198739D01*
X145191060Y-109199471D01*
X145191067Y-109199473D01*
X145258273Y-109197361D01*
X145262168Y-109197300D01*
X145289746Y-109197300D01*
X145289750Y-109197300D01*
X145293724Y-109196797D01*
X145305363Y-109195880D01*
X145349027Y-109194509D01*
X145368269Y-109188917D01*
X145387312Y-109184974D01*
X145407192Y-109182464D01*
X145447801Y-109166385D01*
X145458844Y-109162603D01*
X145500790Y-109150418D01*
X145518029Y-109140222D01*
X145535503Y-109131662D01*
X145554127Y-109124288D01*
X145554127Y-109124287D01*
X145554132Y-109124286D01*
X145589483Y-109098600D01*
X145599214Y-109092208D01*
X145636820Y-109069970D01*
X145650989Y-109055799D01*
X145665779Y-109043168D01*
X145681987Y-109031394D01*
X145709838Y-108997726D01*
X145717679Y-108989109D01*
X145853802Y-108852986D01*
X145915123Y-108819503D01*
X145973574Y-108820893D01*
X146009823Y-108830607D01*
X146165520Y-108844228D01*
X146227798Y-108849677D01*
X146227800Y-108849677D01*
X146227802Y-108849677D01*
X146256054Y-108847205D01*
X146445777Y-108830607D01*
X146657130Y-108773975D01*
X146855439Y-108681502D01*
X147034677Y-108555998D01*
X147189398Y-108401277D01*
X147314902Y-108222039D01*
X147407375Y-108023730D01*
X147464007Y-107812377D01*
X147480605Y-107622654D01*
X147483077Y-107594402D01*
X147483077Y-107594397D01*
X147476166Y-107515404D01*
X147464007Y-107376423D01*
X147426165Y-107235196D01*
X147407377Y-107165077D01*
X147407376Y-107165076D01*
X147407375Y-107165070D01*
X147314902Y-106966762D01*
X147314900Y-106966759D01*
X147314899Y-106966757D01*
X147189399Y-106787524D01*
X147132674Y-106730799D01*
X147034677Y-106632802D01*
X146855439Y-106507298D01*
X146855440Y-106507298D01*
X146855438Y-106507297D01*
X146708656Y-106438852D01*
X146657130Y-106414825D01*
X146657126Y-106414824D01*
X146657122Y-106414822D01*
X146445777Y-106358193D01*
X146227802Y-106339123D01*
X146227798Y-106339123D01*
X146090087Y-106351171D01*
X146009823Y-106358193D01*
X146009820Y-106358193D01*
X145798477Y-106414822D01*
X145798468Y-106414826D01*
X145600161Y-106507298D01*
X145600157Y-106507300D01*
X145420921Y-106632802D01*
X145266202Y-106787521D01*
X145140700Y-106966757D01*
X145140698Y-106966761D01*
X145048226Y-107165068D01*
X145048222Y-107165077D01*
X144991593Y-107376420D01*
X144991593Y-107376424D01*
X144972523Y-107594397D01*
X144972523Y-107594401D01*
X144975903Y-107633037D01*
X144989236Y-107785441D01*
X144991516Y-107811493D01*
X144977749Y-107879993D01*
X144929134Y-107930176D01*
X144867988Y-107946300D01*
X144680920Y-107946300D01*
X144613881Y-107926615D01*
X144593239Y-107909981D01*
X144517384Y-107834126D01*
X144483899Y-107772803D01*
X144488883Y-107703111D01*
X144517385Y-107658763D01*
X144619471Y-107556678D01*
X144619472Y-107556677D01*
X144707419Y-107411195D01*
X144757990Y-107248906D01*
X144764400Y-107178372D01*
X144764400Y-107171800D01*
X143663400Y-107171800D01*
X143596361Y-107152115D01*
X143550606Y-107099311D01*
X143539400Y-107047800D01*
X143539400Y-106021800D01*
X144039400Y-106021800D01*
X144039400Y-106671800D01*
X144764399Y-106671800D01*
X144764399Y-106665217D01*
X144757991Y-106594697D01*
X144757990Y-106594692D01*
X144707418Y-106432403D01*
X144619472Y-106286922D01*
X144499277Y-106166727D01*
X144353795Y-106078780D01*
X144353796Y-106078780D01*
X144191505Y-106028209D01*
X144191506Y-106028209D01*
X144120972Y-106021800D01*
X144039400Y-106021800D01*
X143539400Y-106021800D01*
X143539399Y-106021799D01*
X143457817Y-106021800D01*
X143387297Y-106028208D01*
X143387292Y-106028209D01*
X143225001Y-106078781D01*
X143224999Y-106078782D01*
X143079332Y-106166841D01*
X143011778Y-106184677D01*
X142951033Y-106166841D01*
X142950185Y-106166328D01*
X142804606Y-106078322D01*
X142642196Y-106027714D01*
X142642194Y-106027713D01*
X142642192Y-106027713D01*
X142592778Y-106023223D01*
X142571616Y-106021300D01*
X142571613Y-106021300D01*
X142152274Y-106021300D01*
X142085235Y-106001615D01*
X142039480Y-105948811D01*
X142034343Y-105935618D01*
X141974981Y-105752922D01*
X141974980Y-105752921D01*
X141974979Y-105752916D01*
X141880333Y-105588984D01*
X141753671Y-105448312D01*
X141753670Y-105448311D01*
X141600534Y-105337051D01*
X141600529Y-105337048D01*
X141427607Y-105260057D01*
X141427602Y-105260055D01*
X141281048Y-105228905D01*
X141242446Y-105220700D01*
X141053154Y-105220700D01*
X141020697Y-105227598D01*
X140867997Y-105260055D01*
X140867992Y-105260057D01*
X140695070Y-105337048D01*
X140695065Y-105337051D01*
X140541929Y-105448311D01*
X140415266Y-105588985D01*
X140320621Y-105752915D01*
X140320618Y-105752922D01*
X140262127Y-105932940D01*
X140262126Y-105932944D01*
X140242340Y-106121200D01*
X140262126Y-106309456D01*
X140262127Y-106309459D01*
X140320618Y-106489477D01*
X140320621Y-106489484D01*
X140415267Y-106653416D01*
X140484943Y-106730799D01*
X140524166Y-106774361D01*
X140547307Y-106811683D01*
X140553211Y-106826594D01*
X140556996Y-106837648D01*
X140569181Y-106879588D01*
X140579380Y-106896834D01*
X140587938Y-106914303D01*
X140595314Y-106932932D01*
X140620981Y-106968260D01*
X140627393Y-106978021D01*
X140649628Y-107015617D01*
X140649633Y-107015624D01*
X140663790Y-107029780D01*
X140676427Y-107044575D01*
X140688206Y-107060787D01*
X140712012Y-107080481D01*
X140721856Y-107088624D01*
X140730497Y-107096487D01*
X140939598Y-107305589D01*
X140949422Y-107317850D01*
X140949643Y-107317668D01*
X140954613Y-107323676D01*
X141003624Y-107369701D01*
X141006422Y-107372413D01*
X141025924Y-107391916D01*
X141025928Y-107391919D01*
X141025929Y-107391920D01*
X141029095Y-107394376D01*
X141037974Y-107401959D01*
X141047810Y-107411195D01*
X141069818Y-107431862D01*
X141087376Y-107441514D01*
X141103633Y-107452193D01*
X141119464Y-107464473D01*
X141149203Y-107477342D01*
X141159552Y-107481821D01*
X141170041Y-107486960D01*
X141193857Y-107500052D01*
X141208308Y-107507997D01*
X141220923Y-107511235D01*
X141227705Y-107512977D01*
X141246119Y-107519281D01*
X141264504Y-107527238D01*
X141307661Y-107534073D01*
X141319056Y-107536432D01*
X141361381Y-107547300D01*
X141361394Y-107547300D01*
X141363281Y-107547539D01*
X141364664Y-107548142D01*
X141368939Y-107549240D01*
X141368761Y-107549929D01*
X141427325Y-107575470D01*
X141435423Y-107582881D01*
X141511661Y-107659119D01*
X141545146Y-107720442D01*
X141540162Y-107790134D01*
X141511662Y-107834481D01*
X141448360Y-107897782D01*
X141387040Y-107931266D01*
X141360681Y-107934100D01*
X140946031Y-107934100D01*
X140878992Y-107914415D01*
X140871720Y-107909367D01*
X140780131Y-107840804D01*
X140780128Y-107840802D01*
X140645282Y-107790508D01*
X140645283Y-107790508D01*
X140585683Y-107784101D01*
X140585681Y-107784100D01*
X140585673Y-107784100D01*
X140585664Y-107784100D01*
X139489929Y-107784100D01*
X139489923Y-107784101D01*
X139430316Y-107790508D01*
X139295471Y-107840802D01*
X139295464Y-107840806D01*
X139180255Y-107927052D01*
X139180252Y-107927055D01*
X139094006Y-108042264D01*
X139094002Y-108042271D01*
X139043710Y-108177113D01*
X139043709Y-108177117D01*
X139037300Y-108236727D01*
X139037300Y-108236734D01*
X139037300Y-108236735D01*
X139037300Y-108882470D01*
X139037301Y-108882476D01*
X139043709Y-108942084D01*
X139062319Y-108991982D01*
X139067303Y-109061674D01*
X139062320Y-109078646D01*
X139044202Y-109127223D01*
X139044201Y-109127227D01*
X139037800Y-109186755D01*
X139037800Y-109259600D01*
X139229397Y-109259600D01*
X139288825Y-109274768D01*
X139295471Y-109278397D01*
X139430317Y-109328691D01*
X139430316Y-109328691D01*
X139437244Y-109329435D01*
X139489927Y-109335100D01*
X140585672Y-109335099D01*
X140645283Y-109328691D01*
X140780131Y-109278396D01*
X140780134Y-109278393D01*
X140786775Y-109274768D01*
X140846203Y-109259600D01*
X141037800Y-109259600D01*
X141074119Y-109223281D01*
X141076458Y-109225620D01*
X141110289Y-109196306D01*
X141161800Y-109185100D01*
X141336280Y-109185100D01*
X141403319Y-109204785D01*
X141423961Y-109221419D01*
X141529811Y-109327269D01*
X141529813Y-109327270D01*
X141529815Y-109327272D01*
X141660019Y-109405983D01*
X141707207Y-109457511D01*
X141719045Y-109526371D01*
X141691776Y-109590699D01*
X141660020Y-109618215D01*
X141601958Y-109653316D01*
X141529813Y-109696929D01*
X141500469Y-109726274D01*
X141428960Y-109797782D01*
X141367640Y-109831266D01*
X141341281Y-109834100D01*
X141161800Y-109834100D01*
X141094761Y-109814415D01*
X141076591Y-109793446D01*
X141074119Y-109795919D01*
X141037800Y-109759600D01*
X140846203Y-109759600D01*
X140786775Y-109744432D01*
X140780128Y-109740802D01*
X140645282Y-109690508D01*
X140645283Y-109690508D01*
X140585683Y-109684101D01*
X140585681Y-109684100D01*
X140585673Y-109684100D01*
X140585664Y-109684100D01*
X139489929Y-109684100D01*
X139489923Y-109684101D01*
X139430316Y-109690508D01*
X139295471Y-109740802D01*
X139288825Y-109744432D01*
X139229397Y-109759600D01*
X139037800Y-109759600D01*
X139037800Y-109832444D01*
X139044201Y-109891972D01*
X139044203Y-109891983D01*
X139062319Y-109940553D01*
X139067303Y-110010244D01*
X139062320Y-110027216D01*
X139043710Y-110077113D01*
X139043709Y-110077117D01*
X139037300Y-110136727D01*
X139037300Y-110136734D01*
X139037300Y-110136735D01*
X139037300Y-110782470D01*
X139037301Y-110782476D01*
X139043708Y-110842083D01*
X139094002Y-110976928D01*
X139094006Y-110976935D01*
X139180252Y-111092144D01*
X139180255Y-111092147D01*
X139295464Y-111178393D01*
X139295471Y-111178397D01*
X139430317Y-111228691D01*
X139430316Y-111228691D01*
X139437244Y-111229435D01*
X139489927Y-111235100D01*
X140585672Y-111235099D01*
X140645283Y-111228691D01*
X140780131Y-111178396D01*
X140839865Y-111133679D01*
X140871720Y-111109833D01*
X140937185Y-111085416D01*
X140946031Y-111085100D01*
X141355680Y-111085100D01*
X141422719Y-111104785D01*
X141443361Y-111121419D01*
X141511661Y-111189719D01*
X141545146Y-111251042D01*
X141540162Y-111320734D01*
X141511661Y-111365081D01*
X141409530Y-111467211D01*
X141409526Y-111467216D01*
X141368004Y-111535901D01*
X141334783Y-111572061D01*
X141329946Y-111575576D01*
X141320174Y-111581996D01*
X141282578Y-111604230D01*
X141268414Y-111618395D01*
X141253624Y-111631027D01*
X141237414Y-111642804D01*
X141237411Y-111642807D01*
X141209572Y-111676459D01*
X141201736Y-111685072D01*
X141200054Y-111686755D01*
X141138741Y-111720258D01*
X141112347Y-111723100D01*
X141053154Y-111723100D01*
X141020697Y-111729998D01*
X140867997Y-111762455D01*
X140867992Y-111762457D01*
X140695070Y-111839448D01*
X140695065Y-111839451D01*
X140541929Y-111950711D01*
X140415266Y-112091385D01*
X140320621Y-112255315D01*
X140320618Y-112255322D01*
X140262127Y-112435340D01*
X140262126Y-112435344D01*
X140242340Y-112623600D01*
X140262126Y-112811856D01*
X140262127Y-112811859D01*
X140320618Y-112991877D01*
X140320621Y-112991884D01*
X140415267Y-113155816D01*
X140496493Y-113246026D01*
X140541929Y-113296488D01*
X140695065Y-113407748D01*
X140695070Y-113407751D01*
X140867992Y-113484742D01*
X140867997Y-113484744D01*
X141053154Y-113524100D01*
X141053155Y-113524100D01*
X141242444Y-113524100D01*
X141242446Y-113524100D01*
X141427603Y-113484744D01*
X141600530Y-113407751D01*
X141753671Y-113296488D01*
X141880333Y-113155816D01*
X141881075Y-113154531D01*
X141932823Y-113064901D01*
X141983389Y-113016685D01*
X142040210Y-113002900D01*
X142571613Y-113002900D01*
X142571616Y-113002900D01*
X142642196Y-112996486D01*
X142804606Y-112945878D01*
X142950185Y-112857872D01*
X142950187Y-112857869D01*
X142951032Y-112857359D01*
X143018587Y-112839522D01*
X143079333Y-112857358D01*
X143225004Y-112945419D01*
X143225003Y-112945419D01*
X143387294Y-112995990D01*
X143387292Y-112995990D01*
X143457818Y-113002399D01*
X143539399Y-113002398D01*
X143539400Y-113002398D01*
X143539400Y-112352400D01*
X144039400Y-112352400D01*
X144039400Y-113002399D01*
X144120981Y-113002399D01*
X144191502Y-112995991D01*
X144191507Y-112995990D01*
X144353796Y-112945418D01*
X144499277Y-112857472D01*
X144619472Y-112737277D01*
X144707419Y-112591795D01*
X144757990Y-112429506D01*
X144764400Y-112358972D01*
X144764400Y-112352400D01*
X144039400Y-112352400D01*
X143539400Y-112352400D01*
X143539400Y-111976400D01*
X143559085Y-111909361D01*
X143611889Y-111863606D01*
X143663400Y-111852400D01*
X144764399Y-111852400D01*
X144764399Y-111845817D01*
X144757991Y-111775297D01*
X144757990Y-111775292D01*
X144707418Y-111613003D01*
X144619472Y-111467522D01*
X144517384Y-111365434D01*
X144483899Y-111304111D01*
X144488883Y-111234419D01*
X144517383Y-111190073D01*
X144573778Y-111133679D01*
X144593240Y-111114218D01*
X144654564Y-111080733D01*
X144680920Y-111077900D01*
X144859099Y-111077900D01*
X144926138Y-111097585D01*
X144971893Y-111150389D01*
X144982627Y-111212707D01*
X144972523Y-111328197D01*
X144972523Y-111328202D01*
X144991593Y-111546175D01*
X144991593Y-111546179D01*
X145048222Y-111757522D01*
X145048224Y-111757526D01*
X145048225Y-111757530D01*
X145086425Y-111839451D01*
X145140697Y-111955838D01*
X145140698Y-111955839D01*
X145266202Y-112135077D01*
X145420923Y-112289798D01*
X145600161Y-112415302D01*
X145798470Y-112507775D01*
X145798476Y-112507776D01*
X145798477Y-112507777D01*
X145829164Y-112515999D01*
X146009823Y-112564407D01*
X146192726Y-112580408D01*
X146227798Y-112583477D01*
X146227800Y-112583477D01*
X146227802Y-112583477D01*
X146256054Y-112581005D01*
X146445777Y-112564407D01*
X146657130Y-112507775D01*
X146855439Y-112415302D01*
X147034677Y-112289798D01*
X147189398Y-112135077D01*
X147314902Y-111955839D01*
X147407375Y-111757530D01*
X147464007Y-111546177D01*
X147483077Y-111328200D01*
X147483036Y-111327735D01*
X147472550Y-111207872D01*
X147464007Y-111110223D01*
X147454294Y-111073974D01*
X147455957Y-111004125D01*
X147486386Y-110954202D01*
X149380186Y-109060402D01*
X149392448Y-109050580D01*
X149392265Y-109050359D01*
X149398268Y-109045391D01*
X149398277Y-109045386D01*
X149444334Y-108996339D01*
X149446982Y-108993606D01*
X149466520Y-108974070D01*
X149468970Y-108970910D01*
X149476554Y-108962029D01*
X149506462Y-108930182D01*
X149516114Y-108912623D01*
X149526789Y-108896372D01*
X149539074Y-108880536D01*
X149556430Y-108840425D01*
X149561561Y-108829954D01*
X149563317Y-108826761D01*
X149582597Y-108791692D01*
X149587580Y-108772280D01*
X149593877Y-108753891D01*
X149601838Y-108735495D01*
X149608670Y-108692348D01*
X149611039Y-108680916D01*
X149621899Y-108638622D01*
X149621900Y-108638617D01*
X149621900Y-108618583D01*
X149623427Y-108599182D01*
X149624411Y-108592971D01*
X149626560Y-108579404D01*
X149622450Y-108535924D01*
X149621900Y-108524255D01*
X149621900Y-105237852D01*
X149641585Y-105170813D01*
X149658219Y-105150171D01*
X153765772Y-101042619D01*
X153827095Y-101009134D01*
X153853453Y-101006300D01*
X154114582Y-101006300D01*
X154181621Y-101025985D01*
X154227376Y-101078789D01*
X154237320Y-101147947D01*
X154226963Y-101182706D01*
X154224899Y-101187130D01*
X154224894Y-101187144D01*
X154163738Y-101415386D01*
X154163736Y-101415396D01*
X154143141Y-101650799D01*
X154143141Y-101650800D01*
X154163736Y-101886203D01*
X154163738Y-101886213D01*
X154224894Y-102114455D01*
X154224896Y-102114459D01*
X154224897Y-102114463D01*
X154262779Y-102195700D01*
X154324765Y-102328630D01*
X154324767Y-102328634D01*
X154433081Y-102483321D01*
X154460301Y-102522196D01*
X154460306Y-102522202D01*
X154627397Y-102689293D01*
X154627403Y-102689298D01*
X154812958Y-102819225D01*
X154856583Y-102873802D01*
X154863777Y-102943300D01*
X154832254Y-103005655D01*
X154812958Y-103022375D01*
X154627397Y-103152305D01*
X154460305Y-103319397D01*
X154325148Y-103512423D01*
X154270571Y-103556048D01*
X154223573Y-103565300D01*
X153549543Y-103565300D01*
X153533922Y-103563575D01*
X153533896Y-103563861D01*
X153526134Y-103563127D01*
X153526133Y-103563127D01*
X153463909Y-103565082D01*
X153458927Y-103565239D01*
X153455032Y-103565300D01*
X153427447Y-103565300D01*
X153423461Y-103565803D01*
X153411833Y-103566718D01*
X153368173Y-103568090D01*
X153348929Y-103573681D01*
X153329879Y-103577625D01*
X153310011Y-103580134D01*
X153310010Y-103580134D01*
X153269399Y-103596213D01*
X153258354Y-103599994D01*
X153216414Y-103612179D01*
X153216410Y-103612181D01*
X153199166Y-103622379D01*
X153181705Y-103630933D01*
X153163074Y-103638310D01*
X153163062Y-103638317D01*
X153127733Y-103663985D01*
X153117973Y-103670396D01*
X153080380Y-103692629D01*
X153066214Y-103706795D01*
X153051424Y-103719427D01*
X153035214Y-103731204D01*
X153035211Y-103731207D01*
X153007373Y-103764858D01*
X152999511Y-103773497D01*
X152117808Y-104655199D01*
X152105551Y-104665020D01*
X152105734Y-104665241D01*
X152099722Y-104670214D01*
X152053698Y-104719223D01*
X152050991Y-104722016D01*
X152031489Y-104741517D01*
X152031475Y-104741534D01*
X152029007Y-104744715D01*
X152021443Y-104753570D01*
X151991537Y-104785418D01*
X151991536Y-104785420D01*
X151981884Y-104802976D01*
X151971210Y-104819226D01*
X151958929Y-104835061D01*
X151958924Y-104835068D01*
X151941575Y-104875158D01*
X151936438Y-104885644D01*
X151915403Y-104923906D01*
X151910422Y-104943307D01*
X151904121Y-104961710D01*
X151896162Y-104980102D01*
X151896161Y-104980105D01*
X151889328Y-105023243D01*
X151886960Y-105034674D01*
X151876101Y-105076971D01*
X151876100Y-105076982D01*
X151876100Y-105097016D01*
X151874573Y-105116415D01*
X151871440Y-105136194D01*
X151871440Y-105136195D01*
X151875550Y-105179674D01*
X151876100Y-105191343D01*
X151876100Y-108985746D01*
X151856415Y-109052785D01*
X151839781Y-109073427D01*
X145840208Y-115072999D01*
X145827951Y-115082820D01*
X145828134Y-115083041D01*
X145822122Y-115088014D01*
X145776098Y-115137023D01*
X145773391Y-115139816D01*
X145753889Y-115159317D01*
X145753875Y-115159334D01*
X145751407Y-115162515D01*
X145743843Y-115171370D01*
X145713937Y-115203218D01*
X145713936Y-115203220D01*
X145704284Y-115220776D01*
X145693610Y-115237026D01*
X145681329Y-115252861D01*
X145681324Y-115252868D01*
X145663975Y-115292958D01*
X145658838Y-115303444D01*
X145637803Y-115341706D01*
X145632822Y-115361107D01*
X145626521Y-115379510D01*
X145618562Y-115397902D01*
X145618561Y-115397905D01*
X145611728Y-115441043D01*
X145609360Y-115452474D01*
X145598501Y-115494771D01*
X145598500Y-115494782D01*
X145598500Y-115514816D01*
X145596973Y-115534215D01*
X145593840Y-115553994D01*
X145593840Y-115553995D01*
X145597950Y-115597474D01*
X145598500Y-115609143D01*
X145598500Y-121772650D01*
X145578815Y-121839689D01*
X145545623Y-121874225D01*
X145417121Y-121964202D01*
X145262402Y-122118921D01*
X145136900Y-122298157D01*
X145136898Y-122298161D01*
X145044426Y-122496468D01*
X145044422Y-122496477D01*
X144987793Y-122707820D01*
X144987793Y-122707824D01*
X144969487Y-122917072D01*
X144968723Y-122925800D01*
X144985436Y-123116841D01*
X144987716Y-123142893D01*
X144973949Y-123211393D01*
X144925334Y-123261576D01*
X144864188Y-123277700D01*
X144677120Y-123277700D01*
X144610081Y-123258015D01*
X144589439Y-123241381D01*
X144513584Y-123165526D01*
X144480099Y-123104203D01*
X144485083Y-123034511D01*
X144513585Y-122990163D01*
X144615671Y-122888078D01*
X144615672Y-122888077D01*
X144703619Y-122742595D01*
X144754190Y-122580306D01*
X144760600Y-122509772D01*
X144760600Y-122503200D01*
X143659600Y-122503200D01*
X143592561Y-122483515D01*
X143546806Y-122430711D01*
X143535600Y-122379200D01*
X143535600Y-121353200D01*
X144035600Y-121353200D01*
X144035600Y-122003200D01*
X144760599Y-122003200D01*
X144760599Y-121996617D01*
X144754191Y-121926097D01*
X144754190Y-121926092D01*
X144703618Y-121763803D01*
X144615672Y-121618322D01*
X144495477Y-121498127D01*
X144349995Y-121410180D01*
X144349996Y-121410180D01*
X144187705Y-121359609D01*
X144187706Y-121359609D01*
X144117172Y-121353200D01*
X144035600Y-121353200D01*
X143535600Y-121353200D01*
X143535599Y-121353199D01*
X143454017Y-121353200D01*
X143383497Y-121359608D01*
X143383492Y-121359609D01*
X143221201Y-121410181D01*
X143221199Y-121410182D01*
X143075532Y-121498241D01*
X143007978Y-121516077D01*
X142947233Y-121498241D01*
X142946385Y-121497728D01*
X142800806Y-121409722D01*
X142638396Y-121359114D01*
X142638394Y-121359113D01*
X142638392Y-121359113D01*
X142588978Y-121354623D01*
X142567816Y-121352700D01*
X142567813Y-121352700D01*
X142189417Y-121352700D01*
X142122378Y-121333015D01*
X142076623Y-121280211D01*
X142066096Y-121241665D01*
X142058874Y-121172944D01*
X142000379Y-120992916D01*
X141905733Y-120828984D01*
X141779071Y-120688312D01*
X141779070Y-120688311D01*
X141625934Y-120577051D01*
X141625929Y-120577048D01*
X141453007Y-120500057D01*
X141453002Y-120500055D01*
X141307201Y-120469065D01*
X141267846Y-120460700D01*
X141078554Y-120460700D01*
X141046097Y-120467598D01*
X140893397Y-120500055D01*
X140893392Y-120500057D01*
X140720470Y-120577048D01*
X140720465Y-120577051D01*
X140567329Y-120688311D01*
X140440666Y-120828985D01*
X140346021Y-120992915D01*
X140346018Y-120992922D01*
X140287527Y-121172940D01*
X140287526Y-121172944D01*
X140267740Y-121361200D01*
X140287526Y-121549456D01*
X140287527Y-121549459D01*
X140346018Y-121729477D01*
X140346021Y-121729484D01*
X140440667Y-121893416D01*
X140511306Y-121971869D01*
X140549566Y-122014361D01*
X140572707Y-122051683D01*
X140578611Y-122066594D01*
X140582396Y-122077648D01*
X140594387Y-122118921D01*
X140594582Y-122119590D01*
X140598283Y-122125849D01*
X140604780Y-122136834D01*
X140613338Y-122154303D01*
X140620714Y-122172932D01*
X140646381Y-122208260D01*
X140652793Y-122218021D01*
X140675028Y-122255617D01*
X140675033Y-122255624D01*
X140689190Y-122269780D01*
X140701827Y-122284575D01*
X140713606Y-122300787D01*
X140747256Y-122328625D01*
X140755896Y-122336487D01*
X141056394Y-122636984D01*
X141066217Y-122649245D01*
X141066439Y-122649063D01*
X141071411Y-122655073D01*
X141071414Y-122655077D01*
X141109785Y-122691110D01*
X141120423Y-122701100D01*
X141123221Y-122703812D01*
X141142722Y-122723314D01*
X141142726Y-122723317D01*
X141142729Y-122723320D01*
X141145902Y-122725781D01*
X141154774Y-122733359D01*
X141186618Y-122763262D01*
X141204176Y-122772914D01*
X141220433Y-122783593D01*
X141236264Y-122795873D01*
X141266003Y-122808742D01*
X141276352Y-122813221D01*
X141286841Y-122818360D01*
X141310657Y-122831452D01*
X141325108Y-122839397D01*
X141337182Y-122842496D01*
X141397221Y-122878231D01*
X141403965Y-122886134D01*
X141405733Y-122888391D01*
X141507861Y-122990519D01*
X141541346Y-123051842D01*
X141536362Y-123121534D01*
X141507862Y-123165881D01*
X141444560Y-123229182D01*
X141383240Y-123262666D01*
X141356881Y-123265500D01*
X140942231Y-123265500D01*
X140875192Y-123245815D01*
X140867920Y-123240767D01*
X140776331Y-123172204D01*
X140776328Y-123172202D01*
X140641482Y-123121908D01*
X140641483Y-123121908D01*
X140581883Y-123115501D01*
X140581881Y-123115500D01*
X140581873Y-123115500D01*
X140581864Y-123115500D01*
X139486129Y-123115500D01*
X139486123Y-123115501D01*
X139426516Y-123121908D01*
X139291671Y-123172202D01*
X139291664Y-123172206D01*
X139176455Y-123258452D01*
X139176452Y-123258455D01*
X139090206Y-123373664D01*
X139090202Y-123373671D01*
X139039910Y-123508513D01*
X139039909Y-123508517D01*
X139033500Y-123568127D01*
X139033500Y-123568134D01*
X139033500Y-123568135D01*
X139033500Y-124213870D01*
X139033501Y-124213876D01*
X139039909Y-124273484D01*
X139058519Y-124323382D01*
X139063503Y-124393074D01*
X139058520Y-124410046D01*
X139040402Y-124458623D01*
X139040401Y-124458627D01*
X139034000Y-124518155D01*
X139034000Y-124591000D01*
X139225597Y-124591000D01*
X139285025Y-124606168D01*
X139291671Y-124609797D01*
X139426517Y-124660091D01*
X139426516Y-124660091D01*
X139433149Y-124660804D01*
X139486127Y-124666500D01*
X140581872Y-124666499D01*
X140641483Y-124660091D01*
X140776331Y-124609796D01*
X140776334Y-124609793D01*
X140782975Y-124606168D01*
X140842403Y-124591000D01*
X141034000Y-124591000D01*
X141070319Y-124554681D01*
X141072658Y-124557020D01*
X141106489Y-124527706D01*
X141158000Y-124516500D01*
X141332480Y-124516500D01*
X141399519Y-124536185D01*
X141420161Y-124552819D01*
X141526011Y-124658669D01*
X141526013Y-124658670D01*
X141526015Y-124658672D01*
X141656219Y-124737383D01*
X141703407Y-124788911D01*
X141715245Y-124857771D01*
X141687976Y-124922099D01*
X141656220Y-124949615D01*
X141634231Y-124962909D01*
X141526013Y-125028329D01*
X141482141Y-125072202D01*
X141425160Y-125129182D01*
X141363840Y-125162666D01*
X141337481Y-125165500D01*
X141158000Y-125165500D01*
X141090961Y-125145815D01*
X141072791Y-125124846D01*
X141070319Y-125127319D01*
X141034000Y-125091000D01*
X140842403Y-125091000D01*
X140782975Y-125075832D01*
X140776328Y-125072202D01*
X140641482Y-125021908D01*
X140641483Y-125021908D01*
X140581883Y-125015501D01*
X140581881Y-125015500D01*
X140581873Y-125015500D01*
X140581864Y-125015500D01*
X139486129Y-125015500D01*
X139486123Y-125015501D01*
X139426516Y-125021908D01*
X139291671Y-125072202D01*
X139285025Y-125075832D01*
X139225597Y-125091000D01*
X139034000Y-125091000D01*
X139034000Y-125163844D01*
X139040401Y-125223372D01*
X139040403Y-125223383D01*
X139058519Y-125271953D01*
X139063503Y-125341644D01*
X139058520Y-125358616D01*
X139039910Y-125408513D01*
X139039909Y-125408517D01*
X139033500Y-125468127D01*
X139033500Y-125468134D01*
X139033500Y-125468135D01*
X139033500Y-126113870D01*
X138334500Y-126113870D01*
X138334499Y-125468128D01*
X138328091Y-125408517D01*
X138326527Y-125404323D01*
X138309747Y-125359334D01*
X138304762Y-125289643D01*
X138309747Y-125272665D01*
X138328089Y-125223488D01*
X138328088Y-125223488D01*
X138328091Y-125223483D01*
X138334500Y-125163873D01*
X138334499Y-124518128D01*
X138328091Y-124458517D01*
X138316178Y-124426577D01*
X138309747Y-124409334D01*
X138304762Y-124339643D01*
X138309747Y-124322665D01*
X138316373Y-124304899D01*
X138328091Y-124273483D01*
X138334500Y-124213873D01*
X138334499Y-123568128D01*
X138328091Y-123508517D01*
X138323516Y-123496252D01*
X138277797Y-123373671D01*
X138277793Y-123373664D01*
X138191547Y-123258455D01*
X138191544Y-123258452D01*
X138076334Y-123172205D01*
X138040164Y-123158714D01*
X137984231Y-123116841D01*
X137959816Y-123051376D01*
X137959500Y-123042533D01*
X137959500Y-122758149D01*
X137979185Y-122691110D01*
X138012374Y-122656576D01*
X138140877Y-122566598D01*
X138295598Y-122411877D01*
X138421102Y-122232639D01*
X138513575Y-122034330D01*
X138570207Y-121822977D01*
X138589277Y-121605000D01*
X138570207Y-121387023D01*
X138513575Y-121175670D01*
X138421102Y-120977362D01*
X138421100Y-120977359D01*
X138421099Y-120977357D01*
X138295599Y-120798124D01*
X138229618Y-120732143D01*
X138140877Y-120643402D01*
X137961639Y-120517898D01*
X137961640Y-120517898D01*
X137961638Y-120517897D01*
X137838977Y-120460700D01*
X137763330Y-120425425D01*
X137763326Y-120425424D01*
X137763322Y-120425422D01*
X137551977Y-120368793D01*
X137334002Y-120349723D01*
X137333998Y-120349723D01*
X137188682Y-120362436D01*
X137116023Y-120368793D01*
X137116020Y-120368793D01*
X136904677Y-120425422D01*
X136904668Y-120425426D01*
X136706361Y-120517898D01*
X136706357Y-120517900D01*
X136527121Y-120643402D01*
X136438381Y-120732143D01*
X136377058Y-120765628D01*
X136307366Y-120760644D01*
X136251433Y-120718772D01*
X136227016Y-120653308D01*
X136226700Y-120644462D01*
X136226700Y-120523386D01*
X136226700Y-120523384D01*
X136220286Y-120452804D01*
X136169678Y-120290394D01*
X136081672Y-120144815D01*
X136081670Y-120144813D01*
X136081669Y-120144811D01*
X135961388Y-120024530D01*
X135943582Y-120013766D01*
X135815806Y-119936522D01*
X135653396Y-119885914D01*
X135653394Y-119885913D01*
X135653392Y-119885913D01*
X135603978Y-119881423D01*
X135582816Y-119879500D01*
X134919584Y-119879500D01*
X134900345Y-119881248D01*
X134849007Y-119885913D01*
X134686591Y-119936523D01*
X134558815Y-120013766D01*
X134491261Y-120031602D01*
X134429569Y-120013188D01*
X134314889Y-119942452D01*
X134314884Y-119942450D01*
X134313476Y-119941983D01*
X134155285Y-119889564D01*
X134155283Y-119889563D01*
X134056781Y-119879500D01*
X134056774Y-119879500D01*
X133448426Y-119879500D01*
X133448418Y-119879500D01*
X133349916Y-119889563D01*
X133349915Y-119889564D01*
X133270819Y-119915773D01*
X133190315Y-119942450D01*
X133190304Y-119942455D01*
X133047212Y-120030716D01*
X133047208Y-120030719D01*
X132928319Y-120149608D01*
X132928316Y-120149612D01*
X132840055Y-120292704D01*
X132840051Y-120292713D01*
X132787164Y-120452315D01*
X132787164Y-120452316D01*
X132787163Y-120452316D01*
X132777100Y-120550818D01*
X132777100Y-121084181D01*
X132787163Y-121182683D01*
X132840050Y-121342284D01*
X132840055Y-121342295D01*
X132928316Y-121485387D01*
X132928319Y-121485392D01*
X132960600Y-121517673D01*
X132994085Y-121578997D01*
X132989099Y-121648688D01*
X132960600Y-121693033D01*
X132928714Y-121724919D01*
X132840508Y-121867922D01*
X132840506Y-121867927D01*
X132787657Y-122027416D01*
X132777600Y-122125849D01*
X132777600Y-122142500D01*
X133878600Y-122142500D01*
X133945639Y-122162185D01*
X133991394Y-122214989D01*
X134002600Y-122266500D01*
X134002600Y-123329999D01*
X134056736Y-123329999D01*
X134056752Y-123329998D01*
X134155183Y-123319943D01*
X134314672Y-123267093D01*
X134314683Y-123267088D01*
X134429088Y-123196522D01*
X134496480Y-123178081D01*
X134558325Y-123195937D01*
X134565840Y-123200479D01*
X134613032Y-123252002D01*
X134625700Y-123306602D01*
X134625700Y-123327157D01*
X134626203Y-123331135D01*
X134627118Y-123342767D01*
X134628490Y-123386424D01*
X134628491Y-123386427D01*
X134634080Y-123405667D01*
X134638024Y-123424711D01*
X134640536Y-123444592D01*
X134656614Y-123485203D01*
X134660397Y-123496252D01*
X134672581Y-123538188D01*
X134677165Y-123545940D01*
X134694344Y-123613665D01*
X134693752Y-123622010D01*
X134692440Y-123634499D01*
X134692440Y-123634500D01*
X134712226Y-123822756D01*
X134712227Y-123822759D01*
X134719526Y-123845223D01*
X134721521Y-123915064D01*
X134685441Y-123974897D01*
X134666692Y-123989079D01*
X134590853Y-124035857D01*
X134590848Y-124035861D01*
X134576525Y-124050184D01*
X134515201Y-124083668D01*
X134445509Y-124078682D01*
X134401165Y-124050182D01*
X134387238Y-124036255D01*
X134387234Y-124036252D01*
X134240511Y-123945751D01*
X134240500Y-123945746D01*
X134076852Y-123891519D01*
X133975854Y-123881200D01*
X133876700Y-123881200D01*
X133876700Y-125831199D01*
X133975840Y-125831199D01*
X133975854Y-125831198D01*
X134076852Y-125820880D01*
X134240500Y-125766653D01*
X134240511Y-125766648D01*
X134387235Y-125676147D01*
X134401160Y-125662221D01*
X134462482Y-125628733D01*
X134532173Y-125633714D01*
X134576527Y-125662217D01*
X134590850Y-125676540D01*
X134737684Y-125767108D01*
X134878304Y-125813705D01*
X134935746Y-125853475D01*
X134962569Y-125917991D01*
X134962618Y-125944371D01*
X134948578Y-126077950D01*
X134921993Y-126142564D01*
X134912938Y-126152669D01*
X134867408Y-126198199D01*
X134855151Y-126208020D01*
X134855334Y-126208241D01*
X134849322Y-126213214D01*
X134803298Y-126262223D01*
X134800591Y-126265016D01*
X134781089Y-126284517D01*
X134781075Y-126284534D01*
X134778607Y-126287715D01*
X134771043Y-126296570D01*
X134741137Y-126328418D01*
X134741136Y-126328420D01*
X134735157Y-126339296D01*
X134690646Y-126385672D01*
X134558334Y-126465656D01*
X134490779Y-126483492D01*
X134429088Y-126465078D01*
X134314677Y-126394508D01*
X134314672Y-126394506D01*
X134155183Y-126341657D01*
X134056750Y-126331600D01*
X134002600Y-126331600D01*
X134002600Y-127395100D01*
X133982915Y-127462139D01*
X133930111Y-127507894D01*
X133878600Y-127519100D01*
X132777601Y-127519100D01*
X132777601Y-127535752D01*
X132787656Y-127634183D01*
X132840506Y-127793672D01*
X132840508Y-127793677D01*
X132928714Y-127936680D01*
X132960600Y-127968567D01*
X132994085Y-128029891D01*
X132989099Y-128099582D01*
X132960600Y-128143927D01*
X132928319Y-128176207D01*
X132928316Y-128176212D01*
X132840055Y-128319304D01*
X132840050Y-128319315D01*
X132837374Y-128327391D01*
X132787164Y-128478915D01*
X132787164Y-128478916D01*
X132787163Y-128478916D01*
X132777100Y-128577418D01*
X132777100Y-129110781D01*
X125281236Y-129110781D01*
X125447549Y-128976102D01*
X123956380Y-127484933D01*
X124147070Y-127322070D01*
X124309933Y-127131380D01*
X125801102Y-128622549D01*
X126009675Y-128364985D01*
X126009676Y-128364983D01*
X126220889Y-128039743D01*
X126396955Y-127694194D01*
X126535937Y-127332136D01*
X126619814Y-127019100D01*
X132777600Y-127019100D01*
X133502600Y-127019100D01*
X133502600Y-126331600D01*
X133502599Y-126331599D01*
X133448464Y-126331600D01*
X133448447Y-126331601D01*
X133350015Y-126341657D01*
X133190527Y-126394506D01*
X133190522Y-126394508D01*
X133047519Y-126482714D01*
X132928714Y-126601519D01*
X132840508Y-126744522D01*
X132840506Y-126744527D01*
X132787657Y-126904016D01*
X132777600Y-127002449D01*
X132777600Y-127019100D01*
X126619814Y-127019100D01*
X126636312Y-126957530D01*
X126636313Y-126957523D01*
X126696980Y-126574487D01*
X126717278Y-126187200D01*
X126717278Y-126187199D01*
X126696980Y-125799912D01*
X126636313Y-125416876D01*
X126636312Y-125416869D01*
X126553069Y-125106200D01*
X132589201Y-125106200D01*
X132589201Y-125142854D01*
X132599519Y-125243852D01*
X132653746Y-125407500D01*
X132653751Y-125407511D01*
X132744252Y-125554234D01*
X132744255Y-125554238D01*
X132866161Y-125676144D01*
X132866165Y-125676147D01*
X133012888Y-125766648D01*
X133012899Y-125766653D01*
X133176547Y-125820880D01*
X133277551Y-125831199D01*
X133376700Y-125831198D01*
X133376700Y-125106200D01*
X132589201Y-125106200D01*
X126553069Y-125106200D01*
X126535937Y-125042263D01*
X126396955Y-124680205D01*
X126359248Y-124606200D01*
X132589200Y-124606200D01*
X133376700Y-124606200D01*
X133376700Y-123881199D01*
X133277560Y-123881200D01*
X133277544Y-123881201D01*
X133176547Y-123891519D01*
X133012899Y-123945746D01*
X133012888Y-123945751D01*
X132866165Y-124036252D01*
X132866161Y-124036255D01*
X132744255Y-124158161D01*
X132744252Y-124158165D01*
X132653751Y-124304888D01*
X132653746Y-124304899D01*
X132599519Y-124468547D01*
X132589200Y-124569545D01*
X132589200Y-124606200D01*
X126359248Y-124606200D01*
X126220889Y-124334656D01*
X126009668Y-124009406D01*
X125801104Y-123751849D01*
X125801103Y-123751848D01*
X124309932Y-125243018D01*
X124147070Y-125052330D01*
X123956380Y-124889466D01*
X125447550Y-123398296D01*
X125447550Y-123398295D01*
X125189993Y-123189731D01*
X124864743Y-122978510D01*
X124519194Y-122802444D01*
X124157136Y-122663462D01*
X124078904Y-122642500D01*
X132777601Y-122642500D01*
X132777601Y-122659152D01*
X132787656Y-122757583D01*
X132840506Y-122917072D01*
X132840508Y-122917077D01*
X132928714Y-123060080D01*
X133047519Y-123178885D01*
X133190522Y-123267091D01*
X133190527Y-123267093D01*
X133350016Y-123319942D01*
X133448455Y-123329999D01*
X133502599Y-123329998D01*
X133502600Y-123329998D01*
X133502600Y-122642500D01*
X132777601Y-122642500D01*
X124078904Y-122642500D01*
X123782530Y-122563087D01*
X123782523Y-122563086D01*
X123399487Y-122502419D01*
X123012201Y-122482122D01*
X123012199Y-122482122D01*
X122624912Y-122502419D01*
X122241876Y-122563086D01*
X122241869Y-122563087D01*
X121867263Y-122663462D01*
X121505205Y-122802444D01*
X121159656Y-122978510D01*
X120834406Y-123189731D01*
X120576848Y-123398295D01*
X120576848Y-123398296D01*
X122068019Y-124889466D01*
X121877330Y-125052330D01*
X121714466Y-125243018D01*
X120223296Y-123751848D01*
X120223295Y-123751848D01*
X120014731Y-124009406D01*
X119803510Y-124334656D01*
X119627444Y-124680205D01*
X119488462Y-125042263D01*
X119388087Y-125416869D01*
X119388086Y-125416876D01*
X119327419Y-125799912D01*
X119307122Y-126187199D01*
X119307122Y-126187200D01*
X118440700Y-126187200D01*
X118440700Y-113779381D01*
X132780900Y-113779381D01*
X132790963Y-113877883D01*
X132843850Y-114037484D01*
X132843855Y-114037495D01*
X132932116Y-114180587D01*
X132932119Y-114180591D01*
X133051008Y-114299480D01*
X133051012Y-114299483D01*
X133194104Y-114387744D01*
X133194107Y-114387745D01*
X133194113Y-114387749D01*
X133353715Y-114440636D01*
X133452226Y-114450700D01*
X133452231Y-114450700D01*
X134060569Y-114450700D01*
X134060574Y-114450700D01*
X134159085Y-114440636D01*
X134318687Y-114387749D01*
X134433369Y-114317012D01*
X134500761Y-114298571D01*
X134562615Y-114316432D01*
X134690394Y-114393678D01*
X134852804Y-114444286D01*
X134923384Y-114450700D01*
X134923387Y-114450700D01*
X135586613Y-114450700D01*
X135586616Y-114450700D01*
X135657196Y-114444286D01*
X135819606Y-114393678D01*
X135965185Y-114305672D01*
X136085472Y-114185385D01*
X136173478Y-114039806D01*
X136224086Y-113877396D01*
X136230500Y-113806816D01*
X136230500Y-113685737D01*
X136250185Y-113618698D01*
X136302989Y-113572943D01*
X136372147Y-113562999D01*
X136435703Y-113592024D01*
X136442181Y-113598056D01*
X136530923Y-113686798D01*
X136710161Y-113812302D01*
X136908470Y-113904775D01*
X137119823Y-113961407D01*
X137302726Y-113977408D01*
X137337798Y-113980477D01*
X137337800Y-113980477D01*
X137337802Y-113980477D01*
X137366054Y-113978005D01*
X137555777Y-113961407D01*
X137767130Y-113904775D01*
X137965439Y-113812302D01*
X138144677Y-113686798D01*
X138299398Y-113532077D01*
X138424902Y-113352839D01*
X138517375Y-113154530D01*
X138574007Y-112943177D01*
X138590605Y-112753454D01*
X138593077Y-112725202D01*
X138593077Y-112725197D01*
X138586994Y-112655672D01*
X138574007Y-112507223D01*
X138517375Y-112295870D01*
X138424902Y-112097562D01*
X138424900Y-112097559D01*
X138424899Y-112097557D01*
X138299399Y-111918324D01*
X138226859Y-111845784D01*
X138144677Y-111763602D01*
X138016175Y-111673623D01*
X137972551Y-111619047D01*
X137963300Y-111572050D01*
X137963300Y-111308066D01*
X137982985Y-111241027D01*
X138035789Y-111195272D01*
X138043956Y-111191888D01*
X138080131Y-111178396D01*
X138195346Y-111092146D01*
X138281596Y-110976931D01*
X138331891Y-110842083D01*
X138338300Y-110782473D01*
X138338299Y-110136728D01*
X138331891Y-110077117D01*
X138330327Y-110072923D01*
X138313547Y-110027934D01*
X138308562Y-109958243D01*
X138313547Y-109941265D01*
X138331889Y-109892088D01*
X138331888Y-109892088D01*
X138331891Y-109892083D01*
X138338300Y-109832473D01*
X138338299Y-109186728D01*
X138331891Y-109127117D01*
X138319978Y-109095177D01*
X138313547Y-109077934D01*
X138308562Y-109008243D01*
X138313547Y-108991265D01*
X138314355Y-108989098D01*
X138331891Y-108942083D01*
X138338300Y-108882473D01*
X138338299Y-108236728D01*
X138331891Y-108177117D01*
X138281596Y-108042269D01*
X138281595Y-108042268D01*
X138281593Y-108042264D01*
X138195347Y-107927055D01*
X138195344Y-107927052D01*
X138080134Y-107840805D01*
X138043964Y-107827314D01*
X137988031Y-107785441D01*
X137963616Y-107719976D01*
X137963300Y-107711133D01*
X137963300Y-107426749D01*
X137982985Y-107359710D01*
X138016174Y-107325176D01*
X138144677Y-107235198D01*
X138299398Y-107080477D01*
X138424902Y-106901239D01*
X138517375Y-106702930D01*
X138574007Y-106491577D01*
X138593077Y-106273600D01*
X138592511Y-106267135D01*
X138583692Y-106166328D01*
X138574007Y-106055623D01*
X138517375Y-105844270D01*
X138424902Y-105645962D01*
X138424900Y-105645959D01*
X138424899Y-105645957D01*
X138299399Y-105466724D01*
X138228412Y-105395737D01*
X138144677Y-105312002D01*
X137973274Y-105191984D01*
X137965438Y-105186497D01*
X137857562Y-105136194D01*
X137767130Y-105094025D01*
X137767126Y-105094024D01*
X137767122Y-105094022D01*
X137555777Y-105037393D01*
X137337802Y-105018323D01*
X137337798Y-105018323D01*
X137215552Y-105029018D01*
X137119823Y-105037393D01*
X137119820Y-105037393D01*
X136908477Y-105094022D01*
X136908468Y-105094026D01*
X136710161Y-105186498D01*
X136710157Y-105186500D01*
X136530921Y-105312002D01*
X136442181Y-105400743D01*
X136380858Y-105434228D01*
X136311166Y-105429244D01*
X136255233Y-105387372D01*
X136230816Y-105321908D01*
X136230500Y-105313062D01*
X136230500Y-105191986D01*
X136230442Y-105191343D01*
X136224086Y-105121404D01*
X136173478Y-104958994D01*
X136085472Y-104813415D01*
X136085470Y-104813413D01*
X136085469Y-104813411D01*
X135965188Y-104693130D01*
X135947382Y-104682366D01*
X135819606Y-104605122D01*
X135657196Y-104554514D01*
X135657194Y-104554513D01*
X135657192Y-104554513D01*
X135607778Y-104550023D01*
X135586616Y-104548100D01*
X134923384Y-104548100D01*
X134904145Y-104549848D01*
X134852807Y-104554513D01*
X134690391Y-104605123D01*
X134562615Y-104682366D01*
X134495061Y-104700202D01*
X134433369Y-104681788D01*
X134318689Y-104611052D01*
X134318684Y-104611050D01*
X134304835Y-104606461D01*
X134159085Y-104558164D01*
X134159083Y-104558163D01*
X134060581Y-104548100D01*
X134060574Y-104548100D01*
X133452226Y-104548100D01*
X133452218Y-104548100D01*
X133353716Y-104558163D01*
X133353715Y-104558164D01*
X133304791Y-104574376D01*
X133194115Y-104611050D01*
X133194104Y-104611055D01*
X133051012Y-104699316D01*
X133051008Y-104699319D01*
X132932119Y-104818208D01*
X132932116Y-104818212D01*
X132843855Y-104961304D01*
X132843850Y-104961315D01*
X132818641Y-105037393D01*
X132790964Y-105120915D01*
X132790964Y-105120916D01*
X132790963Y-105120916D01*
X132780900Y-105219418D01*
X132780900Y-105752781D01*
X132790963Y-105851283D01*
X132843850Y-106010884D01*
X132843855Y-106010895D01*
X132932116Y-106153987D01*
X132932119Y-106153992D01*
X132964400Y-106186273D01*
X132997885Y-106247597D01*
X132992899Y-106317288D01*
X132964400Y-106361633D01*
X132932514Y-106393519D01*
X132844308Y-106536522D01*
X132844306Y-106536527D01*
X132791457Y-106696016D01*
X132781400Y-106794449D01*
X132781400Y-106811100D01*
X133882400Y-106811100D01*
X133949439Y-106830785D01*
X133995194Y-106883589D01*
X134006400Y-106935100D01*
X134006400Y-107998599D01*
X134060536Y-107998599D01*
X134060552Y-107998598D01*
X134158983Y-107988543D01*
X134318472Y-107935693D01*
X134318479Y-107935690D01*
X134432888Y-107865121D01*
X134500281Y-107846680D01*
X134562132Y-107864541D01*
X134690394Y-107942078D01*
X134771333Y-107967299D01*
X134813481Y-107990140D01*
X134823707Y-107998599D01*
X134829058Y-108003026D01*
X134837697Y-108010887D01*
X135164429Y-108337620D01*
X135197914Y-108398942D01*
X135192930Y-108468634D01*
X135151058Y-108524567D01*
X135085594Y-108548984D01*
X135076750Y-108549300D01*
X135006331Y-108549300D01*
X135006312Y-108549301D01*
X134905247Y-108559625D01*
X134741484Y-108613892D01*
X134741481Y-108613893D01*
X134594648Y-108704461D01*
X134580325Y-108718784D01*
X134519001Y-108752268D01*
X134449309Y-108747282D01*
X134404965Y-108718782D01*
X134391038Y-108704855D01*
X134391034Y-108704852D01*
X134244311Y-108614351D01*
X134244300Y-108614346D01*
X134080652Y-108560119D01*
X133979654Y-108549800D01*
X133880500Y-108549800D01*
X133880500Y-110499799D01*
X133979640Y-110499799D01*
X133979654Y-110499798D01*
X134080652Y-110489480D01*
X134244300Y-110435253D01*
X134244311Y-110435248D01*
X134391035Y-110344747D01*
X134404960Y-110330821D01*
X134466282Y-110297333D01*
X134535973Y-110302314D01*
X134580327Y-110330817D01*
X134594650Y-110345140D01*
X134741484Y-110435708D01*
X134806339Y-110457199D01*
X134863783Y-110496971D01*
X134890606Y-110561486D01*
X134890655Y-110587866D01*
X134890026Y-110593840D01*
X134890026Y-110593844D01*
X134877722Y-110710907D01*
X134872627Y-110759386D01*
X134846042Y-110824000D01*
X134839698Y-110831308D01*
X134807099Y-110866022D01*
X134804390Y-110868817D01*
X134784889Y-110888317D01*
X134784875Y-110888334D01*
X134782407Y-110891515D01*
X134774843Y-110900370D01*
X134744937Y-110932218D01*
X134744936Y-110932220D01*
X134735284Y-110949776D01*
X134724610Y-110966026D01*
X134712329Y-110981861D01*
X134712325Y-110981866D01*
X134694977Y-111021953D01*
X134689839Y-111032440D01*
X134685602Y-111040147D01*
X134641092Y-111086525D01*
X134602537Y-111109833D01*
X134562137Y-111134256D01*
X134494583Y-111152093D01*
X134432889Y-111133679D01*
X134318477Y-111063108D01*
X134318472Y-111063106D01*
X134158983Y-111010257D01*
X134060550Y-111000200D01*
X134006400Y-111000200D01*
X134006400Y-112063700D01*
X133986715Y-112130739D01*
X133933911Y-112176494D01*
X133882400Y-112187700D01*
X132781401Y-112187700D01*
X132781401Y-112204352D01*
X132791456Y-112302783D01*
X132844306Y-112462272D01*
X132844308Y-112462277D01*
X132932514Y-112605280D01*
X132964400Y-112637167D01*
X132997885Y-112698491D01*
X132992899Y-112768182D01*
X132964400Y-112812527D01*
X132932119Y-112844807D01*
X132932116Y-112844812D01*
X132843855Y-112987904D01*
X132843850Y-112987915D01*
X132841174Y-112995991D01*
X132790964Y-113147515D01*
X132790964Y-113147516D01*
X132790963Y-113147516D01*
X132780900Y-113246018D01*
X132780900Y-113779381D01*
X118440700Y-113779381D01*
X118440700Y-111687700D01*
X132781400Y-111687700D01*
X133506400Y-111687700D01*
X133506400Y-111000200D01*
X133506399Y-111000199D01*
X133452264Y-111000200D01*
X133452247Y-111000201D01*
X133353815Y-111010257D01*
X133194327Y-111063106D01*
X133194322Y-111063108D01*
X133051319Y-111151314D01*
X132932514Y-111270119D01*
X132844308Y-111413122D01*
X132844306Y-111413127D01*
X132791457Y-111572616D01*
X132781400Y-111671049D01*
X132781400Y-111687700D01*
X118440700Y-111687700D01*
X118440700Y-109774800D01*
X132593001Y-109774800D01*
X132593001Y-109811454D01*
X132603319Y-109912452D01*
X132657546Y-110076100D01*
X132657551Y-110076111D01*
X132748052Y-110222834D01*
X132748055Y-110222838D01*
X132869961Y-110344744D01*
X132869965Y-110344747D01*
X133016688Y-110435248D01*
X133016699Y-110435253D01*
X133180347Y-110489480D01*
X133281351Y-110499799D01*
X133380500Y-110499798D01*
X133380500Y-109774800D01*
X132593001Y-109774800D01*
X118440700Y-109774800D01*
X118440700Y-109274800D01*
X132593000Y-109274800D01*
X133380500Y-109274800D01*
X133380500Y-108549799D01*
X133281360Y-108549800D01*
X133281344Y-108549801D01*
X133180347Y-108560119D01*
X133016699Y-108614346D01*
X133016688Y-108614351D01*
X132869965Y-108704852D01*
X132869961Y-108704855D01*
X132748055Y-108826761D01*
X132748052Y-108826765D01*
X132657551Y-108973488D01*
X132657546Y-108973499D01*
X132603319Y-109137147D01*
X132593000Y-109238145D01*
X132593000Y-109274800D01*
X118440700Y-109274800D01*
X118440700Y-107311100D01*
X132781401Y-107311100D01*
X132781401Y-107327752D01*
X132791456Y-107426183D01*
X132844306Y-107585672D01*
X132844308Y-107585677D01*
X132932514Y-107728680D01*
X133051319Y-107847485D01*
X133194322Y-107935691D01*
X133194327Y-107935693D01*
X133353816Y-107988542D01*
X133452255Y-107998599D01*
X133506399Y-107998598D01*
X133506400Y-107998598D01*
X133506400Y-107311100D01*
X132781401Y-107311100D01*
X118440700Y-107311100D01*
X118440700Y-104190800D01*
X121123141Y-104190800D01*
X121143736Y-104426203D01*
X121143738Y-104426213D01*
X121204894Y-104654455D01*
X121204896Y-104654459D01*
X121204897Y-104654463D01*
X121289113Y-104835064D01*
X121304765Y-104868630D01*
X121304767Y-104868634D01*
X121399259Y-105003582D01*
X121440305Y-105062201D01*
X121607399Y-105229295D01*
X121651332Y-105260057D01*
X121800965Y-105364832D01*
X121800967Y-105364833D01*
X121800970Y-105364835D01*
X122015137Y-105464703D01*
X122015143Y-105464704D01*
X122015144Y-105464705D01*
X122070085Y-105479426D01*
X122243392Y-105525863D01*
X122431718Y-105542339D01*
X122478799Y-105546459D01*
X122478800Y-105546459D01*
X122478801Y-105546459D01*
X122518034Y-105543026D01*
X122714208Y-105525863D01*
X122942463Y-105464703D01*
X123156630Y-105364835D01*
X123350201Y-105229295D01*
X123517295Y-105062201D01*
X123647225Y-104876642D01*
X123701802Y-104833017D01*
X123771300Y-104825823D01*
X123833655Y-104857346D01*
X123850375Y-104876642D01*
X123980300Y-105062195D01*
X123980305Y-105062201D01*
X124147399Y-105229295D01*
X124191332Y-105260057D01*
X124340965Y-105364832D01*
X124340967Y-105364833D01*
X124340970Y-105364835D01*
X124555137Y-105464703D01*
X124555143Y-105464704D01*
X124555144Y-105464705D01*
X124610085Y-105479426D01*
X124783392Y-105525863D01*
X124971718Y-105542339D01*
X125018799Y-105546459D01*
X125018800Y-105546459D01*
X125018801Y-105546459D01*
X125058034Y-105543026D01*
X125254208Y-105525863D01*
X125482463Y-105464703D01*
X125696630Y-105364835D01*
X125890201Y-105229295D01*
X126057295Y-105062201D01*
X126192835Y-104868630D01*
X126292703Y-104654463D01*
X126353863Y-104426208D01*
X126374459Y-104190800D01*
X126353863Y-103955392D01*
X126292703Y-103727137D01*
X126192835Y-103512971D01*
X126192452Y-103512423D01*
X126057294Y-103319397D01*
X125890202Y-103152306D01*
X125890196Y-103152301D01*
X125704642Y-103022375D01*
X125661017Y-102967798D01*
X125653823Y-102898300D01*
X125685346Y-102835945D01*
X125704642Y-102819225D01*
X125726826Y-102803691D01*
X125890201Y-102689295D01*
X126057295Y-102522201D01*
X126192835Y-102328630D01*
X126292703Y-102114463D01*
X126353863Y-101886208D01*
X126374459Y-101650800D01*
X126353863Y-101415392D01*
X126292703Y-101187137D01*
X126290637Y-101182706D01*
X126280144Y-101113629D01*
X126308663Y-101049845D01*
X126367139Y-101011604D01*
X126403018Y-101006300D01*
X135334389Y-101006300D01*
X135401428Y-101025985D01*
X135447183Y-101078789D01*
X135457709Y-101143257D01*
X135441740Y-101295200D01*
X135461526Y-101483456D01*
X135461527Y-101483459D01*
X135520018Y-101663477D01*
X135520021Y-101663484D01*
X135614667Y-101827416D01*
X135735601Y-101961726D01*
X135741329Y-101968088D01*
X135894465Y-102079348D01*
X135894470Y-102079351D01*
X136067392Y-102156342D01*
X136067397Y-102156344D01*
X136252554Y-102195700D01*
X136252555Y-102195700D01*
X136441844Y-102195700D01*
X136441846Y-102195700D01*
X136627003Y-102156344D01*
X136799930Y-102079351D01*
X136953071Y-101968088D01*
X136955988Y-101964847D01*
X136958800Y-101961726D01*
X137018287Y-101925079D01*
X137050948Y-101920700D01*
X138423457Y-101920700D01*
X138439077Y-101922424D01*
X138439104Y-101922139D01*
X138446860Y-101922871D01*
X138446867Y-101922873D01*
X138514073Y-101920761D01*
X138517968Y-101920700D01*
X138545546Y-101920700D01*
X138545550Y-101920700D01*
X138549524Y-101920197D01*
X138561163Y-101919280D01*
X138604827Y-101917909D01*
X138624069Y-101912317D01*
X138643112Y-101908374D01*
X138662992Y-101905864D01*
X138703601Y-101889785D01*
X138714644Y-101886003D01*
X138756590Y-101873818D01*
X138773829Y-101863622D01*
X138791303Y-101855062D01*
X138809927Y-101847688D01*
X138809927Y-101847687D01*
X138809932Y-101847686D01*
X138845283Y-101822000D01*
X138855014Y-101815608D01*
X138892620Y-101793370D01*
X138906789Y-101779199D01*
X138921579Y-101766568D01*
X138937787Y-101754794D01*
X138965638Y-101721126D01*
X138973479Y-101712509D01*
X141404588Y-99281401D01*
X141416842Y-99271586D01*
X141416659Y-99271364D01*
X141422668Y-99266391D01*
X141422677Y-99266386D01*
X141468749Y-99217322D01*
X141471366Y-99214623D01*
X141490920Y-99195071D01*
X141493376Y-99191903D01*
X141500956Y-99183027D01*
X141530862Y-99151182D01*
X141540513Y-99133624D01*
X141551196Y-99117361D01*
X141563473Y-99101536D01*
X141580821Y-99061444D01*
X141585951Y-99050971D01*
X141606997Y-99012692D01*
X141611980Y-98993280D01*
X141618281Y-98974880D01*
X141626237Y-98956496D01*
X141633070Y-98913348D01*
X141635433Y-98901938D01*
X141646300Y-98859619D01*
X141646300Y-98839583D01*
X141647827Y-98820182D01*
X141650960Y-98800404D01*
X141646850Y-98756924D01*
X141646300Y-98745255D01*
X141646300Y-97838830D01*
X141665985Y-97771791D01*
X141718789Y-97726036D01*
X141787947Y-97716092D01*
X141807190Y-97720445D01*
X141808604Y-97720886D01*
X141879184Y-97727300D01*
X141879187Y-97727300D01*
X142542413Y-97727300D01*
X142542416Y-97727300D01*
X142612996Y-97720886D01*
X142775406Y-97670278D01*
X142920985Y-97582272D01*
X142920987Y-97582269D01*
X142921832Y-97581759D01*
X142989387Y-97563922D01*
X143050133Y-97581758D01*
X143195804Y-97669819D01*
X143195803Y-97669819D01*
X143358094Y-97720390D01*
X143358092Y-97720390D01*
X143428618Y-97726799D01*
X143510199Y-97726798D01*
X143510200Y-97726798D01*
X143510200Y-97076800D01*
X144010200Y-97076800D01*
X144010200Y-97726799D01*
X144091781Y-97726799D01*
X144162302Y-97720391D01*
X144162307Y-97720390D01*
X144324596Y-97669818D01*
X144470077Y-97581872D01*
X144590272Y-97461677D01*
X144678219Y-97316195D01*
X144728790Y-97153906D01*
X144735200Y-97083372D01*
X144735200Y-97076800D01*
X144010200Y-97076800D01*
X143510200Y-97076800D01*
X143510200Y-96700800D01*
X143529885Y-96633761D01*
X143582689Y-96588006D01*
X143634200Y-96576800D01*
X144735199Y-96576800D01*
X144735199Y-96570217D01*
X144728791Y-96499697D01*
X144728790Y-96499692D01*
X144678218Y-96337403D01*
X144590272Y-96191922D01*
X144488184Y-96089834D01*
X144454699Y-96028511D01*
X144459683Y-95958819D01*
X144488183Y-95914473D01*
X144544579Y-95858078D01*
X144564040Y-95838618D01*
X144625364Y-95805133D01*
X144651720Y-95802300D01*
X144829899Y-95802300D01*
X144896938Y-95821985D01*
X144942693Y-95874789D01*
X144953427Y-95937107D01*
X144943323Y-96052597D01*
X144943323Y-96052602D01*
X144962393Y-96270575D01*
X144962393Y-96270579D01*
X145019022Y-96481922D01*
X145019024Y-96481926D01*
X145019025Y-96481930D01*
X145027267Y-96499604D01*
X145111497Y-96680238D01*
X145111498Y-96680239D01*
X145237002Y-96859477D01*
X145391723Y-97014198D01*
X145570961Y-97139702D01*
X145769270Y-97232175D01*
X145769276Y-97232176D01*
X145769277Y-97232177D01*
X145786941Y-97236910D01*
X145980623Y-97288807D01*
X146163526Y-97304808D01*
X146198598Y-97307877D01*
X146198600Y-97307877D01*
X146198602Y-97307877D01*
X146226854Y-97305405D01*
X146416577Y-97288807D01*
X146627930Y-97232175D01*
X146826239Y-97139702D01*
X147005477Y-97014198D01*
X147160198Y-96859477D01*
X147285702Y-96680239D01*
X147378175Y-96481930D01*
X147434807Y-96270577D01*
X147453877Y-96052600D01*
X147451341Y-96023618D01*
X147448349Y-95989415D01*
X147434807Y-95834623D01*
X147392714Y-95677529D01*
X147378177Y-95623277D01*
X147378176Y-95623276D01*
X147378175Y-95623270D01*
X147285702Y-95424962D01*
X147285700Y-95424959D01*
X147285699Y-95424957D01*
X147160199Y-95245724D01*
X147113700Y-95199225D01*
X147005477Y-95091002D01*
X146826239Y-94965498D01*
X146826240Y-94965498D01*
X146826238Y-94965497D01*
X146689805Y-94901878D01*
X146627930Y-94873025D01*
X146627926Y-94873024D01*
X146627922Y-94873022D01*
X146416577Y-94816393D01*
X146198602Y-94797323D01*
X146198598Y-94797323D01*
X146053282Y-94810036D01*
X145980623Y-94816393D01*
X145980621Y-94816393D01*
X145980617Y-94816394D01*
X145944375Y-94826105D01*
X145874525Y-94824442D01*
X145824602Y-94794011D01*
X145823603Y-94793012D01*
X145813780Y-94780750D01*
X145813559Y-94780934D01*
X145808586Y-94774922D01*
X145759576Y-94728899D01*
X145756777Y-94726186D01*
X145737277Y-94706685D01*
X145737271Y-94706680D01*
X145734086Y-94704209D01*
X145725234Y-94696648D01*
X145693382Y-94666738D01*
X145693380Y-94666736D01*
X145693377Y-94666735D01*
X145675829Y-94657088D01*
X145659563Y-94646404D01*
X145643732Y-94634124D01*
X145603649Y-94616778D01*
X145593163Y-94611641D01*
X145554894Y-94590603D01*
X145554892Y-94590602D01*
X145535493Y-94585622D01*
X145517081Y-94579318D01*
X145498698Y-94571362D01*
X145498692Y-94571360D01*
X145455560Y-94564529D01*
X145444122Y-94562161D01*
X145401820Y-94551300D01*
X145401819Y-94551300D01*
X145381784Y-94551300D01*
X145362386Y-94549773D01*
X145354962Y-94548597D01*
X145342605Y-94546640D01*
X145342604Y-94546640D01*
X145299125Y-94550750D01*
X145287456Y-94551300D01*
X144651720Y-94551300D01*
X144584681Y-94531615D01*
X144564039Y-94514981D01*
X144470388Y-94421330D01*
X144470385Y-94421328D01*
X144340177Y-94342614D01*
X144292993Y-94291089D01*
X144281154Y-94222230D01*
X144308423Y-94157901D01*
X144340176Y-94130386D01*
X144470385Y-94051672D01*
X144491257Y-94030800D01*
X144564039Y-93958019D01*
X144625362Y-93924534D01*
X144651720Y-93921700D01*
X145138457Y-93921700D01*
X145154077Y-93923424D01*
X145154104Y-93923139D01*
X145161860Y-93923871D01*
X145161867Y-93923873D01*
X145229073Y-93921761D01*
X145232968Y-93921700D01*
X145260546Y-93921700D01*
X145260550Y-93921700D01*
X145264524Y-93921197D01*
X145276163Y-93920280D01*
X145319827Y-93918909D01*
X145339069Y-93913317D01*
X145358112Y-93909374D01*
X145377992Y-93906864D01*
X145418601Y-93890785D01*
X145429644Y-93887003D01*
X145471590Y-93874818D01*
X145488829Y-93864622D01*
X145506303Y-93856062D01*
X145524927Y-93848688D01*
X145524927Y-93848687D01*
X145524932Y-93848686D01*
X145560283Y-93823000D01*
X145570014Y-93816608D01*
X145607620Y-93794370D01*
X145621789Y-93780199D01*
X145636579Y-93767568D01*
X145652787Y-93755794D01*
X145680638Y-93722126D01*
X145688479Y-93713509D01*
X145824602Y-93577386D01*
X145885923Y-93543903D01*
X145944374Y-93545293D01*
X145980623Y-93555007D01*
X146136320Y-93568628D01*
X146198598Y-93574077D01*
X146198600Y-93574077D01*
X146198602Y-93574077D01*
X146226854Y-93571605D01*
X146416577Y-93555007D01*
X146627930Y-93498375D01*
X146826239Y-93405902D01*
X147005477Y-93280398D01*
X147160198Y-93125677D01*
X147285702Y-92946439D01*
X147378175Y-92748130D01*
X147434807Y-92536777D01*
X147453553Y-92322501D01*
X147453877Y-92318802D01*
X147453877Y-92318797D01*
X147450169Y-92276418D01*
X147434807Y-92100823D01*
X147396965Y-91959596D01*
X147378177Y-91889477D01*
X147378176Y-91889476D01*
X147378175Y-91889470D01*
X147285702Y-91691162D01*
X147285700Y-91691159D01*
X147285699Y-91691157D01*
X147160199Y-91511924D01*
X147139074Y-91490799D01*
X147005477Y-91357202D01*
X146860083Y-91255396D01*
X146826238Y-91231697D01*
X146727084Y-91185461D01*
X146627930Y-91139225D01*
X146627926Y-91139224D01*
X146627922Y-91139222D01*
X146416577Y-91082593D01*
X146198602Y-91063523D01*
X146198598Y-91063523D01*
X146053282Y-91076236D01*
X145980623Y-91082593D01*
X145980620Y-91082593D01*
X145769277Y-91139222D01*
X145769268Y-91139226D01*
X145570961Y-91231698D01*
X145570957Y-91231700D01*
X145391721Y-91357202D01*
X145237002Y-91511921D01*
X145111500Y-91691157D01*
X145111498Y-91691161D01*
X145019026Y-91889468D01*
X145019022Y-91889477D01*
X144962393Y-92100820D01*
X144962393Y-92100824D01*
X144943323Y-92318797D01*
X144943323Y-92318801D01*
X144943647Y-92322501D01*
X144961738Y-92529295D01*
X144962316Y-92535893D01*
X144948549Y-92604393D01*
X144899934Y-92654576D01*
X144838788Y-92670700D01*
X144651720Y-92670700D01*
X144584681Y-92651015D01*
X144564039Y-92634381D01*
X144488184Y-92558526D01*
X144454699Y-92497203D01*
X144459683Y-92427511D01*
X144488185Y-92383163D01*
X144590271Y-92281078D01*
X144590272Y-92281077D01*
X144678219Y-92135595D01*
X144728790Y-91973306D01*
X144735200Y-91902772D01*
X144735200Y-91896200D01*
X143634200Y-91896200D01*
X143567161Y-91876515D01*
X143521406Y-91823711D01*
X143510200Y-91772200D01*
X143510200Y-90746200D01*
X144010200Y-90746200D01*
X144010200Y-91396200D01*
X144735199Y-91396200D01*
X144735199Y-91389617D01*
X144728791Y-91319097D01*
X144728790Y-91319092D01*
X144678218Y-91156803D01*
X144590272Y-91011322D01*
X144470077Y-90891127D01*
X144324595Y-90803180D01*
X144324596Y-90803180D01*
X144162305Y-90752609D01*
X144162306Y-90752609D01*
X144091772Y-90746200D01*
X144010200Y-90746200D01*
X143510200Y-90746200D01*
X143510199Y-90746199D01*
X143428617Y-90746200D01*
X143358097Y-90752608D01*
X143358092Y-90752609D01*
X143195801Y-90803181D01*
X143195799Y-90803182D01*
X143050132Y-90891241D01*
X142982578Y-90909077D01*
X142921833Y-90891241D01*
X142920985Y-90890728D01*
X142775406Y-90802722D01*
X142612996Y-90752114D01*
X142612994Y-90752113D01*
X142612992Y-90752113D01*
X142563578Y-90747623D01*
X142542416Y-90745700D01*
X141879184Y-90745700D01*
X141859945Y-90747448D01*
X141808607Y-90752113D01*
X141646193Y-90802722D01*
X141500611Y-90890730D01*
X141500610Y-90890731D01*
X141407236Y-90984106D01*
X141345913Y-91017591D01*
X141323456Y-91020364D01*
X141319127Y-91020500D01*
X141314707Y-91020639D01*
X141310817Y-91020700D01*
X141283250Y-91020700D01*
X141279273Y-91021202D01*
X141267642Y-91022117D01*
X141223974Y-91023489D01*
X141223968Y-91023490D01*
X141204726Y-91029080D01*
X141185687Y-91033023D01*
X141165812Y-91035534D01*
X141165808Y-91035536D01*
X141157582Y-91038793D01*
X141111936Y-91047500D01*
X140926154Y-91047500D01*
X140913047Y-91050286D01*
X140740997Y-91086855D01*
X140740992Y-91086857D01*
X140568070Y-91163848D01*
X140568065Y-91163851D01*
X140414929Y-91275111D01*
X140288266Y-91415785D01*
X140193621Y-91579715D01*
X140193618Y-91579722D01*
X140146021Y-91726213D01*
X140135126Y-91759744D01*
X140115340Y-91948000D01*
X140135126Y-92136256D01*
X140135127Y-92136259D01*
X140193618Y-92316277D01*
X140193620Y-92316281D01*
X140193621Y-92316284D01*
X140197211Y-92322502D01*
X140213682Y-92390401D01*
X140190830Y-92456428D01*
X140135908Y-92499618D01*
X140089823Y-92508500D01*
X139460729Y-92508500D01*
X139460723Y-92508501D01*
X139401116Y-92514908D01*
X139266271Y-92565202D01*
X139266264Y-92565206D01*
X139151055Y-92651452D01*
X139151052Y-92651455D01*
X139064806Y-92766664D01*
X139064802Y-92766671D01*
X139014510Y-92901513D01*
X139014509Y-92901517D01*
X139008100Y-92961127D01*
X139008100Y-92961134D01*
X139008100Y-92961135D01*
X139008100Y-93606870D01*
X139008101Y-93606876D01*
X139014509Y-93666484D01*
X139033119Y-93716382D01*
X139038103Y-93786074D01*
X139033120Y-93803046D01*
X139015002Y-93851623D01*
X139015001Y-93851627D01*
X139008600Y-93911155D01*
X139008600Y-93984000D01*
X139200197Y-93984000D01*
X139259625Y-93999168D01*
X139266271Y-94002797D01*
X139401117Y-94053091D01*
X139401116Y-94053091D01*
X139408044Y-94053835D01*
X139460727Y-94059500D01*
X140556472Y-94059499D01*
X140616083Y-94053091D01*
X140750931Y-94002796D01*
X140750934Y-94002793D01*
X140757575Y-93999168D01*
X140817003Y-93984000D01*
X141008600Y-93984000D01*
X141044919Y-93947681D01*
X141047258Y-93950020D01*
X141081089Y-93920706D01*
X141132600Y-93909500D01*
X141307080Y-93909500D01*
X141374119Y-93929185D01*
X141394761Y-93945819D01*
X141500611Y-94051669D01*
X141500613Y-94051670D01*
X141500615Y-94051672D01*
X141630819Y-94130383D01*
X141678007Y-94181911D01*
X141689845Y-94250771D01*
X141662576Y-94315099D01*
X141630820Y-94342615D01*
X141599420Y-94361598D01*
X141500613Y-94421329D01*
X141466191Y-94455752D01*
X141399760Y-94522182D01*
X141338440Y-94555666D01*
X141312081Y-94558500D01*
X141132600Y-94558500D01*
X141065561Y-94538815D01*
X141047391Y-94517846D01*
X141044919Y-94520319D01*
X141008600Y-94484000D01*
X140817003Y-94484000D01*
X140757575Y-94468832D01*
X140750928Y-94465202D01*
X140616082Y-94414908D01*
X140616083Y-94414908D01*
X140556483Y-94408501D01*
X140556481Y-94408500D01*
X140556473Y-94408500D01*
X140556464Y-94408500D01*
X139460729Y-94408500D01*
X139460723Y-94408501D01*
X139401116Y-94414908D01*
X139266271Y-94465202D01*
X139259625Y-94468832D01*
X139200197Y-94484000D01*
X139008600Y-94484000D01*
X139008600Y-94556844D01*
X139015001Y-94616372D01*
X139015003Y-94616383D01*
X139033119Y-94664953D01*
X139038103Y-94734644D01*
X139033120Y-94751616D01*
X139014510Y-94801513D01*
X139014509Y-94801517D01*
X139008100Y-94861127D01*
X139008100Y-94861134D01*
X139008100Y-94861135D01*
X139008100Y-95506870D01*
X139008101Y-95506876D01*
X139014508Y-95566483D01*
X139064802Y-95701328D01*
X139064806Y-95701335D01*
X139151052Y-95816544D01*
X139151055Y-95816547D01*
X139266264Y-95902793D01*
X139266269Y-95902796D01*
X139302432Y-95916284D01*
X139358366Y-95958154D01*
X139382784Y-96023618D01*
X139383100Y-96032466D01*
X139383100Y-98339347D01*
X139363415Y-98406386D01*
X139346781Y-98427028D01*
X138054828Y-99718981D01*
X137993505Y-99752466D01*
X137967147Y-99755300D01*
X126402466Y-99755300D01*
X126335427Y-99735615D01*
X126289672Y-99682811D01*
X126279728Y-99613653D01*
X126290084Y-99578896D01*
X126292228Y-99574297D01*
X126292232Y-99574286D01*
X126349436Y-99360800D01*
X125452486Y-99360800D01*
X125478293Y-99320644D01*
X125518800Y-99182689D01*
X125518800Y-99038911D01*
X125478293Y-98900956D01*
X125452486Y-98860800D01*
X126349436Y-98860800D01*
X126349435Y-98860799D01*
X126292232Y-98647313D01*
X126292229Y-98647307D01*
X126225302Y-98503781D01*
X132751700Y-98503781D01*
X132761763Y-98602283D01*
X132814650Y-98761884D01*
X132814655Y-98761895D01*
X132902916Y-98904987D01*
X132902919Y-98904991D01*
X133021808Y-99023880D01*
X133021812Y-99023883D01*
X133164904Y-99112144D01*
X133164907Y-99112145D01*
X133164913Y-99112149D01*
X133324515Y-99165036D01*
X133423026Y-99175100D01*
X133423031Y-99175100D01*
X134031369Y-99175100D01*
X134031374Y-99175100D01*
X134129885Y-99165036D01*
X134289487Y-99112149D01*
X134404169Y-99041412D01*
X134471561Y-99022971D01*
X134533415Y-99040832D01*
X134661194Y-99118078D01*
X134823604Y-99168686D01*
X134894184Y-99175100D01*
X134894187Y-99175100D01*
X135557413Y-99175100D01*
X135557416Y-99175100D01*
X135627996Y-99168686D01*
X135790406Y-99118078D01*
X135935985Y-99030072D01*
X136056272Y-98909785D01*
X136144278Y-98764206D01*
X136194886Y-98601796D01*
X136201300Y-98531216D01*
X136201300Y-98410137D01*
X136220985Y-98343098D01*
X136273789Y-98297343D01*
X136342947Y-98287399D01*
X136406503Y-98316424D01*
X136412981Y-98322456D01*
X136501723Y-98411198D01*
X136680961Y-98536702D01*
X136879270Y-98629175D01*
X137090623Y-98685807D01*
X137273526Y-98701808D01*
X137308598Y-98704877D01*
X137308600Y-98704877D01*
X137308602Y-98704877D01*
X137336854Y-98702405D01*
X137526577Y-98685807D01*
X137737930Y-98629175D01*
X137936239Y-98536702D01*
X138115477Y-98411198D01*
X138270198Y-98256477D01*
X138395702Y-98077239D01*
X138488175Y-97878930D01*
X138544807Y-97667577D01*
X138561405Y-97477854D01*
X138563877Y-97449602D01*
X138563877Y-97449597D01*
X138557794Y-97380072D01*
X138544807Y-97231623D01*
X138488175Y-97020270D01*
X138395702Y-96821962D01*
X138395700Y-96821959D01*
X138395699Y-96821957D01*
X138270199Y-96642724D01*
X138197659Y-96570184D01*
X138115477Y-96488002D01*
X137986975Y-96398023D01*
X137943351Y-96343447D01*
X137934100Y-96296450D01*
X137934100Y-96032466D01*
X137953785Y-95965427D01*
X138006589Y-95919672D01*
X138014756Y-95916288D01*
X138050931Y-95902796D01*
X138166146Y-95816546D01*
X138252396Y-95701331D01*
X138302691Y-95566483D01*
X138309100Y-95506873D01*
X138309099Y-94861128D01*
X138302691Y-94801517D01*
X138301127Y-94797323D01*
X138284347Y-94752334D01*
X138279362Y-94682643D01*
X138284347Y-94665665D01*
X138302689Y-94616488D01*
X138302688Y-94616488D01*
X138302691Y-94616483D01*
X138309100Y-94556873D01*
X138309099Y-93911128D01*
X138302691Y-93851517D01*
X138292061Y-93823017D01*
X138284347Y-93802334D01*
X138279362Y-93732643D01*
X138284347Y-93715665D01*
X138290973Y-93697899D01*
X138302691Y-93666483D01*
X138309100Y-93606873D01*
X138309099Y-92961128D01*
X138302691Y-92901517D01*
X138292980Y-92875481D01*
X138252397Y-92766671D01*
X138252393Y-92766664D01*
X138166147Y-92651455D01*
X138166144Y-92651452D01*
X138050934Y-92565205D01*
X138014764Y-92551714D01*
X137958831Y-92509841D01*
X137934416Y-92444376D01*
X137934100Y-92435533D01*
X137934100Y-92151149D01*
X137953785Y-92084110D01*
X137986974Y-92049576D01*
X138115477Y-91959598D01*
X138270198Y-91804877D01*
X138395702Y-91625639D01*
X138488175Y-91427330D01*
X138544807Y-91215977D01*
X138563877Y-90998000D01*
X138562661Y-90984106D01*
X138554492Y-90890728D01*
X138544807Y-90780023D01*
X138488175Y-90568670D01*
X138395702Y-90370362D01*
X138395700Y-90370359D01*
X138395699Y-90370357D01*
X138270199Y-90191124D01*
X138204218Y-90125143D01*
X138115477Y-90036402D01*
X137936239Y-89910898D01*
X137936240Y-89910898D01*
X137936238Y-89910897D01*
X137837084Y-89864661D01*
X137737930Y-89818425D01*
X137737926Y-89818424D01*
X137737922Y-89818422D01*
X137526577Y-89761793D01*
X137308602Y-89742723D01*
X137308598Y-89742723D01*
X137163282Y-89755436D01*
X137090623Y-89761793D01*
X137090620Y-89761793D01*
X136879277Y-89818422D01*
X136879268Y-89818426D01*
X136680961Y-89910898D01*
X136680957Y-89910900D01*
X136501721Y-90036402D01*
X136412981Y-90125143D01*
X136351658Y-90158628D01*
X136281966Y-90153644D01*
X136226033Y-90111772D01*
X136201616Y-90046308D01*
X136201300Y-90037462D01*
X136201300Y-89916386D01*
X136201300Y-89916384D01*
X136194886Y-89845804D01*
X136144278Y-89683394D01*
X136056272Y-89537815D01*
X136056270Y-89537813D01*
X136056269Y-89537811D01*
X135935988Y-89417530D01*
X135918182Y-89406766D01*
X135790406Y-89329522D01*
X135627996Y-89278914D01*
X135627994Y-89278913D01*
X135627992Y-89278913D01*
X135578578Y-89274423D01*
X135557416Y-89272500D01*
X134894184Y-89272500D01*
X134874945Y-89274248D01*
X134823607Y-89278913D01*
X134661191Y-89329523D01*
X134533415Y-89406766D01*
X134465861Y-89424602D01*
X134404169Y-89406188D01*
X134289489Y-89335452D01*
X134289484Y-89335450D01*
X134288076Y-89334983D01*
X134129885Y-89282564D01*
X134129883Y-89282563D01*
X134031381Y-89272500D01*
X134031374Y-89272500D01*
X133423026Y-89272500D01*
X133423018Y-89272500D01*
X133324516Y-89282563D01*
X133324515Y-89282564D01*
X133245419Y-89308773D01*
X133164915Y-89335450D01*
X133164904Y-89335455D01*
X133021812Y-89423716D01*
X133021808Y-89423719D01*
X132902919Y-89542608D01*
X132902916Y-89542612D01*
X132814655Y-89685704D01*
X132814651Y-89685713D01*
X132761764Y-89845315D01*
X132761764Y-89845316D01*
X132761763Y-89845316D01*
X132751700Y-89943818D01*
X132751700Y-90477181D01*
X132761763Y-90575683D01*
X132814650Y-90735284D01*
X132814655Y-90735295D01*
X132902916Y-90878387D01*
X132902919Y-90878392D01*
X132935200Y-90910673D01*
X132968685Y-90971997D01*
X132963699Y-91041688D01*
X132935200Y-91086033D01*
X132903314Y-91117919D01*
X132815108Y-91260922D01*
X132815106Y-91260927D01*
X132762257Y-91420416D01*
X132752200Y-91518849D01*
X132752200Y-91535500D01*
X133853200Y-91535500D01*
X133920239Y-91555185D01*
X133965994Y-91607989D01*
X133977200Y-91659500D01*
X133977200Y-92722999D01*
X134031336Y-92722999D01*
X134031352Y-92722998D01*
X134129783Y-92712943D01*
X134289272Y-92660093D01*
X134289279Y-92660090D01*
X134403688Y-92589521D01*
X134471081Y-92571080D01*
X134532932Y-92588941D01*
X134621249Y-92642330D01*
X134668436Y-92693857D01*
X134672388Y-92702794D01*
X134673312Y-92705128D01*
X134673313Y-92705131D01*
X134698981Y-92740460D01*
X134705393Y-92750221D01*
X134727628Y-92787817D01*
X134727633Y-92787824D01*
X134741790Y-92801980D01*
X134754428Y-92816776D01*
X134766205Y-92832986D01*
X134766206Y-92832987D01*
X134799857Y-92860825D01*
X134808498Y-92868688D01*
X135007081Y-93067271D01*
X135040566Y-93128594D01*
X135035582Y-93198286D01*
X134993710Y-93254219D01*
X134932002Y-93278310D01*
X134876046Y-93284026D01*
X134712284Y-93338292D01*
X134712281Y-93338293D01*
X134565448Y-93428861D01*
X134551125Y-93443184D01*
X134489801Y-93476668D01*
X134420109Y-93471682D01*
X134375765Y-93443182D01*
X134361838Y-93429255D01*
X134361834Y-93429252D01*
X134215111Y-93338751D01*
X134215100Y-93338746D01*
X134051452Y-93284519D01*
X133950454Y-93274200D01*
X133851300Y-93274200D01*
X133851300Y-95224199D01*
X133950440Y-95224199D01*
X133950454Y-95224198D01*
X134051452Y-95213880D01*
X134215100Y-95159653D01*
X134215111Y-95159648D01*
X134361835Y-95069147D01*
X134375760Y-95055221D01*
X134437082Y-95021733D01*
X134506773Y-95026714D01*
X134551127Y-95055217D01*
X134565450Y-95069540D01*
X134712284Y-95160108D01*
X134876047Y-95214374D01*
X134927463Y-95219626D01*
X134992154Y-95246021D01*
X135032306Y-95303201D01*
X135035170Y-95373012D01*
X135002542Y-95430665D01*
X134842008Y-95591199D01*
X134829751Y-95601020D01*
X134829934Y-95601241D01*
X134823922Y-95606214D01*
X134777898Y-95655223D01*
X134775191Y-95658016D01*
X134755689Y-95677517D01*
X134755675Y-95677534D01*
X134753207Y-95680715D01*
X134745643Y-95689570D01*
X134715737Y-95721418D01*
X134715736Y-95721420D01*
X134709757Y-95732296D01*
X134665246Y-95778672D01*
X134532934Y-95858656D01*
X134465379Y-95876492D01*
X134403688Y-95858078D01*
X134289277Y-95787508D01*
X134289272Y-95787506D01*
X134129783Y-95734657D01*
X134031350Y-95724600D01*
X133977200Y-95724600D01*
X133977200Y-96788100D01*
X133957515Y-96855139D01*
X133904711Y-96900894D01*
X133853200Y-96912100D01*
X132752201Y-96912100D01*
X132752201Y-96928752D01*
X132762256Y-97027183D01*
X132815106Y-97186672D01*
X132815108Y-97186677D01*
X132903314Y-97329680D01*
X132935200Y-97361567D01*
X132968685Y-97422891D01*
X132963699Y-97492582D01*
X132935200Y-97536927D01*
X132902919Y-97569207D01*
X132902916Y-97569212D01*
X132814655Y-97712304D01*
X132814650Y-97712315D01*
X132805733Y-97739225D01*
X132761764Y-97871915D01*
X132761764Y-97871916D01*
X132761763Y-97871916D01*
X132751700Y-97970418D01*
X132751700Y-98503781D01*
X126225302Y-98503781D01*
X126192400Y-98433222D01*
X126192399Y-98433220D01*
X126056913Y-98239726D01*
X126056908Y-98239720D01*
X125889882Y-98072694D01*
X125703768Y-97942375D01*
X125660144Y-97887798D01*
X125652951Y-97818299D01*
X125684473Y-97755945D01*
X125703768Y-97739225D01*
X125889882Y-97608905D01*
X126056905Y-97441882D01*
X126192400Y-97248378D01*
X126292229Y-97034292D01*
X126292232Y-97034286D01*
X126349436Y-96820800D01*
X125452486Y-96820800D01*
X125478293Y-96780644D01*
X125518800Y-96642689D01*
X125518800Y-96498911D01*
X125493310Y-96412100D01*
X132752200Y-96412100D01*
X133477200Y-96412100D01*
X133477200Y-95724600D01*
X133477199Y-95724599D01*
X133423064Y-95724600D01*
X133423047Y-95724601D01*
X133324615Y-95734657D01*
X133165127Y-95787506D01*
X133165122Y-95787508D01*
X133022119Y-95875714D01*
X132903314Y-95994519D01*
X132815108Y-96137522D01*
X132815106Y-96137527D01*
X132762257Y-96297016D01*
X132752200Y-96395449D01*
X132752200Y-96412100D01*
X125493310Y-96412100D01*
X125478293Y-96360956D01*
X125452486Y-96320800D01*
X126349436Y-96320800D01*
X126349435Y-96320799D01*
X126292232Y-96107313D01*
X126292229Y-96107307D01*
X126192400Y-95893222D01*
X126192399Y-95893220D01*
X126056913Y-95699726D01*
X126056908Y-95699720D01*
X125889882Y-95532694D01*
X125703768Y-95402375D01*
X125660144Y-95347798D01*
X125652951Y-95278299D01*
X125684473Y-95215945D01*
X125703768Y-95199225D01*
X125889882Y-95068905D01*
X126056905Y-94901882D01*
X126192400Y-94708378D01*
X126289940Y-94499200D01*
X132563801Y-94499200D01*
X132563801Y-94535854D01*
X132574119Y-94636852D01*
X132628346Y-94800500D01*
X132628351Y-94800511D01*
X132718852Y-94947234D01*
X132718855Y-94947238D01*
X132840761Y-95069144D01*
X132840765Y-95069147D01*
X132987488Y-95159648D01*
X132987499Y-95159653D01*
X133151147Y-95213880D01*
X133252151Y-95224199D01*
X133351300Y-95224198D01*
X133351300Y-94499200D01*
X132563801Y-94499200D01*
X126289940Y-94499200D01*
X126292229Y-94494292D01*
X126292232Y-94494286D01*
X126349436Y-94280800D01*
X125452486Y-94280800D01*
X125478293Y-94240644D01*
X125518800Y-94102689D01*
X125518800Y-93999200D01*
X132563800Y-93999200D01*
X133351300Y-93999200D01*
X133351300Y-93274199D01*
X133252160Y-93274200D01*
X133252144Y-93274201D01*
X133151147Y-93284519D01*
X132987499Y-93338746D01*
X132987488Y-93338751D01*
X132840765Y-93429252D01*
X132840761Y-93429255D01*
X132718855Y-93551161D01*
X132718852Y-93551165D01*
X132628351Y-93697888D01*
X132628346Y-93697899D01*
X132574119Y-93861547D01*
X132563800Y-93962545D01*
X132563800Y-93999200D01*
X125518800Y-93999200D01*
X125518800Y-93958911D01*
X125478293Y-93820956D01*
X125452486Y-93780800D01*
X126349436Y-93780800D01*
X126349435Y-93780799D01*
X126292232Y-93567313D01*
X126292229Y-93567307D01*
X126192400Y-93353222D01*
X126192399Y-93353220D01*
X126056913Y-93159726D01*
X126056908Y-93159720D01*
X125889882Y-92992694D01*
X125696378Y-92857199D01*
X125482292Y-92757370D01*
X125482286Y-92757367D01*
X125268800Y-92700164D01*
X125268800Y-93595298D01*
X125161115Y-93546120D01*
X125054563Y-93530800D01*
X124983037Y-93530800D01*
X124876485Y-93546120D01*
X124768800Y-93595298D01*
X124768800Y-92700164D01*
X124768799Y-92700164D01*
X124555313Y-92757367D01*
X124555307Y-92757370D01*
X124341222Y-92857199D01*
X124341220Y-92857200D01*
X124147726Y-92992686D01*
X124025665Y-93114747D01*
X123964342Y-93148231D01*
X123894650Y-93143247D01*
X123838717Y-93101375D01*
X123821802Y-93070398D01*
X123772597Y-92938471D01*
X123772593Y-92938464D01*
X123686347Y-92823255D01*
X123686344Y-92823252D01*
X123571135Y-92737006D01*
X123571128Y-92737002D01*
X123436282Y-92686708D01*
X123436283Y-92686708D01*
X123376683Y-92680301D01*
X123376681Y-92680300D01*
X123376673Y-92680300D01*
X123376664Y-92680300D01*
X121580929Y-92680300D01*
X121580923Y-92680301D01*
X121521316Y-92686708D01*
X121386471Y-92737002D01*
X121386464Y-92737006D01*
X121271255Y-92823252D01*
X121271252Y-92823255D01*
X121185006Y-92938464D01*
X121185002Y-92938471D01*
X121134708Y-93073317D01*
X121128301Y-93132916D01*
X121128300Y-93132935D01*
X121128300Y-94928670D01*
X121128301Y-94928676D01*
X121134708Y-94988283D01*
X121185002Y-95123128D01*
X121185006Y-95123135D01*
X121271252Y-95238344D01*
X121271255Y-95238347D01*
X121386464Y-95324593D01*
X121386471Y-95324597D01*
X121517881Y-95373610D01*
X121573815Y-95415481D01*
X121598232Y-95480945D01*
X121583380Y-95549218D01*
X121562230Y-95577473D01*
X121440303Y-95699400D01*
X121304765Y-95892969D01*
X121304764Y-95892971D01*
X121204898Y-96107135D01*
X121204894Y-96107144D01*
X121143738Y-96335386D01*
X121143736Y-96335396D01*
X121123141Y-96570799D01*
X121123141Y-96570800D01*
X121143736Y-96806203D01*
X121143738Y-96806213D01*
X121204894Y-97034455D01*
X121204896Y-97034459D01*
X121204897Y-97034463D01*
X121296835Y-97231624D01*
X121304765Y-97248630D01*
X121304767Y-97248634D01*
X121383844Y-97361567D01*
X121440301Y-97442196D01*
X121440306Y-97442202D01*
X121607397Y-97609293D01*
X121607403Y-97609298D01*
X121792958Y-97739225D01*
X121836583Y-97793802D01*
X121843777Y-97863300D01*
X121812254Y-97925655D01*
X121792958Y-97942375D01*
X121607397Y-98072305D01*
X121440305Y-98239397D01*
X121304765Y-98432969D01*
X121304764Y-98432971D01*
X121204898Y-98647135D01*
X121204894Y-98647144D01*
X121143738Y-98875386D01*
X121143736Y-98875396D01*
X121123141Y-99110799D01*
X121123141Y-99110800D01*
X121143736Y-99346203D01*
X121143738Y-99346213D01*
X121204894Y-99574455D01*
X121204896Y-99574459D01*
X121204897Y-99574463D01*
X121289223Y-99755300D01*
X121304765Y-99788630D01*
X121304767Y-99788634D01*
X121413081Y-99943321D01*
X121424309Y-99959357D01*
X121440301Y-99982195D01*
X121440306Y-99982202D01*
X121607397Y-100149293D01*
X121607403Y-100149298D01*
X121792958Y-100279225D01*
X121836583Y-100333802D01*
X121843777Y-100403300D01*
X121812254Y-100465655D01*
X121792958Y-100482375D01*
X121607397Y-100612305D01*
X121440305Y-100779397D01*
X121304765Y-100972969D01*
X121304764Y-100972971D01*
X121204898Y-101187135D01*
X121204894Y-101187144D01*
X121143738Y-101415386D01*
X121143736Y-101415396D01*
X121123141Y-101650799D01*
X121123141Y-101650800D01*
X121143736Y-101886203D01*
X121143738Y-101886213D01*
X121204894Y-102114455D01*
X121204896Y-102114459D01*
X121204897Y-102114463D01*
X121242779Y-102195700D01*
X121304765Y-102328630D01*
X121304767Y-102328634D01*
X121413081Y-102483321D01*
X121440301Y-102522196D01*
X121440306Y-102522202D01*
X121607397Y-102689293D01*
X121607403Y-102689298D01*
X121792958Y-102819225D01*
X121836583Y-102873802D01*
X121843777Y-102943300D01*
X121812254Y-103005655D01*
X121792958Y-103022375D01*
X121607397Y-103152305D01*
X121440305Y-103319397D01*
X121304765Y-103512969D01*
X121304764Y-103512971D01*
X121204898Y-103727135D01*
X121204894Y-103727144D01*
X121143738Y-103955386D01*
X121143736Y-103955396D01*
X121123141Y-104190799D01*
X121123141Y-104190800D01*
X118440700Y-104190800D01*
X118440700Y-92035500D01*
X132752201Y-92035500D01*
X132752201Y-92052152D01*
X132762256Y-92150583D01*
X132815106Y-92310072D01*
X132815108Y-92310077D01*
X132903314Y-92453080D01*
X133022119Y-92571885D01*
X133165122Y-92660091D01*
X133165127Y-92660093D01*
X133324616Y-92712942D01*
X133423055Y-92722999D01*
X133477199Y-92722998D01*
X133477200Y-92722998D01*
X133477200Y-92035500D01*
X132752201Y-92035500D01*
X118440700Y-92035500D01*
X118440700Y-83680381D01*
X132747900Y-83680381D01*
X132757963Y-83778883D01*
X132810850Y-83938484D01*
X132810855Y-83938495D01*
X132899116Y-84081587D01*
X132899119Y-84081591D01*
X133018008Y-84200480D01*
X133018012Y-84200483D01*
X133161104Y-84288744D01*
X133161107Y-84288745D01*
X133161113Y-84288749D01*
X133320715Y-84341636D01*
X133419226Y-84351700D01*
X133419231Y-84351700D01*
X134027569Y-84351700D01*
X134027574Y-84351700D01*
X134126085Y-84341636D01*
X134285687Y-84288749D01*
X134400369Y-84218012D01*
X134467761Y-84199571D01*
X134529615Y-84217432D01*
X134657394Y-84294678D01*
X134819804Y-84345286D01*
X134890384Y-84351700D01*
X134890387Y-84351700D01*
X135553613Y-84351700D01*
X135553616Y-84351700D01*
X135624196Y-84345286D01*
X135786606Y-84294678D01*
X135932185Y-84206672D01*
X136052472Y-84086385D01*
X136140478Y-83940806D01*
X136191086Y-83778396D01*
X136197500Y-83707816D01*
X136197500Y-83586737D01*
X136217185Y-83519698D01*
X136269989Y-83473943D01*
X136339147Y-83463999D01*
X136402703Y-83493024D01*
X136409181Y-83499056D01*
X136497923Y-83587798D01*
X136677161Y-83713302D01*
X136875470Y-83805775D01*
X137086823Y-83862407D01*
X137269726Y-83878408D01*
X137304798Y-83881477D01*
X137304800Y-83881477D01*
X137304802Y-83881477D01*
X137333054Y-83879005D01*
X137522777Y-83862407D01*
X137734130Y-83805775D01*
X137932439Y-83713302D01*
X138111677Y-83587798D01*
X138266398Y-83433077D01*
X138391902Y-83253839D01*
X138484375Y-83055530D01*
X138541007Y-82844177D01*
X138557605Y-82654454D01*
X138560077Y-82626202D01*
X138560077Y-82626197D01*
X138556369Y-82583818D01*
X138541007Y-82408223D01*
X138484375Y-82196870D01*
X138391902Y-81998562D01*
X138391900Y-81998559D01*
X138391899Y-81998557D01*
X138266399Y-81819324D01*
X138193859Y-81746784D01*
X138111677Y-81664602D01*
X137983175Y-81574623D01*
X137939551Y-81520047D01*
X137930300Y-81473050D01*
X137930300Y-81209066D01*
X137949985Y-81142027D01*
X138002789Y-81096272D01*
X138010956Y-81092888D01*
X138047131Y-81079396D01*
X138162346Y-80993146D01*
X138248596Y-80877931D01*
X138298891Y-80743083D01*
X138305300Y-80683473D01*
X138305300Y-80683470D01*
X139004300Y-80683470D01*
X139004301Y-80683476D01*
X139010708Y-80743083D01*
X139061002Y-80877928D01*
X139061006Y-80877935D01*
X139147252Y-80993144D01*
X139147255Y-80993147D01*
X139262464Y-81079393D01*
X139262471Y-81079397D01*
X139307418Y-81096161D01*
X139397317Y-81129691D01*
X139456927Y-81136100D01*
X140006531Y-81136099D01*
X140073570Y-81155783D01*
X140119325Y-81208587D01*
X140129269Y-81277746D01*
X140124462Y-81298417D01*
X140095755Y-81386769D01*
X140084326Y-81421944D01*
X140064540Y-81610200D01*
X140084326Y-81798456D01*
X140084327Y-81798459D01*
X140142818Y-81978477D01*
X140142821Y-81978484D01*
X140237467Y-82142416D01*
X140337398Y-82253400D01*
X140364129Y-82283088D01*
X140517265Y-82394348D01*
X140517270Y-82394351D01*
X140690192Y-82471342D01*
X140690197Y-82471344D01*
X140875354Y-82510700D01*
X140954206Y-82510700D01*
X141021245Y-82530385D01*
X141030201Y-82536717D01*
X141042264Y-82546074D01*
X141066756Y-82556672D01*
X141082355Y-82563422D01*
X141092835Y-82568555D01*
X141131108Y-82589597D01*
X141150512Y-82594579D01*
X141168910Y-82600878D01*
X141187305Y-82608838D01*
X141230454Y-82615671D01*
X141241880Y-82618038D01*
X141284181Y-82628900D01*
X141304217Y-82628900D01*
X141323607Y-82630425D01*
X141336994Y-82632546D01*
X141400128Y-82662471D01*
X141405264Y-82667321D01*
X141496815Y-82758872D01*
X141642394Y-82846878D01*
X141804804Y-82897486D01*
X141875384Y-82903900D01*
X141875387Y-82903900D01*
X142538613Y-82903900D01*
X142538616Y-82903900D01*
X142609196Y-82897486D01*
X142771606Y-82846878D01*
X142917185Y-82758872D01*
X142917187Y-82758869D01*
X142918032Y-82758359D01*
X142985587Y-82740522D01*
X143046333Y-82758358D01*
X143192004Y-82846419D01*
X143192003Y-82846419D01*
X143354294Y-82896990D01*
X143354292Y-82896990D01*
X143424818Y-82903399D01*
X143506399Y-82903398D01*
X143506400Y-82903398D01*
X143506400Y-82253400D01*
X144006400Y-82253400D01*
X144006400Y-82903399D01*
X144087981Y-82903399D01*
X144158502Y-82896991D01*
X144158507Y-82896990D01*
X144320796Y-82846418D01*
X144466277Y-82758472D01*
X144586472Y-82638277D01*
X144674419Y-82492795D01*
X144724990Y-82330506D01*
X144731400Y-82259972D01*
X144731400Y-82253400D01*
X144006400Y-82253400D01*
X143506400Y-82253400D01*
X143506400Y-81877400D01*
X143526085Y-81810361D01*
X143578889Y-81764606D01*
X143630400Y-81753400D01*
X144731399Y-81753400D01*
X144731399Y-81746817D01*
X144724991Y-81676297D01*
X144724990Y-81676292D01*
X144674418Y-81514001D01*
X144630922Y-81442051D01*
X144613085Y-81374496D01*
X144634602Y-81308022D01*
X144688642Y-81263734D01*
X144737038Y-81253900D01*
X144828059Y-81253900D01*
X144895098Y-81273585D01*
X144940853Y-81326389D01*
X144951586Y-81367090D01*
X144953308Y-81386769D01*
X144958592Y-81447171D01*
X144958594Y-81447182D01*
X145015222Y-81658522D01*
X145015224Y-81658526D01*
X145015225Y-81658530D01*
X145018057Y-81664603D01*
X145107697Y-81856838D01*
X145107698Y-81856839D01*
X145233202Y-82036077D01*
X145387923Y-82190798D01*
X145567161Y-82316302D01*
X145765470Y-82408775D01*
X145765476Y-82408776D01*
X145765477Y-82408777D01*
X145796164Y-82416999D01*
X145976823Y-82465407D01*
X146159726Y-82481408D01*
X146194798Y-82484477D01*
X146194800Y-82484477D01*
X146194802Y-82484477D01*
X146223054Y-82482005D01*
X146412777Y-82465407D01*
X146624130Y-82408775D01*
X146822439Y-82316302D01*
X147001677Y-82190798D01*
X147156398Y-82036077D01*
X147281902Y-81856839D01*
X147374375Y-81658530D01*
X147431007Y-81447177D01*
X147450077Y-81229200D01*
X147447541Y-81200218D01*
X147444996Y-81171119D01*
X147431007Y-81011223D01*
X147374375Y-80799870D01*
X147281902Y-80601562D01*
X147281900Y-80601559D01*
X147281899Y-80601557D01*
X147156399Y-80422324D01*
X147094776Y-80360701D01*
X147001677Y-80267602D01*
X146822439Y-80142098D01*
X146822440Y-80142098D01*
X146822438Y-80142097D01*
X146723284Y-80095861D01*
X146624130Y-80049625D01*
X146624126Y-80049624D01*
X146624122Y-80049622D01*
X146412777Y-79992993D01*
X146194802Y-79973923D01*
X146194798Y-79973923D01*
X146049482Y-79986636D01*
X145976823Y-79992993D01*
X145976821Y-79992993D01*
X145976817Y-79992994D01*
X145940575Y-80002705D01*
X145870725Y-80001042D01*
X145820802Y-79970611D01*
X145819803Y-79969612D01*
X145809980Y-79957350D01*
X145809759Y-79957534D01*
X145804786Y-79951522D01*
X145755776Y-79905499D01*
X145752977Y-79902786D01*
X145733477Y-79883285D01*
X145733471Y-79883280D01*
X145730286Y-79880809D01*
X145721434Y-79873248D01*
X145689582Y-79843338D01*
X145689580Y-79843336D01*
X145689577Y-79843335D01*
X145672029Y-79833688D01*
X145655763Y-79823004D01*
X145639932Y-79810724D01*
X145599849Y-79793378D01*
X145589363Y-79788241D01*
X145551094Y-79767203D01*
X145551092Y-79767202D01*
X145531693Y-79762222D01*
X145513281Y-79755918D01*
X145494898Y-79747962D01*
X145494892Y-79747960D01*
X145452315Y-79741217D01*
X145389180Y-79711288D01*
X145379561Y-79701714D01*
X145360474Y-79680514D01*
X145360469Y-79680510D01*
X145207334Y-79569251D01*
X145207329Y-79569248D01*
X145136444Y-79537688D01*
X145083207Y-79492438D01*
X145062886Y-79425589D01*
X145081932Y-79358365D01*
X145134298Y-79312110D01*
X145136444Y-79311130D01*
X145219851Y-79273994D01*
X145258130Y-79256951D01*
X145411271Y-79145688D01*
X145417163Y-79139145D01*
X145445219Y-79107985D01*
X145508221Y-79038013D01*
X145527470Y-79020680D01*
X145556479Y-78999603D01*
X145566214Y-78993208D01*
X145603820Y-78970970D01*
X145617989Y-78956799D01*
X145632779Y-78944168D01*
X145648987Y-78932394D01*
X145676838Y-78898726D01*
X145684679Y-78890109D01*
X145820802Y-78753986D01*
X145882123Y-78720503D01*
X145940574Y-78721893D01*
X145976823Y-78731607D01*
X146132520Y-78745228D01*
X146194798Y-78750677D01*
X146194800Y-78750677D01*
X146194802Y-78750677D01*
X146223054Y-78748205D01*
X146412777Y-78731607D01*
X146624130Y-78674975D01*
X146822439Y-78582502D01*
X147001677Y-78456998D01*
X147156398Y-78302277D01*
X147281902Y-78123039D01*
X147374375Y-77924730D01*
X147431007Y-77713377D01*
X147450077Y-77495400D01*
X147449313Y-77486672D01*
X147446183Y-77450887D01*
X147431007Y-77277423D01*
X147393165Y-77136196D01*
X147374377Y-77066077D01*
X147374376Y-77066076D01*
X147374375Y-77066070D01*
X147373223Y-77063600D01*
X154333722Y-77063600D01*
X154354019Y-77450887D01*
X154414686Y-77833923D01*
X154414687Y-77833930D01*
X154515062Y-78208536D01*
X154654044Y-78570594D01*
X154830110Y-78916143D01*
X155041331Y-79241393D01*
X155249895Y-79498950D01*
X155249896Y-79498950D01*
X156741066Y-78007780D01*
X156903930Y-78198470D01*
X157094619Y-78361333D01*
X155603448Y-79852503D01*
X155603449Y-79852504D01*
X155861006Y-80061068D01*
X156186256Y-80272289D01*
X156531805Y-80448355D01*
X156893863Y-80587337D01*
X157268469Y-80687712D01*
X157268476Y-80687713D01*
X157651512Y-80748380D01*
X158038799Y-80768678D01*
X158038801Y-80768678D01*
X158426087Y-80748380D01*
X158809123Y-80687713D01*
X158809130Y-80687712D01*
X159183736Y-80587337D01*
X159545794Y-80448355D01*
X159891343Y-80272289D01*
X160216583Y-80061076D01*
X160216585Y-80061075D01*
X160474149Y-79852502D01*
X158982980Y-78361333D01*
X159173670Y-78198470D01*
X159336533Y-78007780D01*
X160827702Y-79498949D01*
X161036275Y-79241385D01*
X161036276Y-79241383D01*
X161247489Y-78916143D01*
X161423555Y-78570594D01*
X161562537Y-78208536D01*
X161662912Y-77833930D01*
X161662913Y-77833923D01*
X161723580Y-77450887D01*
X161743878Y-77063600D01*
X161743878Y-77063599D01*
X161723580Y-76676312D01*
X161662913Y-76293276D01*
X161662912Y-76293269D01*
X161562537Y-75918663D01*
X161423555Y-75556605D01*
X161247489Y-75211056D01*
X161036268Y-74885806D01*
X160827704Y-74628249D01*
X160827703Y-74628248D01*
X159336532Y-76119418D01*
X159173670Y-75928730D01*
X158982980Y-75765866D01*
X160474150Y-74274696D01*
X160474150Y-74274695D01*
X160216593Y-74066131D01*
X159891343Y-73854910D01*
X159545794Y-73678844D01*
X159183736Y-73539862D01*
X158809130Y-73439487D01*
X158809123Y-73439486D01*
X158426087Y-73378819D01*
X158038801Y-73358522D01*
X158038799Y-73358522D01*
X157651512Y-73378819D01*
X157268476Y-73439486D01*
X157268469Y-73439487D01*
X156893863Y-73539862D01*
X156531805Y-73678844D01*
X156186256Y-73854910D01*
X155861006Y-74066131D01*
X155603448Y-74274695D01*
X155603448Y-74274696D01*
X157094619Y-75765866D01*
X156903930Y-75928730D01*
X156741066Y-76119418D01*
X155249896Y-74628248D01*
X155249895Y-74628248D01*
X155041331Y-74885806D01*
X154830110Y-75211056D01*
X154654044Y-75556605D01*
X154515062Y-75918663D01*
X154414687Y-76293269D01*
X154414686Y-76293276D01*
X154354019Y-76676312D01*
X154333722Y-77063599D01*
X154333722Y-77063600D01*
X147373223Y-77063600D01*
X147281902Y-76867762D01*
X147281900Y-76867759D01*
X147281899Y-76867757D01*
X147156399Y-76688524D01*
X147100859Y-76632984D01*
X147001677Y-76533802D01*
X146822439Y-76408298D01*
X146822440Y-76408298D01*
X146822438Y-76408297D01*
X146665184Y-76334969D01*
X146624130Y-76315825D01*
X146624126Y-76315824D01*
X146624122Y-76315822D01*
X146412777Y-76259193D01*
X146194802Y-76240123D01*
X146194798Y-76240123D01*
X146049482Y-76252836D01*
X145976823Y-76259193D01*
X145976820Y-76259193D01*
X145765477Y-76315822D01*
X145765468Y-76315826D01*
X145567161Y-76408298D01*
X145567157Y-76408300D01*
X145387921Y-76533802D01*
X145233202Y-76688521D01*
X145107700Y-76867757D01*
X145107698Y-76867761D01*
X145015226Y-77066068D01*
X145015222Y-77066077D01*
X144958593Y-77277420D01*
X144958593Y-77277423D01*
X144954342Y-77326012D01*
X144942698Y-77459107D01*
X144917246Y-77524176D01*
X144860655Y-77565155D01*
X144819170Y-77572300D01*
X144737038Y-77572300D01*
X144669999Y-77552615D01*
X144624244Y-77499811D01*
X144614300Y-77430653D01*
X144630922Y-77384149D01*
X144674418Y-77312198D01*
X144674419Y-77312196D01*
X144724990Y-77149906D01*
X144731400Y-77079372D01*
X144731400Y-77072800D01*
X143630400Y-77072800D01*
X143563361Y-77053115D01*
X143517606Y-77000311D01*
X143506400Y-76948800D01*
X143506400Y-75922800D01*
X144006400Y-75922800D01*
X144006400Y-76572800D01*
X144731399Y-76572800D01*
X144731399Y-76566217D01*
X144724991Y-76495697D01*
X144724990Y-76495692D01*
X144674418Y-76333403D01*
X144586472Y-76187922D01*
X144466277Y-76067727D01*
X144320795Y-75979780D01*
X144320796Y-75979780D01*
X144158505Y-75929209D01*
X144158506Y-75929209D01*
X144087972Y-75922800D01*
X144006400Y-75922800D01*
X143506400Y-75922800D01*
X143506399Y-75922799D01*
X143424817Y-75922800D01*
X143354297Y-75929208D01*
X143354292Y-75929209D01*
X143192001Y-75979781D01*
X143191999Y-75979782D01*
X143046332Y-76067841D01*
X142978778Y-76085677D01*
X142918033Y-76067841D01*
X142917185Y-76067328D01*
X142771606Y-75979322D01*
X142609196Y-75928714D01*
X142609194Y-75928713D01*
X142609192Y-75928713D01*
X142559778Y-75924223D01*
X142538616Y-75922300D01*
X141875384Y-75922300D01*
X141856145Y-75924048D01*
X141804807Y-75928713D01*
X141642393Y-75979322D01*
X141496813Y-76067329D01*
X141400315Y-76163827D01*
X141338992Y-76197311D01*
X141316545Y-76200083D01*
X141316385Y-76200088D01*
X141316368Y-76200090D01*
X141297126Y-76205680D01*
X141278087Y-76209623D01*
X141258217Y-76212134D01*
X141258203Y-76212137D01*
X141217598Y-76228213D01*
X141206554Y-76231994D01*
X141164614Y-76244179D01*
X141164612Y-76244180D01*
X141154266Y-76250299D01*
X141086541Y-76267477D01*
X141065372Y-76264854D01*
X141064647Y-76264700D01*
X141064646Y-76264700D01*
X140875354Y-76264700D01*
X140848942Y-76270314D01*
X140690197Y-76304055D01*
X140690192Y-76304057D01*
X140517270Y-76381048D01*
X140517265Y-76381051D01*
X140364129Y-76492311D01*
X140237466Y-76632985D01*
X140142821Y-76796915D01*
X140142818Y-76796922D01*
X140084327Y-76976940D01*
X140084326Y-76976944D01*
X140064540Y-77165200D01*
X140084326Y-77353456D01*
X140084327Y-77353459D01*
X140139343Y-77522782D01*
X140141338Y-77592623D01*
X140105258Y-77652456D01*
X140042557Y-77683284D01*
X140021412Y-77685100D01*
X139456929Y-77685100D01*
X139456923Y-77685101D01*
X139397316Y-77691508D01*
X139262471Y-77741802D01*
X139262464Y-77741806D01*
X139147255Y-77828052D01*
X139147252Y-77828055D01*
X139061006Y-77943264D01*
X139061002Y-77943271D01*
X139012040Y-78074548D01*
X139010709Y-78078117D01*
X139004300Y-78137727D01*
X139004300Y-78137734D01*
X139004300Y-78137735D01*
X139004300Y-78783470D01*
X139004301Y-78783476D01*
X139010709Y-78843084D01*
X139029319Y-78892982D01*
X139034303Y-78962674D01*
X139029320Y-78979646D01*
X139011202Y-79028223D01*
X139011201Y-79028227D01*
X139004800Y-79087755D01*
X139004800Y-79160600D01*
X139196397Y-79160600D01*
X139255825Y-79175768D01*
X139262471Y-79179397D01*
X139397317Y-79229691D01*
X139397316Y-79229691D01*
X139404244Y-79230435D01*
X139456927Y-79236100D01*
X140552672Y-79236099D01*
X140612283Y-79229691D01*
X140747131Y-79179396D01*
X140747134Y-79179393D01*
X140753775Y-79175768D01*
X140813203Y-79160600D01*
X141004800Y-79160600D01*
X141041119Y-79124281D01*
X141043458Y-79126620D01*
X141077289Y-79097306D01*
X141128800Y-79086100D01*
X141303280Y-79086100D01*
X141370319Y-79105785D01*
X141390961Y-79122419D01*
X141496811Y-79228269D01*
X141496813Y-79228270D01*
X141496815Y-79228272D01*
X141627019Y-79306983D01*
X141674207Y-79358511D01*
X141686045Y-79427371D01*
X141658776Y-79491699D01*
X141627020Y-79519215D01*
X141596464Y-79537688D01*
X141496813Y-79597929D01*
X141452941Y-79641802D01*
X141395960Y-79698782D01*
X141334640Y-79732266D01*
X141308281Y-79735100D01*
X141128800Y-79735100D01*
X141061761Y-79715415D01*
X141043591Y-79694446D01*
X141041119Y-79696919D01*
X141004800Y-79660600D01*
X140813203Y-79660600D01*
X140753775Y-79645432D01*
X140747128Y-79641802D01*
X140612282Y-79591508D01*
X140612283Y-79591508D01*
X140552683Y-79585101D01*
X140552681Y-79585100D01*
X140552673Y-79585100D01*
X140552664Y-79585100D01*
X139456929Y-79585100D01*
X139456923Y-79585101D01*
X139397316Y-79591508D01*
X139262471Y-79641802D01*
X139255825Y-79645432D01*
X139196397Y-79660600D01*
X139004800Y-79660600D01*
X139004800Y-79733444D01*
X139011201Y-79792972D01*
X139011203Y-79792983D01*
X139029319Y-79841553D01*
X139034303Y-79911244D01*
X139029320Y-79928216D01*
X139010710Y-79978113D01*
X139010709Y-79978117D01*
X139004300Y-80037727D01*
X139004300Y-80037734D01*
X139004300Y-80037735D01*
X139004300Y-80683470D01*
X138305300Y-80683470D01*
X138305299Y-80037728D01*
X138298891Y-79978117D01*
X138297327Y-79973923D01*
X138280547Y-79928934D01*
X138275562Y-79859243D01*
X138280547Y-79842265D01*
X138298889Y-79793088D01*
X138298888Y-79793088D01*
X138298891Y-79793083D01*
X138305300Y-79733473D01*
X138305299Y-79087728D01*
X138298891Y-79028117D01*
X138286978Y-78996177D01*
X138280547Y-78978934D01*
X138275562Y-78909243D01*
X138280547Y-78892265D01*
X138287173Y-78874499D01*
X138298891Y-78843083D01*
X138305300Y-78783473D01*
X138305299Y-78137728D01*
X138298891Y-78078117D01*
X138292563Y-78061152D01*
X138248597Y-77943271D01*
X138248593Y-77943264D01*
X138162347Y-77828055D01*
X138162344Y-77828052D01*
X138047134Y-77741805D01*
X138010964Y-77728314D01*
X137955031Y-77686441D01*
X137930616Y-77620976D01*
X137930300Y-77612133D01*
X137930300Y-77327749D01*
X137949985Y-77260710D01*
X137983174Y-77226176D01*
X138111677Y-77136198D01*
X138266398Y-76981477D01*
X138391902Y-76802239D01*
X138484375Y-76603930D01*
X138541007Y-76392577D01*
X138560077Y-76174600D01*
X138541007Y-75956623D01*
X138484375Y-75745270D01*
X138391902Y-75546962D01*
X138391900Y-75546959D01*
X138391899Y-75546957D01*
X138266399Y-75367724D01*
X138200418Y-75301743D01*
X138111677Y-75213002D01*
X137932439Y-75087498D01*
X137932440Y-75087498D01*
X137932438Y-75087497D01*
X137833284Y-75041261D01*
X137734130Y-74995025D01*
X137734126Y-74995024D01*
X137734122Y-74995022D01*
X137522777Y-74938393D01*
X137304802Y-74919323D01*
X137304798Y-74919323D01*
X137159482Y-74932036D01*
X137086823Y-74938393D01*
X137086820Y-74938393D01*
X136875477Y-74995022D01*
X136875468Y-74995026D01*
X136677161Y-75087498D01*
X136677157Y-75087500D01*
X136497921Y-75213002D01*
X136409181Y-75301743D01*
X136347858Y-75335228D01*
X136278166Y-75330244D01*
X136222233Y-75288372D01*
X136197816Y-75222908D01*
X136197500Y-75214062D01*
X136197500Y-75092986D01*
X136197500Y-75092984D01*
X136191086Y-75022404D01*
X136140478Y-74859994D01*
X136052472Y-74714415D01*
X136052470Y-74714413D01*
X136052469Y-74714411D01*
X135932188Y-74594130D01*
X135914382Y-74583366D01*
X135786606Y-74506122D01*
X135624196Y-74455514D01*
X135624194Y-74455513D01*
X135624192Y-74455513D01*
X135574778Y-74451023D01*
X135553616Y-74449100D01*
X134890384Y-74449100D01*
X134871145Y-74450848D01*
X134819807Y-74455513D01*
X134657391Y-74506123D01*
X134529615Y-74583366D01*
X134462061Y-74601202D01*
X134400369Y-74582788D01*
X134285689Y-74512052D01*
X134285684Y-74512050D01*
X134284276Y-74511583D01*
X134126085Y-74459164D01*
X134126083Y-74459163D01*
X134027581Y-74449100D01*
X134027574Y-74449100D01*
X133419226Y-74449100D01*
X133419218Y-74449100D01*
X133320716Y-74459163D01*
X133320715Y-74459164D01*
X133241619Y-74485373D01*
X133161115Y-74512050D01*
X133161104Y-74512055D01*
X133018012Y-74600316D01*
X133018008Y-74600319D01*
X132899119Y-74719208D01*
X132899116Y-74719212D01*
X132810855Y-74862304D01*
X132810851Y-74862313D01*
X132757964Y-75021915D01*
X132757964Y-75021916D01*
X132757963Y-75021916D01*
X132747900Y-75120418D01*
X132747900Y-75653781D01*
X132757963Y-75752283D01*
X132810850Y-75911884D01*
X132810855Y-75911895D01*
X132899116Y-76054987D01*
X132899119Y-76054992D01*
X132931400Y-76087273D01*
X132964885Y-76148597D01*
X132959899Y-76218288D01*
X132931400Y-76262633D01*
X132899514Y-76294519D01*
X132811308Y-76437522D01*
X132811306Y-76437527D01*
X132758457Y-76597016D01*
X132748400Y-76695449D01*
X132748400Y-76712100D01*
X133849400Y-76712100D01*
X133916439Y-76731785D01*
X133962194Y-76784589D01*
X133973400Y-76836100D01*
X133973400Y-77899599D01*
X134027536Y-77899599D01*
X134027552Y-77899598D01*
X134125983Y-77889543D01*
X134285472Y-77836693D01*
X134285483Y-77836688D01*
X134399888Y-77766122D01*
X134467280Y-77747681D01*
X134529134Y-77765543D01*
X134591545Y-77803271D01*
X134638733Y-77854798D01*
X134641198Y-77860142D01*
X134643381Y-77865188D01*
X134653581Y-77882436D01*
X134662136Y-77899899D01*
X134669514Y-77918532D01*
X134695181Y-77953860D01*
X134701593Y-77963621D01*
X134723828Y-78001217D01*
X134728613Y-78007386D01*
X134727173Y-78008502D01*
X134755923Y-78061152D01*
X134758078Y-78074548D01*
X134763175Y-78123038D01*
X134775726Y-78242456D01*
X134775727Y-78242459D01*
X134811009Y-78351047D01*
X134813004Y-78420888D01*
X134776923Y-78480721D01*
X134732087Y-78507069D01*
X134708488Y-78514890D01*
X134708487Y-78514890D01*
X134561648Y-78605461D01*
X134547325Y-78619784D01*
X134486001Y-78653268D01*
X134416309Y-78648282D01*
X134371965Y-78619782D01*
X134358038Y-78605855D01*
X134358034Y-78605852D01*
X134211311Y-78515351D01*
X134211300Y-78515346D01*
X134047652Y-78461119D01*
X133946654Y-78450800D01*
X133847500Y-78450800D01*
X133847500Y-80400799D01*
X133946640Y-80400799D01*
X133946654Y-80400798D01*
X134047652Y-80390480D01*
X134211300Y-80336253D01*
X134211311Y-80336248D01*
X134358035Y-80245747D01*
X134371960Y-80231821D01*
X134433282Y-80198333D01*
X134502973Y-80203314D01*
X134547327Y-80231817D01*
X134561650Y-80246140D01*
X134692345Y-80326753D01*
X134739069Y-80378701D01*
X134750292Y-80447664D01*
X134745179Y-80470609D01*
X134724928Y-80532937D01*
X134724926Y-80532943D01*
X134704651Y-80725847D01*
X134682266Y-80781544D01*
X134683296Y-80782154D01*
X134679324Y-80788868D01*
X134661975Y-80828958D01*
X134656838Y-80839444D01*
X134635803Y-80877706D01*
X134630822Y-80897107D01*
X134624521Y-80915510D01*
X134616562Y-80933902D01*
X134614385Y-80941397D01*
X134612272Y-80940783D01*
X134587134Y-80993784D01*
X134558759Y-81017348D01*
X134529139Y-81035255D01*
X134461585Y-81053093D01*
X134399889Y-81034679D01*
X134285477Y-80964108D01*
X134285472Y-80964106D01*
X134125983Y-80911257D01*
X134027550Y-80901200D01*
X133973400Y-80901200D01*
X133973400Y-81964700D01*
X133953715Y-82031739D01*
X133900911Y-82077494D01*
X133849400Y-82088700D01*
X132748401Y-82088700D01*
X132748401Y-82105352D01*
X132758456Y-82203783D01*
X132811306Y-82363272D01*
X132811308Y-82363277D01*
X132899514Y-82506280D01*
X132931400Y-82538167D01*
X132964885Y-82599491D01*
X132959899Y-82669182D01*
X132931400Y-82713527D01*
X132899119Y-82745807D01*
X132899116Y-82745812D01*
X132810855Y-82888904D01*
X132810850Y-82888915D01*
X132808174Y-82896991D01*
X132757964Y-83048515D01*
X132757964Y-83048516D01*
X132757963Y-83048516D01*
X132747900Y-83147018D01*
X132747900Y-83680381D01*
X118440700Y-83680381D01*
X118440700Y-81588700D01*
X132748400Y-81588700D01*
X133473400Y-81588700D01*
X133473400Y-80901200D01*
X133473399Y-80901199D01*
X133419264Y-80901200D01*
X133419247Y-80901201D01*
X133320815Y-80911257D01*
X133161327Y-80964106D01*
X133161322Y-80964108D01*
X133018319Y-81052314D01*
X132899514Y-81171119D01*
X132811308Y-81314122D01*
X132811306Y-81314127D01*
X132758457Y-81473616D01*
X132748400Y-81572049D01*
X132748400Y-81588700D01*
X118440700Y-81588700D01*
X118440700Y-77063600D01*
X119307122Y-77063600D01*
X119327419Y-77450887D01*
X119388086Y-77833923D01*
X119388087Y-77833930D01*
X119488462Y-78208536D01*
X119627444Y-78570594D01*
X119803510Y-78916143D01*
X120014731Y-79241393D01*
X120223295Y-79498950D01*
X120223296Y-79498950D01*
X121714466Y-78007780D01*
X121877330Y-78198470D01*
X122068019Y-78361333D01*
X120576848Y-79852503D01*
X120576849Y-79852504D01*
X120834406Y-80061068D01*
X121159656Y-80272289D01*
X121505205Y-80448355D01*
X121867263Y-80587337D01*
X122241869Y-80687712D01*
X122241876Y-80687713D01*
X122624912Y-80748380D01*
X123012199Y-80768678D01*
X123012201Y-80768678D01*
X123399487Y-80748380D01*
X123782523Y-80687713D01*
X123782530Y-80687712D01*
X124157136Y-80587337D01*
X124519194Y-80448355D01*
X124864743Y-80272289D01*
X125189983Y-80061076D01*
X125189985Y-80061075D01*
X125447549Y-79852502D01*
X125270847Y-79675800D01*
X132560001Y-79675800D01*
X132560001Y-79712454D01*
X132570319Y-79813452D01*
X132624546Y-79977100D01*
X132624551Y-79977111D01*
X132715052Y-80123834D01*
X132715055Y-80123838D01*
X132836961Y-80245744D01*
X132836965Y-80245747D01*
X132983688Y-80336248D01*
X132983699Y-80336253D01*
X133147347Y-80390480D01*
X133248351Y-80400799D01*
X133347500Y-80400798D01*
X133347500Y-79675800D01*
X132560001Y-79675800D01*
X125270847Y-79675800D01*
X123956380Y-78361333D01*
X124147070Y-78198470D01*
X124309933Y-78007780D01*
X125801102Y-79498949D01*
X126009675Y-79241385D01*
X126009676Y-79241383D01*
X126052266Y-79175800D01*
X132560000Y-79175800D01*
X133347500Y-79175800D01*
X133347500Y-78450799D01*
X133248360Y-78450800D01*
X133248344Y-78450801D01*
X133147347Y-78461119D01*
X132983699Y-78515346D01*
X132983688Y-78515351D01*
X132836965Y-78605852D01*
X132836961Y-78605855D01*
X132715055Y-78727761D01*
X132715052Y-78727765D01*
X132624551Y-78874488D01*
X132624546Y-78874499D01*
X132570319Y-79038147D01*
X132560000Y-79139145D01*
X132560000Y-79175800D01*
X126052266Y-79175800D01*
X126220889Y-78916143D01*
X126396955Y-78570594D01*
X126535937Y-78208536D01*
X126636312Y-77833930D01*
X126636313Y-77833923D01*
X126696980Y-77450887D01*
X126709495Y-77212100D01*
X132748401Y-77212100D01*
X132748401Y-77228752D01*
X132758456Y-77327183D01*
X132811306Y-77486672D01*
X132811308Y-77486677D01*
X132899514Y-77629680D01*
X133018319Y-77748485D01*
X133161322Y-77836691D01*
X133161327Y-77836693D01*
X133320816Y-77889542D01*
X133419255Y-77899599D01*
X133473399Y-77899598D01*
X133473400Y-77899598D01*
X133473400Y-77212100D01*
X132748401Y-77212100D01*
X126709495Y-77212100D01*
X126717278Y-77063600D01*
X126717278Y-77063599D01*
X126696980Y-76676312D01*
X126636313Y-76293276D01*
X126636312Y-76293269D01*
X126535937Y-75918663D01*
X126396955Y-75556605D01*
X126220889Y-75211056D01*
X126009668Y-74885806D01*
X125801104Y-74628249D01*
X125801103Y-74628248D01*
X124309932Y-76119418D01*
X124147070Y-75928730D01*
X123956380Y-75765866D01*
X125447550Y-74274696D01*
X125447550Y-74274695D01*
X125189993Y-74066131D01*
X124864743Y-73854910D01*
X124519194Y-73678844D01*
X124157136Y-73539862D01*
X123782530Y-73439487D01*
X123782523Y-73439486D01*
X123399487Y-73378819D01*
X123012201Y-73358522D01*
X123012199Y-73358522D01*
X122624912Y-73378819D01*
X122241876Y-73439486D01*
X122241869Y-73439487D01*
X121867263Y-73539862D01*
X121505205Y-73678844D01*
X121159656Y-73854910D01*
X120834406Y-74066131D01*
X120576848Y-74274695D01*
X120576848Y-74274696D01*
X122068019Y-75765866D01*
X121877330Y-75928730D01*
X121714466Y-76119418D01*
X120223296Y-74628248D01*
X120223295Y-74628248D01*
X120014731Y-74885806D01*
X119803510Y-75211056D01*
X119627444Y-75556605D01*
X119488462Y-75918663D01*
X119388087Y-76293269D01*
X119388086Y-76293276D01*
X119327419Y-76676312D01*
X119307122Y-77063599D01*
X119307122Y-77063600D01*
X118440700Y-77063600D01*
X118440700Y-73657465D01*
X118440965Y-73649356D01*
X118446154Y-73570181D01*
X118446179Y-73569801D01*
X118446204Y-73569446D01*
X118458909Y-73391807D01*
X118460971Y-73376499D01*
X118483155Y-73264973D01*
X118483564Y-73263006D01*
X118513988Y-73123149D01*
X118517719Y-73109705D01*
X118556443Y-72995630D01*
X118557604Y-72992367D01*
X118605268Y-72864577D01*
X118610217Y-72853113D01*
X118664681Y-72742672D01*
X118666977Y-72738251D01*
X118731055Y-72620901D01*
X118736762Y-72611475D01*
X118805839Y-72508094D01*
X118809625Y-72502744D01*
X118889050Y-72396646D01*
X118895023Y-72389278D01*
X118977361Y-72295389D01*
X118982848Y-72289531D01*
X119076331Y-72196048D01*
X119082189Y-72190561D01*
X119176078Y-72108223D01*
X119183446Y-72102250D01*
X119289544Y-72022825D01*
X119294894Y-72019039D01*
X119398275Y-71949962D01*
X119407701Y-71944255D01*
X119525051Y-71880177D01*
X119529472Y-71877881D01*
X119639913Y-71823417D01*
X119651377Y-71818468D01*
X119779167Y-71770804D01*
X119782430Y-71769643D01*
X119896505Y-71730919D01*
X119909949Y-71727188D01*
X120049806Y-71696764D01*
X120051773Y-71696355D01*
X120163299Y-71674171D01*
X120178607Y-71672109D01*
X120356393Y-71659392D01*
X120436157Y-71654164D01*
X120444265Y-71653900D01*
X160987735Y-71653900D01*
X160995842Y-71654164D01*
G37*
%TD.AperFunction*%
%TD*%
M02*
