M48
; DRILL file {KiCad 7.0.10} date Sun Jun  9 22:37:09 2024
; FORMAT={-:-/ absolute / inch / decimal}
; #@! TF.CreationDate,2024-06-09T22:37:09-03:00
; #@! TF.GenerationSoftware,Kicad,Pcbnew,7.0.10
; #@! TF.FileFunction,Plated,1,2,PTH
FMAT,2
INCH
; #@! TA.AperFunction,Plated,PTH,ViaDrill
T1C0.0157
; #@! TA.AperFunction,Plated,PTH,ComponentDrill
T2C0.0394
; #@! TA.AperFunction,Plated,PTH,ComponentDrill
T3C0.1260
%
G90
G05
T1
X5.198Y-4.313
X5.205Y-3.254
X5.206Y-3.085
X5.21Y-4.969
X5.213Y-3.758
X5.303Y-4.263
X5.3385Y-4.8675
X5.339Y-3.178
X5.341Y-3.073
X5.3455Y-4.3615
X5.3485Y-4.9645
X5.36Y-3.756
X5.366Y-3.1264
X5.367Y-3.71
X5.368Y-3.988
X5.368Y-4.3114
X5.368Y-4.915
X5.474Y-3.029
X5.475Y-3.613
X5.477Y-4.816
X5.482Y-4.216
X5.55Y-3.038
X5.55Y-3.213
X5.552Y-3.62
X5.552Y-3.793
X5.557Y-4.178
X5.557Y-4.434
X5.558Y-4.778
X5.558Y-5.046
X5.699Y-3.1635
X5.701Y-3.0895
X5.707Y-4.772
X5.71Y-2.979
X5.71Y-3.855
X5.711Y-4.454
X5.714Y-3.255
X5.714Y-3.573
X5.715Y-4.174
X5.715Y-5.058
X5.749Y-4.913
X5.909Y-3.703
X6.311Y-4.102
T2
X4.822Y-3.702
X4.822Y-3.802
X4.822Y-3.902
X4.822Y-4.002
X4.822Y-4.102
X4.922Y-3.702
X4.922Y-3.802
X4.922Y-3.902
X4.922Y-4.002
X4.922Y-4.102
X6.122Y-3.602
X6.122Y-3.702
X6.122Y-3.802
X6.122Y-3.902
X6.122Y-4.002
X6.122Y-4.102
X6.122Y-4.202
X6.122Y-4.302
X6.222Y-3.602
X6.222Y-3.702
X6.222Y-3.802
X6.222Y-3.902
X6.222Y-4.002
X6.222Y-4.102
X6.222Y-4.202
X6.222Y-4.302
T3
X4.843Y-3.034
X4.843Y-4.968
X6.222Y-3.034
X6.222Y-4.968
M30
