%TF.GenerationSoftware,KiCad,Pcbnew,7.0.10*%
%TF.CreationDate,2024-06-09T22:37:06-03:00*%
%TF.ProjectId,level_translator_4ch,6c657665-6c5f-4747-9261-6e736c61746f,rev?*%
%TF.SameCoordinates,Original*%
%TF.FileFunction,Paste,Top*%
%TF.FilePolarity,Positive*%
%FSLAX46Y46*%
G04 Gerber Fmt 4.6, Leading zero omitted, Abs format (unit mm)*
G04 Created by KiCad (PCBNEW 7.0.10) date 2024-06-09 22:37:06*
%MOMM*%
%LPD*%
G01*
G04 APERTURE LIST*
G04 Aperture macros list*
%AMRoundRect*
0 Rectangle with rounded corners*
0 $1 Rounding radius*
0 $2 $3 $4 $5 $6 $7 $8 $9 X,Y pos of 4 corners*
0 Add a 4 corners polygon primitive as box body*
4,1,4,$2,$3,$4,$5,$6,$7,$8,$9,$2,$3,0*
0 Add four circle primitives for the rounded corners*
1,1,$1+$1,$2,$3*
1,1,$1+$1,$4,$5*
1,1,$1+$1,$6,$7*
1,1,$1+$1,$8,$9*
0 Add four rect primitives between the rounded corners*
20,1,$1+$1,$2,$3,$4,$5,0*
20,1,$1+$1,$4,$5,$6,$7,0*
20,1,$1+$1,$6,$7,$8,$9,0*
20,1,$1+$1,$8,$9,$2,$3,0*%
G04 Aperture macros list end*
%ADD10RoundRect,0.218750X-0.256250X0.218750X-0.256250X-0.218750X0.256250X-0.218750X0.256250X0.218750X0*%
%ADD11RoundRect,0.200000X-0.275000X0.200000X-0.275000X-0.200000X0.275000X-0.200000X0.275000X0.200000X0*%
%ADD12R,1.000000X0.550000*%
%ADD13RoundRect,0.200000X0.275000X-0.200000X0.275000X0.200000X-0.275000X0.200000X-0.275000X-0.200000X0*%
%ADD14RoundRect,0.237500X0.300000X0.237500X-0.300000X0.237500X-0.300000X-0.237500X0.300000X-0.237500X0*%
%ADD15RoundRect,0.218750X0.256250X-0.218750X0.256250X0.218750X-0.256250X0.218750X-0.256250X-0.218750X0*%
G04 APERTURE END LIST*
D10*
%TO.C,D7*%
X133727200Y-96662100D03*
X133727200Y-98237100D03*
%TD*%
D11*
%TO.C,R25*%
X135255000Y-111900200D03*
X135255000Y-113550200D03*
%TD*%
D12*
%TO.C,U1*%
X140004800Y-80360600D03*
X140004800Y-79410600D03*
X140004800Y-78460600D03*
X137304800Y-78460600D03*
X137304800Y-79410600D03*
X137304800Y-80360600D03*
%TD*%
D10*
%TO.C,D9*%
X133756400Y-111937700D03*
X133756400Y-113512700D03*
%TD*%
D13*
%TO.C,R28*%
X143789400Y-108571800D03*
X143789400Y-106921800D03*
%TD*%
D11*
%TO.C,R18*%
X135251200Y-127231600D03*
X135251200Y-128881600D03*
%TD*%
D14*
%TO.C,C4*%
X135326300Y-94249200D03*
X133601300Y-94249200D03*
%TD*%
D13*
%TO.C,R20*%
X135251200Y-122430000D03*
X135251200Y-120780000D03*
%TD*%
D11*
%TO.C,R3*%
X142207000Y-76822800D03*
X142207000Y-78472800D03*
%TD*%
D13*
%TO.C,R26*%
X135255000Y-107098600D03*
X135255000Y-105448600D03*
%TD*%
%TO.C,R13*%
X142210800Y-96826800D03*
X142210800Y-95176800D03*
%TD*%
D15*
%TO.C,D3*%
X133723400Y-76962100D03*
X133723400Y-75387100D03*
%TD*%
D10*
%TO.C,D1*%
X133723400Y-81838700D03*
X133723400Y-83413700D03*
%TD*%
D11*
%TO.C,R27*%
X142240000Y-106921800D03*
X142240000Y-108571800D03*
%TD*%
%TO.C,R6*%
X143785600Y-125783800D03*
X143785600Y-127433800D03*
%TD*%
D13*
%TO.C,R8*%
X143785600Y-123903200D03*
X143785600Y-122253200D03*
%TD*%
D12*
%TO.C,U3*%
X140037800Y-110459600D03*
X140037800Y-109509600D03*
X140037800Y-108559600D03*
X137337800Y-108559600D03*
X137337800Y-109509600D03*
X137337800Y-110459600D03*
%TD*%
D13*
%TO.C,R21*%
X142240000Y-112102400D03*
X142240000Y-110452400D03*
%TD*%
%TO.C,R16*%
X143760200Y-93296200D03*
X143760200Y-91646200D03*
%TD*%
D11*
%TO.C,R22*%
X143789400Y-110452400D03*
X143789400Y-112102400D03*
%TD*%
%TO.C,R2*%
X143756400Y-80353400D03*
X143756400Y-82003400D03*
%TD*%
D13*
%TO.C,R5*%
X142236200Y-127433800D03*
X142236200Y-125783800D03*
%TD*%
D14*
%TO.C,C3*%
X135355500Y-109524800D03*
X133630500Y-109524800D03*
%TD*%
D13*
%TO.C,R19*%
X135222000Y-76999600D03*
X135222000Y-75349600D03*
%TD*%
D11*
%TO.C,R15*%
X142210800Y-91646200D03*
X142210800Y-93296200D03*
%TD*%
D13*
%TO.C,R1*%
X142207000Y-82003400D03*
X142207000Y-80353400D03*
%TD*%
D14*
%TO.C,C1*%
X135322500Y-79425800D03*
X133597500Y-79425800D03*
%TD*%
D10*
%TO.C,D2*%
X133752600Y-127269100D03*
X133752600Y-128844100D03*
%TD*%
D13*
%TO.C,R24*%
X135225800Y-91823000D03*
X135225800Y-90173000D03*
%TD*%
D12*
%TO.C,U4*%
X140008600Y-95184000D03*
X140008600Y-94234000D03*
X140008600Y-93284000D03*
X137308600Y-93284000D03*
X137308600Y-94234000D03*
X137308600Y-95184000D03*
%TD*%
D11*
%TO.C,R23*%
X135225800Y-96624600D03*
X135225800Y-98274600D03*
%TD*%
D15*
%TO.C,D8*%
X133727200Y-91785500D03*
X133727200Y-90210500D03*
%TD*%
%TO.C,D10*%
X133756400Y-107061100D03*
X133756400Y-105486100D03*
%TD*%
D14*
%TO.C,C2*%
X135351700Y-124856200D03*
X133626700Y-124856200D03*
%TD*%
D15*
%TO.C,D4*%
X133752600Y-122392500D03*
X133752600Y-120817500D03*
%TD*%
D12*
%TO.C,U2*%
X140034000Y-125791000D03*
X140034000Y-124841000D03*
X140034000Y-123891000D03*
X137334000Y-123891000D03*
X137334000Y-124841000D03*
X137334000Y-125791000D03*
%TD*%
D13*
%TO.C,R4*%
X143756400Y-78472800D03*
X143756400Y-76822800D03*
%TD*%
D11*
%TO.C,R7*%
X142236200Y-122253200D03*
X142236200Y-123903200D03*
%TD*%
%TO.C,R14*%
X143760200Y-95176800D03*
X143760200Y-96826800D03*
%TD*%
%TO.C,R17*%
X135222000Y-81801200D03*
X135222000Y-83451200D03*
%TD*%
M02*
